<svg width="98" height="115" viewBox="0 0 98 115" fill="none" xmlns="http://www.w3.org/2000/svg">
<path d="M58.4338 35.8041C58.5851 36.0574 58.6588 36.8135 58.6588 38.0684C58.6588 50.1071 56.7271 62.2977 52.8675 74.6364C48.5075 88.4366 42.7667 99.9491 35.6449 109.166C26.4711 121.053 16.2655 127 5.0359 127C-3.83919 127 -10.5071 124.529 -14.968 119.595C-18.878 115.316 -20.833 109.497 -20.833 102.143C-20.833 94.037 -18.2535 84.0873 -13.0867 72.2981C-8.37371 61.5182 -5.11537 56.1283 -3.31165 56.1283C-2.91212 56.1283 -2.71041 56.4089 -2.71041 56.9624C-2.71041 57.4651 -4.61499 61.9625 -8.42414 70.4508C-12.2333 78.939 -14.1379 85.7008 -14.1379 90.736C-14.1379 96.2779 -12.1596 100.935 -8.19916 104.712C-4.03702 108.64 1.37803 110.604 8.04598 110.604C15.9668 110.604 23.814 107.529 31.5836 101.387C38.8528 95.6427 43.589 89.2745 45.7961 82.2712C46.9986 78.596 47.852 73.8843 48.3524 68.1436C48.6511 64.0632 48.9575 59.9593 49.2562 55.8244C49.4579 54.1135 50.8466 50.3487 53.43 44.5301C56.0134 38.7115 57.6813 35.8041 58.43 35.8041M27.3788 68.8958C27.4292 70.6573 26.3237 72.7969 24.07 75.3184C21.9637 77.6334 20.4587 78.8182 19.5588 78.8688C17.1034 76.7526 14.3454 74.6637 11.2888 72.5982C10.5867 72.1967 10.5363 71.6433 11.1375 70.934C15.4509 66.0975 18.0809 62.7732 19.0351 60.9609C19.8342 60.9609 21.3392 61.7677 23.5464 63.3811C26.0522 65.2947 27.3322 67.1342 27.3827 68.8958" fill="#A03E95"/>
<path d="M92.3477 71.6784C92.2469 71.6784 91.3818 72.9138 89.7527 75.3808C88.1196 77.8517 85.6293 79.0832 82.2701 79.0832C74.7992 79.0832 70.9125 74.7533 70.6138 66.0897C70.5634 64.0749 72.53 43.6727 74.2601 29.1671C75.9901 14.6576 76.8047 5.91994 76.7038 2.94633C76.603 0.982109 76.4051 0 76.1026 0C75.6022 0 74.6751 2.08893 73.3175 6.27069C72.0141 10.1991 71.2888 12.7947 71.1375 14.0535C69.935 24.1786 67.2779 47.2504 65.4238 58.985C64.4191 65.1349 63.9187 70.5443 63.9187 75.2327C63.9187 88.8848 68.0304 95.7089 76.2538 95.7089C79.5122 95.7089 82.1926 94.528 84.2988 92.1585C85.2026 91.2037 86.6301 88.9082 88.5851 85.2837C91.7426 79.5431 93.3252 75.5367 93.3252 73.2685C93.3252 72.2084 92.9955 71.6823 92.3477 71.6823" fill="#A03E95"/>
<path d="M93.3252 23.4732C91.1181 21.8597 89.6169 21.0569 88.814 21.0569C87.8636 22.8691 85.2298 26.1935 80.9202 31.03C80.3151 31.7354 80.3694 32.2888 81.0715 32.6902C84.1282 34.7558 86.8861 36.8486 89.3454 38.9609C90.2453 38.9102 91.7503 37.7255 93.8566 35.4105C96.1103 32.8929 97.2158 30.7533 97.1654 28.9878C97.115 27.2263 95.8349 25.3868 93.3291 23.4732" fill="#A03E95"/>
</svg>
