<svg width="41" height="24" viewBox="0 0 41 24" fill="none" xmlns="http://www.w3.org/2000/svg">
<path d="M26.8919 16.5511C26.7767 16.4954 26.6999 16.4396 26.6615 16.4025L26.316 16.1424L26.6807 15.9009C27.4677 15.3622 30.0014 13.3003 30.1166 9.2322H26.6807C26.1049 13.5789 23.552 14.5077 21.4789 14.5077H21.1526V9.2322H17.8895V14.4149C17.8895 15.2694 17.1409 16.291 15.6821 16.904C17.1217 17.4241 17.8895 18.2229 17.8895 19.4303V23.9814H21.1526V17.5913H21.4789C24.6845 17.5913 27.0262 20.2663 27.1414 23.9814H30.8076C30.7308 20.4892 29.4256 17.9814 26.8919 16.5325" fill="#244374"/>
<path d="M14.588 14.4149V9.25077H11.5744V14.452L10.9986 13.7647C9.84691 12.3715 8.48408 11.257 6.9677 10.4768C5.41292 9.67802 3.81976 9.25077 2.2074 9.19505V14.3963C2.2074 15.2508 1.4588 16.2724 0 16.8855C1.43961 17.4056 2.2074 18.2043 2.2074 19.4118V23.9814H5.52809V13.0217L6.00796 13.3003C7.56273 14.2105 8.88717 15.6223 9.86611 17.3684C10.8642 19.1517 11.4593 21.2322 11.5744 23.4056V23.9443H14.588V19.4118C14.588 18.1858 15.3558 17.4056 16.7954 16.8855C15.3174 16.2724 14.588 15.2508 14.588 14.3963" fill="#244374"/>
<path d="M38.5815 5.70279C38.5239 6.20433 38.2743 6.87306 37.6217 6.96594C37.6217 6.96594 37.449 7.83901 36.3165 7.89474C35.9518 7.95046 35.779 8.19195 35.7022 8.32198C35.6255 8.19195 35.4527 7.95046 35.088 7.89474C33.9555 7.83901 33.7828 6.96594 33.7828 6.96594C33.1301 6.87306 32.8806 6.20433 32.823 5.70279C32.7654 5.36842 32.5351 5.20124 32.4007 5.12694C32.5351 5.05263 32.7654 4.88545 32.823 4.55108C32.8806 4.04954 33.1301 3.38081 33.7828 3.28793C33.7828 3.28793 33.9555 2.41486 35.088 2.35913C35.4527 2.30341 35.6255 2.06192 35.7022 1.93189C35.779 2.06192 35.9518 2.30341 36.3165 2.35913C37.449 2.41486 37.6217 3.28793 37.6217 3.28793C38.2743 3.38081 38.5239 4.04954 38.5815 4.55108C38.639 4.88545 38.8694 5.05263 39.0037 5.12694C38.8694 5.20124 38.639 5.36842 38.5815 5.70279Z" fill="#05A6AB"/>
<path d="M36.9115 5.34985C36.8923 5.55418 36.7772 5.85139 36.5084 5.88855C36.5084 5.88855 36.4316 6.26006 35.9518 6.27864C35.7982 6.29721 35.7214 6.40867 35.7022 6.4644C35.6831 6.40867 35.6063 6.31579 35.4527 6.27864C34.9728 6.26006 34.8961 5.88855 34.8961 5.88855C34.6273 5.85139 34.5122 5.57276 34.493 5.34985C34.4738 5.20124 34.3778 5.12694 34.3202 5.10836C34.3778 5.07121 34.4738 4.9969 34.493 4.86687C34.5122 4.66254 34.6273 4.36532 34.8961 4.32817C34.8961 4.32817 34.9728 3.95666 35.4527 3.93808C35.6063 3.9195 35.6831 3.80805 35.7022 3.75232C35.7214 3.80805 35.7982 3.90093 35.9518 3.93808C36.4316 3.95666 36.5084 4.32817 36.5084 4.32817C36.7772 4.36532 36.8923 4.64396 36.9115 4.86687C36.9307 5.01548 37.0267 5.08978 37.0843 5.10836C37.0267 5.14551 36.9307 5.21981 36.9115 5.34985Z" fill="#F17025"/>
<path d="M40.309 4.17957C40.213 3.36223 39.8099 2.28483 38.7734 2.1548C38.7734 2.1548 38.4855 0.780186 36.6812 0.668731C36.0861 0.575851 35.8174 0.185759 35.7022 0C35.5871 0.204334 35.3184 0.575851 34.7233 0.668731C32.919 0.76161 32.6311 2.1548 32.6311 2.1548C31.5946 2.30341 31.1915 3.36223 31.0955 4.17957C30.9995 4.71827 30.6348 4.9969 30.4237 5.10836C30.6348 5.21981 30.9995 5.49845 31.0955 6.03715C31.1915 6.85449 31.5946 7.93189 32.6311 8.06192C32.6311 8.06192 32.919 9.45511 34.7233 9.54799C35.3184 9.64087 35.5871 10.031 35.7022 10.2167C35.8174 10.0124 36.0861 9.64087 36.6812 9.54799C38.4855 9.45511 38.7734 8.06192 38.7734 8.06192C39.8099 7.91331 40.213 6.85449 40.309 6.03715C40.405 5.49845 40.7697 5.21981 40.9808 5.10836C40.7697 4.9969 40.405 4.71827 40.309 4.17957ZM38.5815 5.70279C38.5239 6.20433 38.2743 6.87306 37.6217 6.96594C37.6217 6.96594 37.449 7.83901 36.3165 7.89474C35.9518 7.95046 35.779 8.19195 35.7022 8.32198C35.6255 8.19195 35.4527 7.95046 35.088 7.89474C33.9555 7.83901 33.7828 6.96594 33.7828 6.96594C33.1301 6.87306 32.8806 6.20433 32.823 5.70279C32.7654 5.36842 32.5351 5.20124 32.4007 5.12694C32.5351 5.05263 32.7654 4.88545 32.823 4.55108C32.8806 4.04954 33.1301 3.38081 33.7828 3.28793C33.7828 3.28793 33.9555 2.41486 35.088 2.35913C35.4527 2.30341 35.6255 2.06192 35.7022 1.93189C35.779 2.06192 35.9518 2.30341 36.3165 2.35913C37.449 2.41486 37.6217 3.28793 37.6217 3.28793C38.2743 3.38081 38.5239 4.04954 38.5815 4.55108C38.639 4.88545 38.8694 5.05263 39.0037 5.12694C38.8694 5.20124 38.639 5.36842 38.5815 5.70279Z" fill="#1A4175"/>
<path d="M37.7561 4.69969C37.7177 4.34675 37.5449 3.86378 37.0843 3.78947C37.0843 3.78947 36.9499 3.17647 36.1629 3.13932C35.8942 3.10217 35.779 2.93498 35.7214 2.84211C35.6639 2.93498 35.5487 3.10217 35.28 3.13932C34.4738 3.17647 34.3586 3.78947 34.3586 3.78947C33.8979 3.8452 33.7252 4.32817 33.6868 4.69969C33.6484 4.94118 33.4949 5.07121 33.3989 5.10836C33.4949 5.16409 33.6484 5.27554 33.6868 5.51703C33.7252 5.86997 33.8979 6.35294 34.3586 6.42724C34.3586 6.42724 34.493 7.04025 35.28 7.0774C35.5487 7.11455 35.6639 7.28173 35.7214 7.37461C35.779 7.28173 35.8942 7.11455 36.1629 7.0774C36.9691 7.04025 37.0843 6.42724 37.0843 6.42724C37.5449 6.37152 37.7177 5.88855 37.7561 5.51703C37.7945 5.27554 37.948 5.14551 38.044 5.10836C37.948 5.05263 37.7945 4.94118 37.7561 4.69969ZM36.9115 5.34985C36.8923 5.55418 36.7772 5.85139 36.5084 5.88855C36.5084 5.88855 36.4316 6.26006 35.9518 6.27864C35.7982 6.29721 35.7214 6.40867 35.7022 6.4644C35.6831 6.40867 35.6063 6.31579 35.4527 6.27864C34.9728 6.26006 34.8961 5.88855 34.8961 5.88855C34.6273 5.85139 34.5122 5.57276 34.493 5.34985C34.4738 5.20124 34.3778 5.12694 34.3202 5.10836C34.3778 5.07121 34.4738 4.9969 34.493 4.86687C34.5122 4.66254 34.6273 4.36532 34.8961 4.32817C34.8961 4.32817 34.9728 3.95666 35.4527 3.93808C35.6063 3.9195 35.6831 3.80805 35.7022 3.75232C35.7214 3.80805 35.7982 3.90093 35.9518 3.93808C36.4316 3.95666 36.5084 4.32817 36.5084 4.32817C36.7772 4.36532 36.8923 4.64396 36.9115 4.86687C36.9307 5.01548 37.0267 5.08978 37.0843 5.10836C37.0267 5.14551 36.9307 5.21981 36.9115 5.34985Z" fill="white"/>
</svg>
