<svg width="20" height="20" viewBox="0 0 20 20" fill="none" xmlns="http://www.w3.org/2000/svg">
<path d="M20 10C20 15.5278 15.5278 20 10 20C4.47222 20 0 15.5278 0 10C0 4.47222 4.47222 0 10 0C15.5278 0 20 4.47222 20 10Z" fill="#29B474"/>
<path d="M4.84722 12.5694H4.83333L3.01389 6.41667H3.875L4.40278 8.30556C4.66667 9.26389 4.90278 9.97222 5.11111 10.8472C5.59722 9.98611 6.04167 9.26389 6.61111 8.30556L7.75 6.41667H8.61111L4.84722 12.5694Z" fill="white"/>
<path d="M11.625 9.81945C11.625 10.1528 11.5278 10.4028 11.5139 10.5278H8.38889C8.29167 11.3611 8.75 11.875 9.63889 11.875C10.2083 11.875 10.8333 11.7083 11.2222 11.4861L11.1111 12.1944C10.75 12.375 10.1667 12.5556 9.48611 12.5556C8.30556 12.5556 7.58333 11.8056 7.58333 10.6944C7.58333 9.26389 8.72222 8.15278 10.0278 8.15278C11.1111 8.15278 11.6528 8.91667 11.6528 9.80556M9.90278 8.81945C9.18056 8.81945 8.65278 9.375 8.48611 9.98611H10.8472C10.9444 9.375 10.6528 8.81945 9.90278 8.81945Z" fill="white"/>
<path d="M12.4861 13.3194C12.8472 13.5694 13.3194 13.6944 13.9167 13.6944C14.75 13.6944 15.4167 13.25 15.5417 12.4306L15.5972 12.0972C15.625 11.875 15.6806 11.7361 15.6806 11.7361H15.6667C15.375 12.1667 14.75 12.5556 14.0694 12.5556C13.1111 12.5556 12.4444 11.8194 12.4444 10.7222C12.4444 9.23611 13.5278 8.15278 14.7778 8.15278C15.4583 8.15278 15.9861 8.56945 16.125 9H16.1389C16.1389 9 16.1389 8.875 16.1667 8.69445L16.25 8.26389H16.9722L16.3056 12.4583C16.0972 13.7917 15.0556 14.4028 13.8056 14.4028C13.1389 14.4028 12.6667 14.25 12.3611 14.0556L12.4722 13.3056L12.4861 13.3194ZM13.2083 10.6389C13.2083 11.375 13.625 11.8889 14.3056 11.8889C15.0139 11.8889 15.8889 11.3194 15.8889 10.0833C15.8889 9.23611 15.3472 8.83333 14.7778 8.83333C13.8889 8.83333 13.2083 9.625 13.2083 10.625" fill="white"/>
</svg>
