<svg width="20" height="20" viewBox="0 0 20 20" fill="none" xmlns="http://www.w3.org/2000/svg">
<path d="M10 20C15.5228 20 20 15.5228 20 10C20 4.47715 15.5228 0 10 0C4.47715 0 0 4.47715 0 10C0 15.5228 4.47715 20 10 20Z" fill="#C0A159"/>
<path d="M10.1205 10.765V13.4631C9.46685 13.8016 8.70654 13.9731 7.84886 13.9731C6.81039 13.9731 5.95271 13.644 5.27121 12.981C4.59898 12.3273 4.26055 11.5021 4.26055 10.5053C4.26055 9.50858 4.59898 8.69263 5.27121 8.03894C5.95271 7.37135 6.80111 7.03755 7.82105 7.03755C8.56746 7.03755 9.2675 7.19054 9.91655 7.49189V8.80853C9.24896 8.49791 8.58136 8.34492 7.91377 8.34492C7.24618 8.34492 6.69448 8.55355 6.30042 8.96616C5.89708 9.38804 5.69773 9.89801 5.69773 10.5053C5.69773 11.1127 5.89708 11.6412 6.29114 12.0538C6.68521 12.4664 7.20445 12.675 7.84886 12.675C8.17803 12.675 8.47937 12.6333 8.75753 12.5452V10.765H10.1205Z" fill="white"/>
<path d="M15.7116 7.16736V8.36347H13.0691V9.95827H15.2944V11.1358H13.0691V13.8433H11.6412V7.16736H15.7116Z" fill="white"/>
</svg>
