<svg width="241" height="818" viewBox="0 0 241 818" fill="none" xmlns="http://www.w3.org/2000/svg">
<path d="M203.651 727.11H215.028V715.75H203.651V727.11Z" fill="#50B748" fill-opacity="0.6"/>
<path d="M237.781 727.11H249.157V715.75H237.781V727.11Z" fill="#50B748" fill-opacity="0.6"/>
<path d="M203.651 704.39H215.028V681.669H203.651V704.39Z" fill="#50B748" fill-opacity="0.6"/>
<path d="M203.651 761.191H215.028V738.471H203.651V761.191Z" fill="#50B748" fill-opacity="0.6"/>
<path d="M192.274 749.831H203.651V727.11L192.274 727.11V749.831Z" fill="#50B748" fill-opacity="0.6"/>
<path d="M192.274 715.75L203.651 715.75V693.029H192.274V715.75Z" fill="#50B748" fill-opacity="0.6"/>
<path d="M215.028 749.831H226.404V727.11L215.028 727.11V749.831Z" fill="#50B748" fill-opacity="0.6"/>
<path d="M215.028 715.75L226.404 715.75V693.029H215.028V715.75Z" fill="#50B748" fill-opacity="0.6"/>
<path d="M226.404 738.471H237.781V704.39H226.404V738.471Z" fill="#50B748" fill-opacity="0.6"/>
<path d="M169.514 727.11H180.89V715.75H169.514V727.11Z" fill="#50B748" fill-opacity="0.6"/>
<path d="M180.898 738.471H192.274V704.39H180.898V738.471Z" fill="#50B748" fill-opacity="0.6"/>
<path d="M90.0343 727.11H101.411V715.75H90.0343V727.11Z" fill="#50B748" fill-opacity="0.6"/>
<path d="M124.164 727.11H135.541V715.75H124.164V727.11Z" fill="#50B748" fill-opacity="0.6"/>
<path d="M90.0343 704.39H101.411V681.669H90.0343V704.39Z" fill="#50B748" fill-opacity="0.6"/>
<path d="M90.0343 761.191H101.411V738.471H90.0343V761.191Z" fill="#50B748" fill-opacity="0.6"/>
<path d="M78.6577 749.831H90.0343L90.0343 727.11L78.6577 727.11V749.831Z" fill="#50B748" fill-opacity="0.6"/>
<path d="M78.6577 715.75L90.0343 715.75L90.0343 693.029H78.6577V715.75Z" fill="#50B748" fill-opacity="0.6"/>
<path d="M101.411 749.831H112.787V727.11L101.411 727.11L101.411 749.831Z" fill="#50B748" fill-opacity="0.6"/>
<path d="M101.411 715.75L112.787 715.75V693.029H101.411L101.411 715.75Z" fill="#50B748" fill-opacity="0.6"/>
<path d="M112.795 738.471H124.172V704.39H112.795V738.471Z" fill="#50B748" fill-opacity="0.6"/>
<path d="M55.9045 727.11H67.2811V715.75H55.9045V727.11Z" fill="#50B748" fill-opacity="0.6"/>
<path d="M67.2811 738.471H78.6577V704.39H67.2811V738.471Z" fill="#50B748" fill-opacity="0.6"/>
<path d="M317.26 727.11H328.637V715.75H317.26V727.11Z" fill="#50B748" fill-opacity="0.6"/>
<path d="M351.39 727.11H362.767V715.75H351.39V727.11Z" fill="#50B748" fill-opacity="0.6"/>
<path d="M317.26 704.39H328.637V681.669H317.26V704.39Z" fill="#50B748" fill-opacity="0.6"/>
<path d="M317.26 761.191H328.637V738.471H317.26V761.191Z" fill="#50B748" fill-opacity="0.6"/>
<path d="M305.884 749.831H317.26L317.26 727.11L305.884 727.11V749.831Z" fill="#50B748" fill-opacity="0.6"/>
<path d="M305.884 715.75L317.26 715.75L317.26 693.029H305.884V715.75Z" fill="#50B748" fill-opacity="0.6"/>
<path d="M328.637 749.831H340.013V727.11L328.637 727.11L328.637 749.831Z" fill="#50B748" fill-opacity="0.6"/>
<path d="M328.637 715.75L340.013 715.75V693.029H328.637L328.637 715.75Z" fill="#50B748" fill-opacity="0.6"/>
<path d="M340.013 738.471H351.39V704.39H340.013V738.471Z" fill="#50B748" fill-opacity="0.6"/>
<path d="M283.13 727.11H294.507V715.75H283.13V727.11Z" fill="#50B748" fill-opacity="0.6"/>
<path d="M294.507 738.471H305.884V704.39H294.507V738.471Z" fill="#50B748" fill-opacity="0.6"/>
<path d="M430.877 727.11H442.253V715.75H430.877V727.11Z" fill="#50B748" fill-opacity="0.6"/>
<path d="M465.007 727.11H476.383V715.75H465.007V727.11Z" fill="#50B748" fill-opacity="0.6"/>
<path d="M430.877 704.39H442.253V681.669H430.877V704.39Z" fill="#50B748" fill-opacity="0.6"/>
<path d="M430.877 761.191H442.253V738.471H430.877V761.191Z" fill="#50B748" fill-opacity="0.6"/>
<path d="M419.493 749.831H430.869V727.11H419.493V749.831Z" fill="#50B748" fill-opacity="0.6"/>
<path d="M419.493 715.75H430.869V693.029H419.493V715.75Z" fill="#50B748" fill-opacity="0.6"/>
<path d="M442.253 749.831H453.63V727.11L442.253 727.11V749.831Z" fill="#50B748" fill-opacity="0.6"/>
<path d="M442.253 715.75L453.63 715.75V693.029H442.253V715.75Z" fill="#50B748" fill-opacity="0.6"/>
<path d="M453.63 738.471H465.007V704.39H453.63V738.471Z" fill="#50B748" fill-opacity="0.6"/>
<path d="M396.747 727.11H408.124V715.75H396.747V727.11Z" fill="#50B748" fill-opacity="0.6"/>
<path d="M408.116 738.471H419.493V704.39H408.116V738.471Z" fill="#50B748" fill-opacity="0.6"/>
<path d="M260.459 670.301H271.836V658.941H260.459V670.301Z" fill="#50B748" fill-opacity="0.6"/>
<path d="M294.589 670.301H305.966V658.941H294.589V670.301Z" fill="#50B748" fill-opacity="0.6"/>
<path d="M260.459 647.581H271.836V624.86H260.459V647.581Z" fill="#50B748" fill-opacity="0.6"/>
<path d="M260.459 704.39H271.836V681.669H260.459V704.39Z" fill="#50B748" fill-opacity="0.6"/>
<path d="M249.075 693.029H260.452V670.309H249.075V693.029Z" fill="#50B748" fill-opacity="0.6"/>
<path d="M249.075 658.941H260.452V636.221H249.075V658.941Z" fill="#50B748" fill-opacity="0.6"/>
<path d="M271.836 693.029H283.213V670.309H271.836V693.029Z" fill="#50B748" fill-opacity="0.6"/>
<path d="M271.836 658.941L283.213 658.941V636.221H271.836V658.941Z" fill="#50B748" fill-opacity="0.6"/>
<path d="M283.213 681.662H294.589V647.581H283.213V681.662Z" fill="#50B748" fill-opacity="0.6"/>
<path d="M226.322 670.301H237.699V658.941H226.322V670.301Z" fill="#50B748" fill-opacity="0.6"/>
<path d="M237.699 681.662H249.075V647.581H237.699V681.662Z" fill="#50B748" fill-opacity="0.6"/>
<path d="M146.843 670.301H158.219V658.941H146.843V670.301Z" fill="#50B748" fill-opacity="0.6"/>
<path d="M180.972 670.301H192.349V658.941H180.972V670.301Z" fill="#50B748" fill-opacity="0.6"/>
<path d="M146.843 647.581H158.219V624.86H146.843V647.581Z" fill="#50B748" fill-opacity="0.6"/>
<path d="M146.843 704.39H158.219V681.669H146.843V704.39Z" fill="#50B748" fill-opacity="0.6"/>
<path d="M135.466 693.029H146.843V670.309H135.466V693.029Z" fill="#50B748" fill-opacity="0.6"/>
<path d="M135.466 658.941L146.843 658.941L146.843 636.221H135.466V658.941Z" fill="#50B748" fill-opacity="0.6"/>
<path d="M158.219 693.029H169.596V670.309H158.219V693.029Z" fill="#50B748" fill-opacity="0.6"/>
<path d="M158.219 658.941L169.596 658.941V636.221H158.219V658.941Z" fill="#50B748" fill-opacity="0.6"/>
<path d="M169.596 681.662H180.972V647.581H169.596V681.662Z" fill="#50B748" fill-opacity="0.6"/>
<path d="M112.713 670.301H124.089V658.941H112.713V670.301Z" fill="#50B748" fill-opacity="0.6"/>
<path d="M124.089 681.662H135.466V647.581H124.089V681.662Z" fill="#50B748" fill-opacity="0.6"/>
<path d="M374.069 670.301H385.445V658.941H374.069V670.301Z" fill="#50B748" fill-opacity="0.6"/>
<path d="M408.198 670.301H419.575V658.941H408.198V670.301Z" fill="#50B748" fill-opacity="0.6"/>
<path d="M374.069 647.581H385.445V624.86H374.069V647.581Z" fill="#50B748" fill-opacity="0.6"/>
<path d="M374.069 704.39H385.445V681.669H374.069V704.39Z" fill="#50B748" fill-opacity="0.6"/>
<path d="M362.692 693.029H374.069V670.309H362.692V693.029Z" fill="#50B748" fill-opacity="0.6"/>
<path d="M362.692 658.941L374.069 658.941V636.221H362.692V658.941Z" fill="#50B748" fill-opacity="0.6"/>
<path d="M385.445 693.029H396.822V670.309H385.445V693.029Z" fill="#50B748" fill-opacity="0.6"/>
<path d="M385.445 658.941L396.822 658.941V636.221H385.445V658.941Z" fill="#50B748" fill-opacity="0.6"/>
<path d="M396.822 681.662H408.198V647.581H396.822V681.662Z" fill="#50B748" fill-opacity="0.6"/>
<path d="M339.939 670.301H351.315V658.941H339.939V670.301Z" fill="#50B748" fill-opacity="0.6"/>
<path d="M351.315 681.662H362.692V647.581H351.315V681.662Z" fill="#50B748" fill-opacity="0.6"/>
<path d="M203.651 613.5H215.028V602.14H203.651V613.5Z" fill="#50B748" fill-opacity="0.6"/>
<path d="M237.781 613.5H249.157V602.14H237.781V613.5Z" fill="#50B748" fill-opacity="0.6"/>
<path d="M203.651 590.779H215.028V568.059H203.651V590.779Z" fill="#50B748" fill-opacity="0.6"/>
<path d="M203.651 647.581H215.028V624.86H203.651V647.581Z" fill="#50B748" fill-opacity="0.6"/>
<path d="M192.274 636.221H203.651V613.5L192.274 613.5V636.221Z" fill="#50B748" fill-opacity="0.6"/>
<path d="M192.274 602.14H203.651V579.419H192.274V602.14Z" fill="#50B748" fill-opacity="0.6"/>
<path d="M215.028 636.221H226.404V613.5L215.028 613.5V636.221Z" fill="#50B748" fill-opacity="0.6"/>
<path d="M215.028 602.14H226.404V579.419H215.028V602.14Z" fill="#50B748" fill-opacity="0.6"/>
<path d="M226.404 624.86H237.781V590.779H226.404V624.86Z" fill="#50B748" fill-opacity="0.6"/>
<path d="M169.514 613.5H180.89V602.14H169.514V613.5Z" fill="#50B748" fill-opacity="0.6"/>
<path d="M180.898 624.86H192.274V590.779H180.898V624.86Z" fill="#50B748" fill-opacity="0.6"/>
<path d="M90.0343 613.5H101.411V602.14H90.0343V613.5Z" fill="#50B748" fill-opacity="0.6"/>
<path d="M124.164 613.5H135.541V602.14H124.164V613.5Z" fill="#50B748" fill-opacity="0.6"/>
<path d="M90.0343 590.779H101.411V568.059H90.0343V590.779Z" fill="#50B748" fill-opacity="0.6"/>
<path d="M90.0343 647.581H101.411V624.86H90.0343V647.581Z" fill="#50B748" fill-opacity="0.6"/>
<path d="M78.6577 636.221H90.0343L90.0343 613.5L78.6577 613.5V636.221Z" fill="#50B748" fill-opacity="0.6"/>
<path d="M78.6577 602.14H90.0343L90.0343 579.419H78.6577V602.14Z" fill="#50B748" fill-opacity="0.6"/>
<path d="M101.411 636.221H112.787V613.5L101.411 613.5L101.411 636.221Z" fill="#50B748" fill-opacity="0.6"/>
<path d="M101.411 602.14H112.787V579.419H101.411L101.411 602.14Z" fill="#50B748" fill-opacity="0.6"/>
<path d="M112.795 624.86H124.172V590.779H112.795V624.86Z" fill="#50B748" fill-opacity="0.6"/>
<path d="M55.9045 613.5H67.2811V602.14H55.9045V613.5Z" fill="#50B748" fill-opacity="0.6"/>
<path d="M67.2811 624.86H78.6577V590.779H67.2811V624.86Z" fill="#50B748" fill-opacity="0.6"/>
<path d="M317.26 613.5H328.637V602.14H317.26V613.5Z" fill="#50B748" fill-opacity="0.6"/>
<path d="M351.39 613.5H362.767V602.14H351.39V613.5Z" fill="#50B748" fill-opacity="0.6"/>
<path d="M317.26 590.779H328.637V568.059H317.26V590.779Z" fill="#50B748" fill-opacity="0.6"/>
<path d="M317.26 647.581H328.637V624.86H317.26V647.581Z" fill="#50B748" fill-opacity="0.6"/>
<path d="M305.884 636.221H317.26L317.26 613.5L305.884 613.5V636.221Z" fill="#50B748" fill-opacity="0.6"/>
<path d="M305.884 602.14H317.26L317.26 579.419H305.884V602.14Z" fill="#50B748" fill-opacity="0.6"/>
<path d="M328.637 636.221H340.013V613.5L328.637 613.5L328.637 636.221Z" fill="#50B748" fill-opacity="0.6"/>
<path d="M328.637 602.14H340.013V579.419H328.637L328.637 602.14Z" fill="#50B748" fill-opacity="0.6"/>
<path d="M340.013 624.86H351.39V590.779H340.013V624.86Z" fill="#50B748" fill-opacity="0.6"/>
<path d="M283.13 613.5H294.507V602.14H283.13V613.5Z" fill="#50B748" fill-opacity="0.6"/>
<path d="M294.507 624.86H305.884V590.779H294.507V624.86Z" fill="#50B748" fill-opacity="0.6"/>
<path d="M430.877 613.5H442.253V602.14H430.877V613.5Z" fill="#50B748" fill-opacity="0.6"/>
<path d="M465.007 613.5H476.383V602.14H465.007V613.5Z" fill="#50B748" fill-opacity="0.6"/>
<path d="M430.877 590.779H442.253V568.059H430.877V590.779Z" fill="#50B748" fill-opacity="0.6"/>
<path d="M430.877 647.581H442.253V624.86H430.877V647.581Z" fill="#50B748" fill-opacity="0.6"/>
<path d="M419.493 636.221H430.869V613.5H419.493V636.221Z" fill="#50B748" fill-opacity="0.6"/>
<path d="M419.493 602.14H430.869V579.419H419.493V602.14Z" fill="#50B748" fill-opacity="0.6"/>
<path d="M442.253 636.221H453.63V613.5L442.253 613.5V636.221Z" fill="#50B748" fill-opacity="0.6"/>
<path d="M442.253 602.14H453.63V579.419H442.253V602.14Z" fill="#50B748" fill-opacity="0.6"/>
<path d="M453.63 624.86H465.007V590.779H453.63V624.86Z" fill="#50B748" fill-opacity="0.6"/>
<path d="M396.747 613.5H408.124V602.14H396.747V613.5Z" fill="#50B748" fill-opacity="0.6"/>
<path d="M408.116 624.86H419.493V590.779H408.116V624.86Z" fill="#50B748" fill-opacity="0.6"/>
<path d="M374.069 556.691H385.445V545.331H374.069V556.691Z" fill="#50B748" fill-opacity="0.6"/>
<path d="M408.198 556.691H419.575V545.331H408.198V556.691Z" fill="#50B748" fill-opacity="0.6"/>
<path d="M374.069 533.971H385.445V511.25H374.069V533.971Z" fill="#50B748" fill-opacity="0.6"/>
<path d="M374.069 590.779H385.445V568.059H374.069V590.779Z" fill="#50B748" fill-opacity="0.6"/>
<path d="M362.692 579.419H374.069V556.699H362.692V579.419Z" fill="#50B748" fill-opacity="0.6"/>
<path d="M362.692 545.331H374.069V522.61H362.692V545.331Z" fill="#50B748" fill-opacity="0.6"/>
<path d="M385.445 579.419H396.822V556.699H385.445V579.419Z" fill="#50B748" fill-opacity="0.6"/>
<path d="M385.445 545.331H396.822V522.61H385.445V545.331Z" fill="#50B748" fill-opacity="0.6"/>
<path d="M396.822 568.051H408.198V533.971H396.822V568.051Z" fill="#50B748" fill-opacity="0.6"/>
<path d="M339.939 556.691H351.315V545.331H339.939V556.691Z" fill="#50B748" fill-opacity="0.6"/>
<path d="M351.315 568.051H362.692V533.971H351.315V568.051Z" fill="#50B748" fill-opacity="0.6"/>
<path d="M203.651 499.89H215.028V488.529H203.651V499.89Z" fill="#50B748" fill-opacity="0.6"/>
<path d="M237.781 499.89H249.157V488.529H237.781V499.89Z" fill="#50B748" fill-opacity="0.6"/>
<path d="M203.651 477.162H215.028V454.441H203.651V477.162Z" fill="#50B748" fill-opacity="0.6"/>
<path d="M203.651 533.971H215.028V511.25H203.651V533.971Z" fill="#50B748" fill-opacity="0.6"/>
<path d="M192.274 522.61H203.651V499.89L192.274 499.89V522.61Z" fill="#50B748" fill-opacity="0.6"/>
<path d="M192.274 488.529L203.651 488.529V465.809H192.274V488.529Z" fill="#50B748" fill-opacity="0.6"/>
<path d="M215.028 522.61H226.404V499.89L215.028 499.89V522.61Z" fill="#50B748" fill-opacity="0.6"/>
<path d="M215.028 488.529L226.404 488.529V465.809H215.028V488.529Z" fill="#50B748" fill-opacity="0.6"/>
<path d="M226.404 511.25H237.781V477.169H226.404V511.25Z" fill="#50B748" fill-opacity="0.6"/>
<path d="M169.514 499.89H180.89V488.529H169.514V499.89Z" fill="#50B748" fill-opacity="0.6"/>
<path d="M180.898 511.25H192.274V477.169H180.898V511.25Z" fill="#50B748" fill-opacity="0.6"/>
<path d="M90.0343 499.89H101.411V488.529H90.0343V499.89Z" fill="#50B748" fill-opacity="0.6"/>
<path d="M124.164 499.89H135.541V488.529H124.164V499.89Z" fill="#50B748" fill-opacity="0.6"/>
<path d="M90.0343 477.162H101.411V454.441H90.0343V477.162Z" fill="#50B748" fill-opacity="0.6"/>
<path d="M90.0343 533.971H101.411V511.25H90.0343V533.971Z" fill="#50B748" fill-opacity="0.6"/>
<path d="M78.6577 522.61H90.0343L90.0343 499.89L78.6577 499.89V522.61Z" fill="#50B748" fill-opacity="0.6"/>
<path d="M78.6577 488.529L90.0343 488.529L90.0343 465.809H78.6577V488.529Z" fill="#50B748" fill-opacity="0.6"/>
<path d="M101.411 522.61H112.787V499.89L101.411 499.89L101.411 522.61Z" fill="#50B748" fill-opacity="0.6"/>
<path d="M101.411 488.529L112.787 488.529V465.809H101.411L101.411 488.529Z" fill="#50B748" fill-opacity="0.6"/>
<path d="M112.795 511.25H124.172V477.169H112.795V511.25Z" fill="#50B748" fill-opacity="0.6"/>
<path d="M55.9045 499.89H67.2811V488.529H55.9045V499.89Z" fill="#50B748" fill-opacity="0.6"/>
<path d="M67.2811 511.25H78.6577V477.169H67.2811V511.25Z" fill="#50B748" fill-opacity="0.6"/>
<path d="M317.26 499.89H328.637V488.529H317.26V499.89Z" fill="#50B748" fill-opacity="0.6"/>
<path d="M351.39 499.89H362.767V488.529H351.39V499.89Z" fill="#50B748" fill-opacity="0.6"/>
<path d="M317.26 477.162H328.637V454.441H317.26V477.162Z" fill="#50B748" fill-opacity="0.6"/>
<path d="M317.26 533.971H328.637V511.25H317.26V533.971Z" fill="#50B748" fill-opacity="0.6"/>
<path d="M305.884 522.61H317.26L317.26 499.89L305.884 499.89V522.61Z" fill="#50B748" fill-opacity="0.6"/>
<path d="M305.884 488.529L317.26 488.529L317.26 465.809H305.884V488.529Z" fill="#50B748" fill-opacity="0.6"/>
<path d="M328.637 522.61H340.013V499.89L328.637 499.89L328.637 522.61Z" fill="#50B748" fill-opacity="0.6"/>
<path d="M328.637 488.529L340.013 488.529V465.809H328.637L328.637 488.529Z" fill="#50B748" fill-opacity="0.6"/>
<path d="M340.013 511.25H351.39V477.169H340.013V511.25Z" fill="#50B748" fill-opacity="0.6"/>
<path d="M283.13 499.89H294.507V488.529H283.13V499.89Z" fill="#50B748" fill-opacity="0.6"/>
<path d="M294.507 511.25H305.884V477.169H294.507V511.25Z" fill="#50B748" fill-opacity="0.6"/>
<path d="M430.877 499.89H442.253V488.529H430.877V499.89Z" fill="#50B748" fill-opacity="0.6"/>
<path d="M465.007 499.89H476.383V488.529H465.007V499.89Z" fill="#50B748" fill-opacity="0.6"/>
<path d="M430.877 477.162H442.253V454.441H430.877V477.162Z" fill="#50B748" fill-opacity="0.6"/>
<path d="M430.877 533.971H442.253V511.25H430.877V533.971Z" fill="#50B748" fill-opacity="0.6"/>
<path d="M419.493 522.61H430.869V499.89H419.493V522.61Z" fill="#50B748" fill-opacity="0.6"/>
<path d="M419.493 488.529H430.869V465.809H419.493V488.529Z" fill="#50B748" fill-opacity="0.6"/>
<path d="M442.253 522.61H453.63V499.89L442.253 499.89V522.61Z" fill="#50B748" fill-opacity="0.6"/>
<path d="M442.253 488.529L453.63 488.529V465.809H442.253V488.529Z" fill="#50B748" fill-opacity="0.6"/>
<path d="M453.63 511.25H465.007V477.169H453.63V511.25Z" fill="#50B748" fill-opacity="0.6"/>
<path d="M396.747 499.89H408.124V488.529H396.747V499.89Z" fill="#50B748" fill-opacity="0.6"/>
<path d="M408.116 511.25H419.493V477.169H408.116V511.25Z" fill="#50B748" fill-opacity="0.6"/>
<path d="M260.459 443.081H271.836V431.721H260.459V443.081Z" fill="#50B748" fill-opacity="0.6"/>
<path d="M294.589 443.081H305.966V431.721H294.589V443.081Z" fill="#50B748" fill-opacity="0.6"/>
<path d="M260.459 420.36H271.836V397.64H260.459V420.36Z" fill="#50B748" fill-opacity="0.6"/>
<path d="M260.459 477.162H271.836V454.441H260.459V477.162Z" fill="#50B748" fill-opacity="0.6"/>
<path d="M249.075 465.801H260.452V443.081H249.075V465.801Z" fill="#50B748" fill-opacity="0.6"/>
<path d="M249.075 431.721H260.452V409H249.075V431.721Z" fill="#50B748" fill-opacity="0.6"/>
<path d="M271.836 465.801H283.213V443.081H271.836V465.801Z" fill="#50B748" fill-opacity="0.6"/>
<path d="M271.836 431.721H283.213V409H271.836V431.721Z" fill="#50B748" fill-opacity="0.6"/>
<path d="M283.213 454.441H294.589V420.36H283.213V454.441Z" fill="#50B748" fill-opacity="0.6"/>
<path d="M226.322 443.081H237.699V431.721H226.322V443.081Z" fill="#50B748" fill-opacity="0.6"/>
<path d="M237.699 454.441H249.075V420.36H237.699V454.441Z" fill="#50B748" fill-opacity="0.6"/>
<path d="M203.651 386.279H215.028V374.919H203.651V386.279Z" fill="#50B748" fill-opacity="0.6"/>
<path d="M237.781 386.279H249.157V374.919H237.781V386.279Z" fill="#50B748" fill-opacity="0.6"/>
<path d="M203.651 363.551H215.028V340.831H203.651V363.551Z" fill="#50B748" fill-opacity="0.6"/>
<path d="M203.651 420.36H215.028V397.64H203.651V420.36Z" fill="#50B748" fill-opacity="0.6"/>
<path d="M192.274 409H203.651V386.279H192.274V409Z" fill="#50B748" fill-opacity="0.6"/>
<path d="M192.274 374.919H203.651V352.199H192.274V374.919Z" fill="#50B748" fill-opacity="0.6"/>
<path d="M215.028 409H226.404V386.279H215.028V409Z" fill="#50B748" fill-opacity="0.6"/>
<path d="M215.028 374.919H226.404V352.199H215.028V374.919Z" fill="#50B748" fill-opacity="0.6"/>
<path d="M226.404 397.64H237.781V363.559H226.404V397.64Z" fill="#50B748" fill-opacity="0.6"/>
<path d="M169.514 386.279H180.89V374.919H169.514V386.279Z" fill="#50B748" fill-opacity="0.6"/>
<path d="M180.898 397.64H192.274V363.559H180.898V397.64Z" fill="#50B748" fill-opacity="0.6"/>
<path d="M317.26 386.279H328.637V374.919H317.26V386.279Z" fill="#50B748" fill-opacity="0.6"/>
<path d="M351.39 386.279H362.767V374.919H351.39V386.279Z" fill="#50B748" fill-opacity="0.6"/>
<path d="M317.26 363.551H328.637V340.831H317.26V363.551Z" fill="#50B748" fill-opacity="0.6"/>
<path d="M317.26 420.36H328.637V397.64H317.26V420.36Z" fill="#50B748" fill-opacity="0.6"/>
<path d="M305.884 409H317.26L317.26 386.279H305.884V409Z" fill="#50B748" fill-opacity="0.6"/>
<path d="M305.884 374.919H317.26L317.26 352.199H305.884V374.919Z" fill="#50B748" fill-opacity="0.6"/>
<path d="M328.637 409H340.013V386.279H328.637L328.637 409Z" fill="#50B748" fill-opacity="0.6"/>
<path d="M328.637 374.919H340.013V352.199H328.637L328.637 374.919Z" fill="#50B748" fill-opacity="0.6"/>
<path d="M340.013 397.64H351.39V363.559H340.013V397.64Z" fill="#50B748" fill-opacity="0.6"/>
<path d="M283.13 386.279H294.507V374.919H283.13V386.279Z" fill="#50B748" fill-opacity="0.6"/>
<path d="M294.507 397.64H305.884V363.559H294.507V397.64Z" fill="#50B748" fill-opacity="0.6"/>
<path d="M430.877 386.279H442.253V374.919H430.877V386.279Z" fill="#50B748" fill-opacity="0.6"/>
<path d="M465.007 386.279H476.383V374.919H465.007V386.279Z" fill="#50B748" fill-opacity="0.6"/>
<path d="M430.877 363.551H442.253V340.831H430.877V363.551Z" fill="#50B748" fill-opacity="0.6"/>
<path d="M430.877 420.36H442.253V397.64H430.877V420.36Z" fill="#50B748" fill-opacity="0.6"/>
<path d="M419.493 409H430.869V386.279H419.493V409Z" fill="#50B748" fill-opacity="0.6"/>
<path d="M419.493 374.919H430.869V352.199H419.493V374.919Z" fill="#50B748" fill-opacity="0.6"/>
<path d="M442.253 409H453.63V386.279H442.253V409Z" fill="#50B748" fill-opacity="0.6"/>
<path d="M442.253 374.919H453.63V352.199H442.253V374.919Z" fill="#50B748" fill-opacity="0.6"/>
<path d="M453.63 397.64H465.007V363.559H453.63V397.64Z" fill="#50B748" fill-opacity="0.6"/>
<path d="M396.747 386.279H408.124V374.919H396.747V386.279Z" fill="#50B748" fill-opacity="0.6"/>
<path d="M408.116 397.64H419.493V363.559H408.116V397.64Z" fill="#50B748" fill-opacity="0.6"/>
<path d="M317.26 272.662H328.637V261.301H317.26V272.662Z" fill="#50B748" fill-opacity="0.6"/>
<path d="M351.39 272.662H362.767V261.301H351.39V272.662Z" fill="#50B748" fill-opacity="0.6"/>
<path d="M317.26 249.941H328.637V227.221H317.26V249.941Z" fill="#50B748" fill-opacity="0.6"/>
<path d="M317.26 306.75H328.637V284.029H317.26V306.75Z" fill="#50B748" fill-opacity="0.6"/>
<path d="M305.884 295.39H317.26V272.669H305.884V295.39Z" fill="#50B748" fill-opacity="0.6"/>
<path d="M305.884 261.301H317.26L317.26 238.581H305.884V261.301Z" fill="#50B748" fill-opacity="0.6"/>
<path d="M328.637 295.39H340.013V272.669H328.637V295.39Z" fill="#50B748" fill-opacity="0.6"/>
<path d="M328.637 261.301H340.013V238.581H328.637L328.637 261.301Z" fill="#50B748" fill-opacity="0.6"/>
<path d="M340.013 284.022H351.39V249.941H340.013V284.022Z" fill="#50B748" fill-opacity="0.6"/>
<path d="M283.13 272.662H294.507V261.301H283.13V272.662Z" fill="#50B748" fill-opacity="0.6"/>
<path d="M294.507 284.022H305.884V249.941H294.507V284.022Z" fill="#50B748" fill-opacity="0.6"/>
<path d="M430.877 272.662H442.253V261.301H430.877V272.662Z" fill="#50B748" fill-opacity="0.6"/>
<path d="M465.007 272.662H476.383V261.301H465.007V272.662Z" fill="#50B748" fill-opacity="0.6"/>
<path d="M430.877 249.941H442.253V227.221H430.877V249.941Z" fill="#50B748" fill-opacity="0.6"/>
<path d="M430.877 306.75H442.253V284.029H430.877V306.75Z" fill="#50B748" fill-opacity="0.6"/>
<path d="M419.493 295.39H430.869V272.669H419.493V295.39Z" fill="#50B748" fill-opacity="0.6"/>
<path d="M419.493 261.301H430.869V238.581H419.493V261.301Z" fill="#50B748" fill-opacity="0.6"/>
<path d="M442.253 295.39H453.63V272.669H442.253V295.39Z" fill="#50B748" fill-opacity="0.6"/>
<path d="M442.253 261.301H453.63V238.581H442.253V261.301Z" fill="#50B748" fill-opacity="0.6"/>
<path d="M453.63 284.022H465.007V249.941H453.63V284.022Z" fill="#50B748" fill-opacity="0.6"/>
<path d="M396.747 272.662H408.124V261.301H396.747V272.662Z" fill="#50B748" fill-opacity="0.6"/>
<path d="M408.116 284.022H419.493V249.941H408.116V284.022Z" fill="#50B748" fill-opacity="0.6"/>
<path d="M317.26 159.051H328.637V147.691H317.26V159.051Z" fill="#50B748" fill-opacity="0.6"/>
<path d="M351.39 159.051H362.767V147.691H351.39V159.051Z" fill="#50B748" fill-opacity="0.6"/>
<path d="M317.26 136.331H328.637V113.61H317.26V136.331Z" fill="#50B748" fill-opacity="0.6"/>
<path d="M317.26 193.14H328.637V170.419H317.26V193.14Z" fill="#50B748" fill-opacity="0.6"/>
<path d="M305.884 181.779H317.26V159.059H305.884V181.779Z" fill="#50B748" fill-opacity="0.6"/>
<path d="M305.884 147.691L317.26 147.691L317.26 124.971H305.884V147.691Z" fill="#50B748" fill-opacity="0.6"/>
<path d="M328.637 181.779H340.013V159.059H328.637V181.779Z" fill="#50B748" fill-opacity="0.6"/>
<path d="M328.637 147.691L340.013 147.691V124.971H328.637L328.637 147.691Z" fill="#50B748" fill-opacity="0.6"/>
<path d="M340.013 170.412H351.39V136.331H340.013V170.412Z" fill="#50B748" fill-opacity="0.6"/>
<path d="M283.13 159.051H294.507V147.691H283.13V159.051Z" fill="#50B748" fill-opacity="0.6"/>
<path d="M294.507 170.412H305.884V136.331H294.507V170.412Z" fill="#50B748" fill-opacity="0.6"/>
<path d="M430.877 45.4412H442.253V34.0809H430.877V45.4412Z" fill="#50B748" fill-opacity="0.6"/>
<path d="M465.007 45.4412H476.383V34.0809H465.007V45.4412Z" fill="#50B748" fill-opacity="0.6"/>
<path d="M430.877 22.7205H442.253V0H430.877V22.7205Z" fill="#50B748" fill-opacity="0.6"/>
<path d="M430.877 79.522H442.253V56.8015H430.877V79.522Z" fill="#50B748" fill-opacity="0.6"/>
<path d="M419.493 68.1617H430.869V45.4412H419.493V68.1617Z" fill="#50B748" fill-opacity="0.6"/>
<path d="M419.493 34.0809H430.869V11.3603H419.493V34.0809Z" fill="#50B748" fill-opacity="0.6"/>
<path d="M442.253 68.1617H453.63V45.4412H442.253V68.1617Z" fill="#50B748" fill-opacity="0.6"/>
<path d="M442.253 34.0809H453.63V11.3603H442.253V34.0809Z" fill="#50B748" fill-opacity="0.6"/>
<path d="M453.63 56.8015H465.007V22.7205H453.63V56.8015Z" fill="#50B748" fill-opacity="0.6"/>
<path d="M396.747 45.4412H408.124V34.0809H396.747V45.4412Z" fill="#50B748" fill-opacity="0.6"/>
<path d="M408.116 56.8015H419.493V22.7205H408.116V56.8015Z" fill="#50B748" fill-opacity="0.6"/>
<path d="M260.459 783.919H271.836V772.559H260.459V783.919Z" fill="#50B748" fill-opacity="0.6"/>
<path d="M294.589 783.919H305.966V772.559H294.589V783.919Z" fill="#50B748" fill-opacity="0.6"/>
<path d="M260.459 761.191H271.836V738.471H260.459V761.191Z" fill="#50B748" fill-opacity="0.6"/>
<path d="M260.459 818H271.836V795.279H260.459V818Z" fill="#50B748" fill-opacity="0.6"/>
<path d="M249.075 806.64H260.452V783.919H249.075V806.64Z" fill="#50B748" fill-opacity="0.6"/>
<path d="M249.075 772.551H260.452V749.831H249.075V772.551Z" fill="#50B748" fill-opacity="0.6"/>
<path d="M271.836 806.64H283.213V783.919H271.836V806.64Z" fill="#50B748" fill-opacity="0.6"/>
<path d="M271.836 772.551H283.213V749.831H271.836V772.551Z" fill="#50B748" fill-opacity="0.6"/>
<path d="M283.213 795.279H294.589V761.199H283.213V795.279Z" fill="#50B748" fill-opacity="0.6"/>
<path d="M226.322 783.919H237.699V772.559H226.322V783.919Z" fill="#50B748" fill-opacity="0.6"/>
<path d="M237.699 795.279H249.075V761.199H237.699V795.279Z" fill="#50B748" fill-opacity="0.6"/>
<path d="M146.843 783.919H158.219V772.559H146.843V783.919Z" fill="#50B748" fill-opacity="0.6"/>
<path d="M180.972 783.919H192.349V772.559H180.972V783.919Z" fill="#50B748" fill-opacity="0.6"/>
<path d="M146.843 761.191H158.219V738.471H146.843V761.191Z" fill="#50B748" fill-opacity="0.6"/>
<path d="M146.843 818H158.219V795.279H146.843V818Z" fill="#50B748" fill-opacity="0.6"/>
<path d="M135.466 806.64H146.843L146.843 783.919H135.466V806.64Z" fill="#50B748" fill-opacity="0.6"/>
<path d="M135.466 772.551H146.843V749.831H135.466V772.551Z" fill="#50B748" fill-opacity="0.6"/>
<path d="M158.219 806.64H169.596V783.919H158.219V806.64Z" fill="#50B748" fill-opacity="0.6"/>
<path d="M158.219 772.551H169.596V749.831H158.219V772.551Z" fill="#50B748" fill-opacity="0.6"/>
<path d="M169.596 795.279H180.972V761.199H169.596V795.279Z" fill="#50B748" fill-opacity="0.6"/>
<path d="M112.713 783.919H124.089V772.559H112.713V783.919Z" fill="#50B748" fill-opacity="0.6"/>
<path d="M124.089 795.279H135.466V761.199H124.089V795.279Z" fill="#50B748" fill-opacity="0.6"/>
<path d="M374.069 783.919H385.445V772.559H374.069V783.919Z" fill="#50B748" fill-opacity="0.6"/>
<path d="M408.198 783.919H419.575V772.559H408.198V783.919Z" fill="#50B748" fill-opacity="0.6"/>
<path d="M374.069 761.191H385.445V738.471H374.069V761.191Z" fill="#50B748" fill-opacity="0.6"/>
<path d="M374.069 818H385.445V795.279H374.069V818Z" fill="#50B748" fill-opacity="0.6"/>
<path d="M362.692 806.64H374.069V783.919H362.692V806.64Z" fill="#50B748" fill-opacity="0.6"/>
<path d="M362.692 772.551H374.069V749.831H362.692V772.551Z" fill="#50B748" fill-opacity="0.6"/>
<path d="M385.445 806.64H396.822V783.919H385.445V806.64Z" fill="#50B748" fill-opacity="0.6"/>
<path d="M385.445 772.551H396.822V749.831H385.445V772.551Z" fill="#50B748" fill-opacity="0.6"/>
<path d="M396.822 795.279H408.198V761.199H396.822V795.279Z" fill="#50B748" fill-opacity="0.6"/>
<path d="M339.939 783.919H351.315V772.559H339.939V783.919Z" fill="#50B748" fill-opacity="0.6"/>
<path d="M351.315 795.279H362.692V761.199H351.315V795.279Z" fill="#50B748" fill-opacity="0.6"/>
<path d="M34.1298 556.691H45.5064V545.331H34.1298V556.691Z" fill="#50B748" fill-opacity="0.6"/>
<path d="M68.2597 556.691H79.6362V545.331H68.2597V556.691Z" fill="#50B748" fill-opacity="0.6"/>
<path d="M34.1298 590.772H45.5064V568.051H34.1298V590.772Z" fill="#50B748" fill-opacity="0.6"/>
<path d="M34.1298 533.971H45.5064V511.25H34.1298V533.971Z" fill="#50B748" fill-opacity="0.6"/>
<path d="M22.7532 545.331H34.1298V522.61H22.7532V545.331Z" fill="#50B748" fill-opacity="0.6"/>
<path d="M22.7532 579.412H34.1298V556.691H22.7532V579.412Z" fill="#50B748" fill-opacity="0.6"/>
<path d="M45.5064 545.331H56.883V522.61H45.5064L45.5064 545.331Z" fill="#50B748" fill-opacity="0.6"/>
<path d="M45.5064 579.412H56.883V556.691H45.5064L45.5064 579.412Z" fill="#50B748" fill-opacity="0.6"/>
<path d="M56.883 568.051H68.2596V533.971H56.883V568.051Z" fill="#50B748" fill-opacity="0.6"/>
<path d="M0 556.691H11.3766V545.331H0V556.691Z" fill="#50B748" fill-opacity="0.6"/>
<path d="M11.3766 568.051H22.7532V533.971H11.3766V568.051Z" fill="#50B748" fill-opacity="0.6"/>
<path d="M147.739 556.691H159.116V545.331H147.739V556.691Z" fill="#50B748" fill-opacity="0.6"/>
<path d="M181.876 556.691H193.253V545.331H181.876V556.691Z" fill="#50B748" fill-opacity="0.6"/>
<path d="M147.739 590.772H159.116V568.051H147.739V590.772Z" fill="#50B748" fill-opacity="0.6"/>
<path d="M147.739 533.971H159.116V511.25H147.739V533.971Z" fill="#50B748" fill-opacity="0.6"/>
<path d="M136.362 545.331H147.739V522.61H136.362V545.331Z" fill="#50B748" fill-opacity="0.6"/>
<path d="M136.362 579.412H147.739V556.691H136.362V579.412Z" fill="#50B748" fill-opacity="0.6"/>
<path d="M159.116 545.331H170.492V522.61H159.116V545.331Z" fill="#50B748" fill-opacity="0.6"/>
<path d="M159.116 579.412H170.492V556.691H159.116V579.412Z" fill="#50B748" fill-opacity="0.6"/>
<path d="M170.492 568.051H181.869V533.971H170.492V568.051Z" fill="#50B748" fill-opacity="0.6"/>
<path d="M113.609 556.691H124.986V545.331H113.609V556.691Z" fill="#50B748" fill-opacity="0.6"/>
<path d="M124.986 568.051H136.362V533.971H124.986V568.051Z" fill="#50B748" fill-opacity="0.6"/>
</svg>
