<svg width="172" height="393" viewBox="0 0 172 393" fill="none" xmlns="http://www.w3.org/2000/svg">
<path d="M961.843 58.4586C961.998 58.7145 962.074 59.4794 962.074 60.7534C962.074 72.9408 960.095 85.2791 956.14 97.7682C951.67 111.736 945.785 123.385 938.489 132.717C929.086 144.749 918.631 150.766 907.122 150.766C898.026 150.766 891.194 148.266 886.621 143.27C882.612 138.936 880.608 133.049 880.608 125.604C880.608 117.395 883.255 107.327 888.548 95.3954C893.377 84.4873 896.718 79.0305 898.569 79.0305C898.979 79.0305 899.185 79.3133 899.185 79.8708C899.185 80.3826 897.231 84.9317 893.328 93.5208C889.422 102.113 887.47 108.956 887.47 114.055C887.47 119.663 889.501 124.379 893.559 128.203C897.823 132.181 903.371 134.169 910.206 134.169C918.324 134.169 926.367 131.058 934.331 124.839C941.779 119.027 946.635 112.576 948.896 105.49C950.128 101.768 951.002 97.0006 951.515 91.1884C951.824 87.0567 952.131 82.9036 952.441 78.7235C952.644 76.9916 954.072 73.1779 956.718 67.2902C959.365 61.4025 961.072 58.4586 961.843 58.4586ZM930.012 91.956C930.064 93.7417 928.934 95.9072 926.619 98.4578C924.461 100.804 922.922 102 921.997 102.051C919.478 99.9095 916.652 97.7952 913.52 95.7025C912.798 95.2957 912.746 94.7355 913.365 94.0218C917.784 89.128 920.479 85.7639 921.456 83.9271C922.279 83.9271 923.818 84.7431 926.079 86.3726C928.647 88.3091 929.958 90.1703 930.009 91.956" fill="#F16F26"/>
<path d="M996.595 94.7705C996.491 94.7705 995.604 96.0202 993.937 98.517C992.265 101.016 989.708 102.266 986.269 102.266C978.612 102.266 974.63 97.8814 974.323 89.1118C974.272 87.0729 976.286 66.4229 978.061 51.7414C979.834 37.0572 980.667 28.2122 980.566 25.2037C980.463 23.2133 980.257 22.2194 979.95 22.2194C979.435 22.2194 978.487 24.3364 977.098 28.5677C975.762 32.5457 975.018 35.1718 974.864 36.4431C973.631 46.6913 970.909 70.0454 969.009 81.9232C967.98 88.1448 967.467 93.6259 967.467 98.3662C967.467 112.183 971.68 119.092 980.108 119.092C983.446 119.092 986.196 117.896 988.354 115.496C989.279 114.529 990.742 112.207 992.746 108.536C995.984 102.724 997.602 98.6705 997.602 96.3758C997.602 95.3065 997.268 94.7705 996.6 94.7705" fill="#F16F26"/>
<path d="M997.599 45.9776C995.335 44.3454 993.796 43.532 992.974 43.532C991.999 45.3661 989.298 48.7302 984.882 53.6267C984.266 54.3405 984.318 54.9034 985.037 55.3074C988.169 57.4001 990.998 59.5144 993.514 61.6556C994.439 61.6045 995.981 60.4086 998.139 58.0627C1000.45 55.5148 1001.58 53.3466 1001.53 51.5609C1001.48 49.7752 1000.17 47.9141 997.602 45.9776" fill="#F16F26"/>
<path d="M912.309 -196.878C912.447 -196.651 912.515 -195.97 912.515 -194.839C912.515 -184.003 910.756 -173.039 907.239 -161.934C903.265 -149.517 898.034 -139.159 891.55 -130.866C883.192 -120.171 873.896 -114.822 863.665 -114.822C855.582 -114.822 849.507 -117.044 845.441 -121.485C841.88 -125.336 840.1 -130.572 840.1 -137.19C840.1 -144.486 842.45 -153.436 847.157 -164.043C851.448 -173.742 854.42 -178.592 856.065 -178.592C856.429 -178.592 856.614 -178.342 856.614 -177.844C856.614 -177.391 854.879 -173.346 851.407 -165.707C847.936 -158.069 846.201 -151.987 846.201 -147.454C846.201 -142.469 848.004 -138.275 851.614 -134.879C855.406 -131.345 860.338 -129.576 866.412 -129.576C873.63 -129.576 880.777 -132.339 887.856 -137.869C894.479 -143.035 898.794 -148.769 900.806 -155.068C901.899 -158.376 902.676 -162.615 903.135 -167.781C903.409 -171.452 903.683 -175.145 903.957 -178.862C904.139 -180.4 905.406 -183.79 907.76 -189.026C910.113 -194.26 911.63 -196.878 912.317 -196.878M884.015 -167.102C884.058 -165.516 883.057 -163.59 880.999 -161.325C879.08 -159.238 877.709 -158.174 876.89 -158.131C874.65 -160.035 872.14 -161.915 869.352 -163.773C868.711 -164.134 868.668 -164.635 869.214 -165.271C873.141 -169.621 875.541 -172.613 876.406 -174.245C877.137 -174.245 878.507 -173.521 880.519 -172.072C882.801 -170.348 883.966 -168.694 884.012 -167.108" fill="#F16F26"/>
<path d="M943.206 -164.6C943.114 -164.6 942.327 -163.491 940.842 -161.269C939.357 -159.047 937.086 -157.937 934.026 -157.937C927.219 -157.937 923.682 -161.837 923.408 -169.631C923.362 -171.444 925.153 -189.802 926.73 -202.854C928.305 -215.906 929.048 -223.771 928.956 -226.445C928.864 -228.212 928.682 -229.096 928.408 -229.096C927.949 -229.096 927.105 -227.216 925.87 -223.453C924.681 -219.919 924.021 -217.581 923.886 -216.45C922.789 -207.341 920.368 -186.578 918.68 -176.02C917.765 -170.491 917.309 -165.618 917.309 -161.403C917.309 -149.122 921.055 -142.981 928.546 -142.981C931.516 -142.981 933.959 -144.045 935.878 -146.175C936.7 -147.034 938 -149.097 939.781 -152.362C942.661 -157.528 944.097 -161.131 944.097 -163.17C944.097 -164.124 943.798 -164.598 943.206 -164.598" fill="#F16F26"/>
<path d="M944.097 -207.974C942.085 -209.426 940.717 -210.148 939.987 -210.148C939.118 -208.516 936.722 -205.526 932.794 -201.173C932.246 -200.538 932.292 -200.04 932.93 -199.679C935.715 -197.82 938.228 -195.938 940.468 -194.036C941.29 -194.079 942.658 -195.146 944.577 -197.23C946.632 -199.495 947.636 -201.421 947.593 -203.008C947.549 -204.594 946.382 -206.248 944.099 -207.972" fill="#F16F26"/>
<path d="M766.528 175.585C766.701 175.876 766.788 176.74 766.788 178.181C766.788 191.982 764.549 205.953 760.068 220.095C755.005 235.916 748.342 249.108 740.082 259.672C729.436 273.297 717.594 280.109 704.559 280.109C694.261 280.109 686.523 277.281 681.344 271.622C676.805 266.715 674.536 260.046 674.536 251.619C674.536 242.324 677.533 230.923 683.526 217.413C688.995 205.058 692.776 198.88 694.869 198.88C695.333 198.88 695.57 199.2 695.57 199.833C695.57 200.41 693.357 205.562 688.936 215.29C684.514 225.019 682.305 232.77 682.305 238.545C682.305 244.896 684.601 250.234 689.199 254.565C694.028 259.071 700.311 261.32 708.053 261.32C717.246 261.32 726.35 257.797 735.37 250.757C743.806 244.174 749.302 236.872 751.865 228.846C753.263 224.631 754.248 219.234 754.832 212.651C755.179 207.973 755.532 203.27 755.879 198.532C756.11 196.572 757.728 192.254 760.724 185.585C763.721 178.917 765.656 175.585 766.528 175.585ZM730.481 213.516C730.538 215.538 729.26 217.989 726.641 220.876C724.198 223.532 722.452 224.89 721.405 224.946C718.555 222.519 715.354 220.125 711.807 217.758C710.99 217.297 710.933 216.661 711.633 215.853C716.635 210.31 719.692 206.499 720.797 204.423C721.728 204.423 723.473 205.349 726.032 207.194C728.94 209.389 730.424 211.495 730.484 213.516" fill="#F16F26"/>
<path d="M805.883 216.702C805.766 216.702 804.762 218.118 802.873 220.944C800.981 223.772 798.085 225.186 794.19 225.186C785.52 225.186 781.012 220.222 780.661 210.292C780.602 207.981 782.884 184.597 784.893 167.971C786.902 151.342 787.846 141.328 787.729 137.918C787.613 135.667 787.382 134.543 787.032 134.543C786.451 134.543 785.373 136.941 783.802 141.729C782.287 146.235 781.446 149.209 781.272 150.65C779.874 162.255 776.793 188.699 774.641 202.15C773.477 209.195 772.896 215.401 772.896 220.769C772.896 236.414 777.667 244.239 787.211 244.239C790.992 244.239 794.105 242.884 796.548 240.169C797.596 239.073 799.255 236.444 801.524 232.288C805.191 225.708 807.023 221.116 807.023 218.52C807.023 217.308 806.643 216.702 805.888 216.702" fill="#F16F26"/>
<path d="M807.017 161.45C804.458 159.602 802.71 158.679 801.781 158.679C800.677 160.758 797.62 164.566 792.618 170.109C791.918 170.917 791.977 171.553 792.792 172.013C796.339 174.381 799.539 176.778 802.392 179.202C803.437 179.145 805.185 177.788 807.628 175.132C810.245 172.248 811.526 169.791 811.469 167.771C811.409 165.751 809.927 163.645 807.017 161.45Z" fill="#F16F26"/>
<path d="M932.561 261.167C932.734 261.457 932.821 262.322 932.821 263.763C932.821 277.564 930.582 291.534 926.101 305.677C921.038 321.498 914.375 334.69 906.115 345.253C895.469 358.879 883.627 365.69 870.592 365.69C860.294 365.69 852.556 362.862 847.377 357.204C842.838 352.296 840.569 345.628 840.569 337.2C840.569 327.905 843.566 316.504 849.556 302.994C855.026 290.64 858.81 284.461 860.902 284.461C861.366 284.461 861.603 284.782 861.603 285.415C861.603 285.991 859.39 291.144 854.969 300.872C850.547 310.601 848.338 318.352 848.338 324.127C848.338 330.478 850.634 335.816 855.232 340.147C860.061 344.653 866.345 346.902 874.086 346.902C883.277 346.902 892.383 343.379 901.403 336.338C909.839 329.756 915.336 322.454 917.898 314.428C919.293 310.213 920.281 304.815 920.865 298.233C921.212 293.554 921.565 288.852 921.912 284.114C922.143 282.153 923.761 277.836 926.758 271.167C929.751 264.498 931.689 261.167 932.561 261.167ZM896.514 299.097C896.571 301.12 895.293 303.571 892.674 306.458C890.231 309.114 888.485 310.471 887.438 310.528C884.588 308.101 881.387 305.707 877.84 303.339C877.023 302.879 876.966 302.243 877.663 301.435C882.669 295.892 885.722 292.081 886.827 290.004C887.758 290.004 889.503 290.931 892.063 292.776C894.97 294.971 896.455 297.077 896.514 299.097Z" fill="#F16F26"/>
<path d="M971.916 302.283C971.799 302.283 970.795 303.7 968.906 306.525C967.014 309.353 964.118 310.767 960.223 310.767C951.553 310.767 947.044 305.804 946.694 295.873C946.635 293.562 948.917 270.178 950.926 253.552C952.935 236.923 953.879 226.91 953.762 223.5C953.646 221.248 953.415 220.125 953.065 220.125C952.484 220.125 951.406 222.522 949.835 227.311C948.32 231.817 947.479 234.79 947.305 236.231C945.907 247.837 942.826 274.28 940.674 287.731C939.509 294.777 938.929 300.982 938.929 306.35C938.929 321.996 943.7 329.82 953.244 329.82C957.025 329.82 960.138 328.466 962.581 325.751C963.629 324.654 965.287 322.026 967.557 317.87C971.224 311.29 973.056 306.698 973.056 304.101C973.056 302.889 972.676 302.283 971.921 302.283" fill="#F16F26"/>
<path d="M973.051 247.032C970.491 245.184 968.743 244.26 967.815 244.26C966.71 246.34 963.654 250.148 958.651 255.691C957.951 256.499 958.01 257.135 958.825 257.595C962.372 259.963 965.573 262.36 968.425 264.784C969.47 264.727 971.218 263.37 973.661 260.714C976.278 257.829 977.559 255.373 977.502 253.353C977.442 251.333 975.96 249.227 973.051 247.032Z" fill="#F16F26"/>
<path d="M975.781 166.484C976.063 166.484 976.207 166.988 976.207 168.006C976.207 171.16 975.154 174.793 973.053 178.906C970.157 184.597 965.958 189.273 960.45 192.933C954.49 196.935 945.237 200.455 932.686 203.496C917.07 207.27 900.097 209.158 881.757 209.158C861.149 209.158 847.776 207.749 841.644 204.932C836.419 202.51 833.811 197.355 833.811 189.466C833.811 178.424 834.576 172.905 836.11 172.905C836.563 172.905 836.989 174.06 837.388 176.369C837.841 179.129 838.55 180.961 839.516 181.86C845.987 188.281 861.63 191.495 886.441 191.495C921.755 191.495 947.218 187.325 962.834 178.989C966.579 177.018 969.704 174.287 972.204 170.793C974.247 167.92 975.439 166.484 975.781 166.484ZM900.665 223.68C900.722 225.652 899.473 228.046 896.919 230.863C894.536 233.454 892.831 234.78 891.81 234.836C889.026 232.471 885.904 230.134 882.441 227.823C881.645 227.373 881.588 226.753 882.27 225.964C887.155 220.556 890.136 216.839 891.213 214.811C892.12 214.811 893.824 215.711 896.322 217.515C899.161 219.656 900.608 221.711 900.665 223.683" fill="#F16F26"/>
<path d="M1001.19 202.51C1003.06 202.51 1004 203.809 1004 206.397C1004 209.327 1003 212.454 1001.02 215.775C998.856 219.325 996.643 221.1 994.374 221.1C985.061 221.1 980.406 213.467 980.406 198.198C980.406 192.96 980.974 186.902 982.108 180.029C984.209 166.904 985.941 154.676 987.303 143.353C987.474 141.945 988.297 139.044 989.776 134.651C991.31 129.975 992.357 127.635 992.927 127.635C993.269 127.635 993.492 128.734 993.609 130.932C993.72 134.258 992.8 144.032 990.84 160.257C988.88 176.482 987.93 185.723 987.987 187.974C988.329 197.665 992.727 202.51 1001.19 202.51" fill="#F16F26"/>
<path d="M1028.35 196.256C1029.26 196.256 1029.72 196.906 1029.72 198.201C1029.72 199.669 1029.21 201.218 1028.19 202.85C1027.16 204.654 1026.08 205.557 1024.95 205.557C1024.15 205.557 1022.83 204.924 1020.99 203.652C1019.14 202.384 1017.77 201.751 1016.86 201.751C1014.81 201.751 1011.63 204.978 1007.32 211.428C1003 217.879 998.69 221.103 994.371 221.103C992.499 221.103 991.562 219.807 991.562 217.216C991.562 214.286 992.558 211.162 994.543 207.838C996.703 204.288 998.915 202.513 1001.19 202.513C1004.42 202.513 1008.03 201.021 1012 198.034C1015.97 195.047 1018.56 193.555 1019.75 193.555C1020.83 193.555 1022.3 194.007 1024.18 194.907C1026.05 195.809 1027.44 196.259 1028.35 196.259M1030.56 226.374C1030.61 228.345 1029.36 230.74 1026.81 233.557C1024.43 236.148 1022.72 237.473 1021.7 237.53C1018.92 235.165 1015.8 232.827 1012.33 230.516C1011.54 230.066 1011.48 229.447 1012.16 228.658C1017.05 223.249 1020.03 219.533 1021.1 217.504C1022.01 217.504 1023.72 218.404 1026.21 220.209C1029.05 222.35 1030.5 224.405 1030.56 226.376" fill="#F16F26"/>
<path d="M1135.83 64.0042C1135.95 64.0608 1136 64.1739 1136 64.3436C1136 65.4694 1134.41 68.1466 1131.23 72.3725C1127.77 77.0509 1124.02 81.274 1119.99 85.0501C1116.81 87.924 1107.47 94.4284 1091.97 104.569C1083.91 109.754 1075.85 114.965 1067.79 120.204C1064.26 122.854 1060.75 125.529 1057.22 128.233C1051.66 132.795 1048.34 136.348 1047.26 138.882C1046.07 148.627 1044.36 161.501 1042.15 177.503C1041.3 182.687 1039.23 188.378 1035.94 194.573C1032.07 201.896 1028.41 205.559 1024.95 205.559C1023.98 205.559 1023.5 204.91 1023.5 203.615C1023.5 202.149 1024.03 200.558 1025.08 198.839C1026.13 197.121 1027.22 196.262 1028.36 196.262C1032.67 196.262 1035.08 192.289 1035.6 184.346C1036.9 163.333 1038.55 150.712 1040.54 146.488C1047.69 131.222 1055.64 120.094 1064.38 113.11C1072.39 106.799 1083.71 99.2199 1098.36 90.3776C1113.58 81.196 1123.8 74.2956 1129.02 69.6738C1133.39 65.7872 1135.66 63.8992 1135.83 64.0123" fill="#F16F26"/>
<path d="M686.205 324.652C686.487 324.652 686.631 325.158 686.631 326.173C686.631 329.327 685.578 332.961 683.477 337.074C680.581 342.765 676.382 347.44 670.875 351.103C664.914 355.103 655.661 358.623 643.11 361.667C627.494 365.44 610.521 367.328 592.181 367.328C571.573 367.328 558.2 365.919 552.068 363.102C546.843 360.681 544.235 355.526 544.235 347.637C544.235 336.594 545 331.075 546.534 331.075C546.987 331.075 547.41 332.231 547.812 334.539C548.265 337.3 548.974 339.131 549.94 340.031C556.411 346.452 572.054 349.665 596.866 349.665C632.179 349.665 657.642 345.496 673.258 337.16C677.004 335.188 680.128 332.457 682.628 328.964C684.672 326.09 685.863 324.654 686.205 324.654M611.089 381.848C611.146 383.82 609.897 386.214 607.343 389.031C604.96 391.622 603.255 392.947 602.234 393.004C599.45 390.639 596.328 388.301 592.865 385.99C592.069 385.541 592.012 384.921 592.694 384.132C597.579 378.724 600.56 375.007 601.637 372.979C602.544 372.979 604.249 373.878 606.746 375.683C609.585 377.824 611.032 379.879 611.089 381.851" fill="#F16F26"/>
<path d="M711.611 360.678C713.484 360.678 714.421 361.976 714.421 364.565C714.421 367.495 713.427 370.622 711.44 373.943C709.28 377.493 707.068 379.268 704.798 379.268C695.485 379.268 690.83 371.635 690.83 356.366C690.83 351.128 691.398 345.07 692.532 338.197C694.633 325.072 696.368 312.844 697.727 301.521C697.901 300.112 698.721 297.212 700.2 292.816C701.734 288.141 702.782 285.8 703.352 285.8C703.694 285.8 703.916 286.899 704.033 289.097C704.144 292.423 703.224 302.197 701.264 318.422C699.307 334.647 698.354 343.888 698.411 346.139C698.753 355.83 703.151 360.675 711.614 360.675" fill="#F16F26"/>
<path d="M846.256 222.172C846.37 222.228 846.427 222.342 846.427 222.509C846.427 223.634 844.836 226.312 841.658 230.538C838.192 235.216 834.446 239.439 830.418 243.215C827.237 246.089 817.896 252.594 802.398 262.734C794.333 267.919 786.269 273.13 778.21 278.369C774.687 281.019 771.169 283.694 767.649 286.398C762.084 290.96 758.762 294.513 757.684 297.047C756.493 306.792 754.788 319.666 752.576 335.668C751.724 340.852 749.65 346.543 746.36 352.738C742.498 360.061 738.836 363.724 735.373 363.724C734.406 363.724 733.926 363.075 733.926 361.78C733.926 360.315 734.45 358.723 735.5 357.004C736.553 355.286 737.645 354.427 738.779 354.427C743.095 354.427 745.508 350.454 746.021 342.511C747.324 321.498 748.971 308.877 750.961 304.654C758.113 289.388 766.064 278.259 774.806 271.275C782.811 264.964 794.138 257.385 808.787 248.543C824.001 239.361 834.22 232.461 839.446 227.839C843.818 223.952 846.088 222.064 846.259 222.177" fill="#F16F26"/>
<path d="M337.579 147.461C337.753 147.752 337.84 148.616 337.84 150.057C337.84 163.858 335.6 177.828 331.119 191.971C326.057 207.792 319.393 220.984 311.133 231.548C300.488 245.173 288.645 251.985 275.611 251.985C265.312 251.985 257.574 249.157 252.395 243.498C247.857 238.591 245.587 231.922 245.587 223.494C245.587 214.2 248.584 202.799 254.575 189.289C260.044 176.934 263.828 170.756 265.921 170.756C266.385 170.756 266.621 171.076 266.621 171.709C266.621 172.285 264.409 177.438 259.987 187.166C255.565 196.895 253.356 204.646 253.356 210.421C253.356 216.772 255.652 222.11 260.25 226.441C265.079 230.947 271.363 233.196 279.104 233.196C288.295 233.196 297.401 229.673 306.421 222.633C314.857 216.05 320.354 208.748 322.916 200.722C324.314 196.507 325.299 191.109 325.883 184.527C326.233 179.848 326.583 175.146 326.931 170.408C327.161 168.447 328.779 164.13 331.776 157.461C334.77 150.792 336.708 147.461 337.579 147.461ZM301.533 185.391C301.59 187.414 300.311 189.865 297.692 192.752C295.249 195.408 293.504 196.765 292.456 196.822C289.606 194.395 286.406 192.001 282.858 189.633C282.041 189.173 281.984 188.537 282.682 187.729C287.687 182.186 290.74 178.375 291.845 176.299C292.776 176.299 294.521 177.225 297.081 179.07C299.988 181.265 301.473 183.371 301.533 185.391Z" fill="#F16F26"/>
<path d="M376.934 188.578C376.817 188.578 375.813 189.994 373.924 192.82C372.032 195.648 369.136 197.062 365.241 197.062C356.571 197.062 352.063 192.098 351.712 182.167C351.653 179.857 353.935 156.473 355.944 139.847C357.953 123.218 358.897 113.204 358.781 109.794C358.664 107.542 358.433 106.419 358.083 106.419C357.502 106.419 356.424 108.816 354.853 113.605C353.338 118.111 352.497 121.085 352.323 122.526C350.925 134.131 347.844 160.575 345.692 174.028C344.528 181.071 343.947 187.277 343.947 192.647C343.947 208.293 348.718 216.117 358.262 216.117C362.043 216.117 365.156 214.763 367.599 212.048C368.647 210.951 370.306 208.323 372.575 204.167C376.242 197.587 378.074 192.995 378.074 190.398C378.074 189.186 377.694 188.58 376.939 188.58" fill="#F16F26"/>
<path d="M378.069 133.329C375.509 131.481 373.761 130.557 372.833 130.557C371.728 132.637 368.672 136.445 363.669 141.988C362.969 142.796 363.029 143.431 363.843 143.892C367.39 146.26 370.591 148.657 373.443 151.081C374.488 151.024 376.236 149.667 378.679 147.011C381.296 144.126 382.577 141.67 382.52 139.65C382.46 137.63 380.978 135.524 378.069 133.329Z" fill="#F16F26"/>
<path d="M322.009 262.707C322.292 262.707 322.436 263.213 322.436 264.229C322.436 267.383 321.382 271.016 319.282 275.129C316.385 280.82 312.186 285.496 306.679 289.159C300.718 293.158 291.465 296.678 278.914 299.722C263.298 303.495 246.326 305.383 227.985 305.383C207.378 305.383 194.004 303.975 187.873 301.158C182.647 298.736 180.039 293.581 180.039 285.692C180.039 274.649 180.804 269.131 182.338 269.131C182.791 269.131 183.217 270.286 183.617 272.594C184.07 275.355 184.778 277.187 185.745 278.086C192.215 284.507 207.858 287.72 232.67 287.72C267.983 287.72 293.447 283.551 309.062 275.215C312.808 273.243 315.932 270.512 318.432 267.019C320.476 264.145 321.667 262.71 322.009 262.71M246.893 319.901C246.95 321.872 245.701 324.267 243.147 327.084C240.764 329.675 239.059 331 238.039 331.057C235.254 328.692 232.132 326.354 228.669 324.043C227.874 323.593 227.817 322.974 228.498 322.185C233.384 316.776 236.364 313.059 237.442 311.031C238.348 311.031 240.053 311.931 242.55 313.736C245.389 315.877 246.836 317.932 246.893 319.903" fill="#F16F26"/>
<path d="M347.416 298.734C349.289 298.734 350.225 300.032 350.225 302.62C350.225 305.55 349.232 308.677 347.245 311.998C345.084 315.548 342.872 317.323 340.603 317.323C331.29 317.323 326.635 309.69 326.635 294.421C326.635 289.183 327.202 283.125 328.337 276.252C330.438 263.127 332.169 250.899 333.532 239.576C333.703 238.168 334.525 235.267 336.005 230.872C337.538 226.196 338.586 223.855 339.156 223.855C339.495 223.855 339.721 224.954 339.837 227.152C339.949 230.478 339.028 240.252 337.069 256.477C335.112 272.702 334.159 281.943 334.216 284.195C334.558 293.885 338.955 298.731 347.418 298.731" fill="#F16F26"/>
<path d="M374.581 292.48C375.49 292.48 375.946 293.129 375.946 294.424C375.946 295.892 375.433 297.441 374.412 299.073C373.389 300.878 372.309 301.78 371.174 301.78C370.379 301.78 369.06 301.147 367.214 299.876C365.368 298.607 363.992 297.974 363.083 297.974C361.039 297.974 357.86 301.201 353.545 307.651C349.229 314.102 344.916 317.326 340.597 317.326C338.724 317.326 337.788 316.03 337.788 313.439C337.788 310.509 338.784 307.385 340.768 304.061C342.929 300.511 345.141 298.736 347.41 298.736C350.648 298.736 354.253 297.244 358.227 294.257C362.201 291.27 364.785 289.778 365.976 289.778C367.054 289.778 368.53 290.231 370.403 291.13C372.276 292.032 373.669 292.482 374.575 292.482M376.785 322.597C376.842 324.568 375.593 326.963 373.039 329.78C370.656 332.371 368.951 333.696 367.931 333.753C365.146 331.388 362.024 329.05 358.561 326.739C357.765 326.289 357.708 325.67 358.39 324.881C363.276 319.472 366.256 315.756 367.333 313.727C368.24 313.727 369.945 314.627 372.442 316.432C375.281 318.573 376.728 320.628 376.785 322.599" fill="#F16F26"/>
<path d="M482.06 160.227C482.174 160.284 482.231 160.397 482.231 160.567C482.231 161.692 480.641 164.37 477.462 168.596C473.996 173.274 470.25 177.497 466.222 181.273C463.041 184.147 453.701 190.652 438.202 200.792C430.138 205.977 422.073 211.188 414.015 216.427C410.491 219.077 406.974 221.752 403.453 224.456C397.889 229.018 394.569 232.571 393.489 235.105C392.297 244.85 390.593 257.724 388.38 273.726C387.528 278.91 385.454 284.601 382.165 290.796C378.302 298.119 374.64 301.782 371.177 301.782C370.211 301.782 369.73 301.133 369.73 299.838C369.73 298.373 370.254 296.781 371.305 295.062C372.358 293.344 373.449 292.485 374.583 292.485C378.899 292.485 381.312 288.512 381.825 280.569C383.128 259.556 384.776 246.935 386.765 242.712C393.918 227.446 401.868 216.317 410.611 209.333C418.615 203.022 429.942 195.443 444.591 186.601C459.805 177.419 470.025 170.519 475.25 165.897C479.623 162.01 481.892 160.122 482.063 160.235" fill="#F16F26"/>
<path d="M555.912 259.963C556.194 259.963 556.338 260.469 556.338 261.484C556.338 264.638 555.285 268.271 553.184 272.384C550.288 278.075 546.089 282.751 540.581 286.414C534.621 290.414 525.367 293.934 512.816 296.977C497.201 300.751 480.228 302.639 461.887 302.639C441.28 302.639 427.907 301.23 421.775 298.413C416.55 295.992 413.941 290.836 413.941 282.948C413.941 271.905 414.707 266.386 416.24 266.386C416.694 266.386 417.12 267.542 417.519 269.85C417.972 272.61 418.681 274.442 419.647 275.342C426.118 281.763 441.76 284.976 466.572 284.976C501.886 284.976 527.349 280.806 542.964 272.47C546.71 270.499 549.834 267.768 552.334 264.275C554.378 261.401 555.57 259.965 555.912 259.965M480.795 317.159C480.852 319.13 479.604 321.525 477.05 324.342C474.666 326.933 472.962 328.258 471.941 328.315C469.156 325.95 466.035 323.612 462.571 321.301C461.776 320.851 461.719 320.232 462.4 319.443C467.286 314.034 470.266 310.318 471.344 308.289C472.251 308.289 473.955 309.189 476.452 310.994C479.292 313.135 480.738 315.19 480.795 317.161" fill="#F16F26"/>
<path d="M581.318 295.989C583.191 295.989 584.127 297.287 584.127 299.875C584.127 302.806 583.134 305.933 581.147 309.254C578.986 312.804 576.774 314.578 574.505 314.578C565.192 314.578 560.537 306.946 560.537 291.677C560.537 286.438 561.104 280.381 562.239 273.507C564.34 260.383 566.071 248.155 567.434 236.832C567.605 235.423 568.427 232.523 569.907 228.127C571.44 223.451 572.488 221.111 573.058 221.111C573.4 221.111 573.623 222.21 573.739 224.407C573.851 227.734 572.931 237.508 570.971 253.733C569.011 269.958 568.061 279.199 568.118 281.45C568.46 291.141 572.857 295.986 581.32 295.986" fill="#F16F26"/>
<path d="M608.486 289.735C609.395 289.735 609.851 290.384 609.851 291.68C609.851 293.147 609.338 294.696 608.317 296.328C607.294 298.133 606.214 299.035 605.079 299.035C604.284 299.035 602.965 298.402 601.119 297.131C599.273 295.862 597.897 295.229 596.988 295.229C594.944 295.229 591.765 298.456 587.45 304.907C583.134 311.357 578.821 314.581 574.502 314.581C572.629 314.581 571.693 313.286 571.693 310.695C571.693 307.764 572.689 304.64 574.673 301.316C576.834 297.767 579.046 295.992 581.318 295.992C584.553 295.992 588.158 294.5 592.132 291.513C596.106 288.526 598.69 287.034 599.881 287.034C600.959 287.034 602.435 287.486 604.308 288.386C606.181 289.288 607.574 289.738 608.48 289.738M610.687 319.852C610.744 321.824 609.495 324.218 606.941 327.035C604.558 329.626 602.853 330.951 601.833 331.008C599.048 328.643 595.926 326.305 592.463 323.995C591.668 323.545 591.611 322.925 592.292 322.136C597.178 316.728 600.158 313.011 601.236 310.983C602.142 310.983 603.847 311.883 606.344 313.687C609.183 315.828 610.63 317.883 610.687 319.855" fill="#F16F26"/>
<path d="M715.962 157.483C716.076 157.539 716.133 157.652 716.133 157.822C716.133 158.948 714.543 161.625 711.364 165.851C707.898 170.529 704.152 174.753 700.124 178.529C696.943 181.403 687.603 187.907 672.104 198.048C664.04 203.232 655.976 208.444 647.917 213.682C644.394 216.333 640.876 219.007 637.355 221.711C631.791 226.274 628.471 229.827 627.391 232.361C626.199 242.106 624.495 254.98 622.283 270.981C621.43 276.166 619.357 281.857 616.067 288.052C612.204 295.375 608.543 299.038 605.079 299.038C604.113 299.038 603.632 298.389 603.632 297.093C603.632 295.628 604.156 294.036 605.207 292.318C606.26 290.6 607.351 289.74 608.486 289.74C612.801 289.74 615.214 285.768 615.727 277.825C617.03 256.811 618.678 244.19 620.668 239.967C627.82 224.701 635.77 213.572 644.513 206.588C652.518 200.278 663.844 192.698 678.494 183.856C693.708 174.674 703.927 167.771 709.152 163.152C713.525 159.266 715.794 157.378 715.965 157.491" fill="#F16F26"/>
<path d="M590.395 135.279C590.568 135.57 590.655 136.434 590.655 137.875C590.655 151.676 588.416 165.646 583.935 179.789C578.872 195.61 572.209 208.802 563.949 219.365C553.303 232.991 541.461 239.803 528.426 239.803C518.128 239.803 510.39 236.975 505.211 231.316C500.672 226.409 498.403 219.74 498.403 211.312C498.403 202.018 501.4 190.617 507.393 177.107C512.862 164.752 516.643 158.574 518.736 158.574C519.2 158.574 519.437 158.894 519.437 159.527C519.437 160.103 517.224 165.256 512.803 174.984C508.381 184.713 506.172 192.464 506.172 198.239C506.172 204.59 508.468 209.928 513.066 214.259C517.895 218.765 524.178 221.014 531.92 221.014C541.113 221.014 550.217 217.491 559.237 210.45C567.673 203.868 573.169 196.566 575.732 188.54C577.13 184.325 578.115 178.927 578.699 172.345C579.046 167.666 579.399 162.964 579.746 158.226C579.977 156.265 581.595 151.948 584.591 145.279C587.588 138.61 589.523 135.279 590.395 135.279ZM554.351 173.209C554.408 175.232 553.13 177.683 550.51 180.57C548.067 183.226 546.322 184.583 545.274 184.64C542.424 182.213 539.224 179.819 535.676 177.451C534.859 176.991 534.802 176.355 535.503 175.547C540.505 170.004 543.562 166.193 544.666 164.117C545.597 164.117 547.343 165.043 549.902 166.888C552.809 169.083 554.294 171.189 554.354 173.209" fill="#F16F26"/>
<path d="M646.318 140.674C646.201 140.674 645.197 142.09 643.308 144.916C641.416 147.744 638.52 149.158 634.625 149.158C625.955 149.158 621.447 144.194 621.096 134.263C621.037 131.952 623.319 108.569 625.328 91.9425C627.337 75.3137 628.281 65.2997 628.165 61.89C628.048 59.6383 627.817 58.5152 627.467 58.5152C626.886 58.5152 625.808 60.9123 624.237 65.7011C622.722 70.2071 621.881 73.1805 621.707 74.6215C620.309 86.2272 617.229 112.671 615.076 126.124C613.912 133.167 613.331 139.373 613.331 144.743C613.331 160.389 618.103 168.213 627.646 168.213C631.427 168.213 634.541 166.858 636.983 164.143C638.031 163.047 639.69 160.419 641.959 156.263C645.626 149.683 647.458 145.091 647.458 142.494C647.458 141.282 647.078 140.676 646.323 140.676" fill="#F16F26"/>
<path d="M647.453 85.4218C644.893 83.5742 643.145 82.6504 642.217 82.6504C641.112 84.7297 638.056 88.5381 633.053 94.081C632.353 94.889 632.412 95.5246 633.227 95.9852C636.774 98.3527 639.975 100.75 642.827 103.174C643.872 103.117 645.62 101.76 648.063 99.1041C650.68 96.2195 651.961 93.7632 651.904 91.7432C651.844 89.7231 650.362 87.6169 647.453 85.4218Z" fill="#F16F26"/>
<path d="M761.544 -13.0259C761.699 -12.7701 761.775 -12.0052 761.775 -10.7312C761.775 1.45627 759.796 13.7946 755.841 26.2837C751.371 40.2515 745.486 51.9003 738.19 61.2328C728.788 73.264 718.332 79.281 706.823 79.281C697.728 79.281 690.896 76.7815 686.322 71.7853C682.313 67.4517 680.31 61.5641 680.31 54.1196C680.31 45.9102 682.956 35.8424 688.249 23.9108C693.078 13.0027 696.419 7.54596 698.27 7.54596C698.68 7.54596 698.887 7.82877 698.887 8.38629C698.887 8.89804 696.932 13.4471 693.029 22.0363C689.123 30.6281 687.171 37.4719 687.171 42.5704C687.171 48.178 689.202 52.8941 693.26 56.7187C697.524 60.6968 703.072 62.6845 709.907 62.6845C718.025 62.6845 726.068 59.5737 734.032 53.3547C741.48 47.5424 746.336 41.0918 748.597 34.0056C749.829 30.2833 750.703 25.5161 751.216 19.7038C751.526 15.5722 751.832 11.419 752.142 7.23892C752.345 5.50708 753.773 1.69327 756.42 -4.19441C759.066 -10.0821 760.773 -13.0259 761.544 -13.0259ZM729.713 20.4714C729.765 22.2571 728.636 24.4225 726.323 26.9732C724.162 29.3191 722.623 30.515 721.698 30.5661C719.179 28.4249 716.353 26.3106 713.221 24.2179C712.499 23.8112 712.447 23.2509 713.066 22.5372C717.485 17.6434 720.18 14.2794 721.158 12.4425C721.98 12.4425 723.519 13.2586 725.78 14.8881C728.348 16.8246 729.659 18.6857 729.711 20.4714" fill="#F16F26"/>
<path d="M796.298 23.286C796.195 23.286 795.308 24.5357 793.641 27.0325C791.969 29.5319 789.412 30.7816 785.973 30.7816C778.316 30.7816 774.334 26.3969 774.027 17.6273C773.976 15.5884 775.99 -5.06165 777.765 -19.7432C779.537 -34.4274 780.371 -43.2724 780.27 -46.2809C780.167 -48.2713 779.961 -49.2651 779.654 -49.2651C779.138 -49.2651 778.191 -47.1481 776.801 -42.9169C775.466 -38.9388 774.722 -36.3127 774.568 -35.0415C773.335 -24.7932 770.613 -1.43907 768.713 10.4387C767.684 16.6603 767.171 22.1413 767.171 26.8816C767.171 40.6986 771.384 47.6071 779.812 47.6071C783.15 47.6071 785.9 46.4112 788.058 44.0114C788.983 43.0445 790.446 40.7228 792.45 37.0518C795.688 31.2395 797.305 27.186 797.305 24.8912C797.305 23.822 796.972 23.286 796.304 23.286" fill="#F16F26"/>
<path d="M797.3 -25.507C795.039 -27.1391 793.497 -27.9525 792.675 -27.9525C791.7 -26.1184 789 -22.7543 784.583 -17.8578C783.967 -17.1441 784.019 -16.5812 784.738 -16.1772C787.87 -14.0844 790.699 -11.9701 793.215 -9.82889C794.141 -9.88007 795.682 -11.0759 797.84 -13.4218C800.153 -15.9698 801.282 -18.1379 801.233 -19.9236C801.182 -21.7093 799.871 -23.5704 797.303 -25.507" fill="#F16F26"/>
<path d="M801.999 87.7489C802.251 87.7489 802.376 88.1987 802.376 89.0929C802.376 91.8805 801.448 95.0883 799.591 98.719C797.034 103.745 793.324 107.874 788.462 111.106C783.196 114.639 775.026 117.748 763.944 120.436C750.155 123.77 735.164 125.434 718.97 125.434C700.768 125.434 688.96 124.19 683.545 121.701C678.933 119.563 676.626 115.011 676.626 108.043C676.626 98.2934 677.302 93.4158 678.657 93.4158C679.058 93.4158 679.433 94.4366 679.786 96.4754C680.185 98.9129 680.812 100.532 681.664 101.326C687.38 106.998 701.191 109.835 723.104 109.835C754.289 109.835 776.777 106.153 790.563 98.789C793.872 97.0491 796.63 94.6358 798.836 91.5493C800.641 89.0121 801.695 87.7435 801.993 87.7435M735.666 138.26C735.717 140 734.613 142.114 732.357 144.603C730.251 146.89 728.747 148.059 727.846 148.11C725.389 146.023 722.629 143.954 719.572 141.915C718.872 141.517 718.821 140.97 719.423 140.272C723.736 135.497 726.366 132.214 727.322 130.423C728.123 130.423 729.626 131.22 731.833 132.812C734.341 134.702 735.62 136.518 735.668 138.26" fill="#F16F26"/>
<path d="M824.435 119.566C826.091 119.566 826.916 120.71 826.916 122.997C826.916 125.585 826.039 128.346 824.283 131.279C822.378 134.414 820.421 135.982 818.418 135.982C810.193 135.982 806.081 129.243 806.081 115.757C806.081 111.133 806.583 105.784 807.585 99.7129C809.439 88.1233 810.969 77.3257 812.172 67.3279C812.321 66.0836 813.049 63.5222 814.354 59.641C815.706 55.5121 816.634 53.449 817.136 53.449C817.438 53.449 817.639 54.4186 817.739 56.3578C817.839 59.2935 817.022 67.9231 815.293 82.2545C813.564 96.5832 812.726 104.744 812.774 106.732C813.076 115.291 816.96 119.568 824.43 119.568" fill="#F16F26"/>
<path d="M848.425 114.044C849.228 114.044 849.63 114.618 849.63 115.76C849.63 117.055 849.176 118.424 848.275 119.867C847.374 121.459 846.419 122.254 845.417 122.254C844.714 122.254 843.547 121.693 841.918 120.576C840.287 119.455 839.071 118.895 838.27 118.895C836.465 118.895 833.659 121.745 829.848 127.438C826.037 133.135 822.226 135.982 818.415 135.982C816.759 135.982 815.934 134.837 815.934 132.55C815.934 129.962 816.811 127.201 818.567 124.268C820.472 121.133 822.427 119.566 824.433 119.566C827.291 119.566 830.475 118.249 833.984 115.609C837.491 112.972 839.774 111.652 840.827 111.652C841.78 111.652 843.083 112.054 844.738 112.848C846.394 113.646 847.618 114.041 848.422 114.041M850.371 140.638C850.422 142.378 849.318 144.493 847.062 146.981C844.956 149.268 843.452 150.437 842.551 150.488C840.094 148.401 837.334 146.332 834.277 144.293C833.577 143.895 833.526 143.348 834.128 142.65C838.441 137.875 841.071 134.592 842.027 132.801C842.828 132.801 844.331 133.598 846.538 135.19C849.046 137.081 850.325 138.896 850.373 140.638" fill="#F16F26"/>
<path d="M943.337 -2.74803C943.437 -2.69685 943.486 -2.59991 943.486 -2.44908C943.486 -1.45253 942.083 0.909546 939.273 4.63986C936.214 8.77148 932.906 12.5018 929.347 15.8335C926.538 18.3706 918.292 24.1156 904.603 33.071C897.483 37.647 890.361 42.25 883.241 46.8772C880.133 49.2177 877.026 51.5798 873.918 53.9661C869.002 57.9954 866.071 61.1304 865.118 63.3686C864.065 71.9766 862.561 83.3453 860.607 97.4747C859.855 102.051 858.023 107.077 855.115 112.547C851.706 119.016 848.471 122.248 845.414 122.248C844.562 122.248 844.136 121.677 844.136 120.533C844.136 119.24 844.6 117.834 845.526 116.315C846.454 114.798 847.42 114.039 848.422 114.039C852.233 114.039 854.364 110.532 854.814 103.516C855.965 84.9586 857.42 73.8135 859.176 70.0832C865.495 56.6002 872.514 46.7748 880.234 40.6043C887.302 35.0344 897.307 28.3415 910.244 20.5307C923.68 12.421 932.702 6.32593 937.319 2.24548C941.179 -1.18587 943.185 -2.85309 943.334 -2.75343" fill="#F16F26"/>
<path d="M535.847 79.5261C536.1 79.5261 536.225 79.9759 536.225 80.8701C536.225 83.6577 535.296 86.8655 533.44 90.4962C530.883 95.522 527.172 99.651 522.311 102.883C517.045 106.417 508.872 109.525 497.792 112.213C484.004 115.547 469.012 117.212 452.819 117.212C434.616 117.212 422.809 115.967 417.394 113.479C412.782 111.34 410.475 106.788 410.475 99.8206C410.475 90.0706 411.151 85.193 412.505 85.193C412.907 85.193 413.282 86.2137 413.635 88.2526C414.034 90.6901 414.661 92.3088 415.513 93.1034C421.229 98.7756 435.04 101.612 456.953 101.612C488.138 101.612 510.626 97.9298 524.412 90.5662C527.721 88.8263 530.478 86.413 532.685 83.3264C534.49 80.7893 535.543 79.5207 535.842 79.5207M469.514 130.035C469.566 131.775 468.461 133.889 466.206 136.378C464.099 138.664 462.596 139.833 461.694 139.884C459.238 137.797 456.478 135.729 453.421 133.69C452.721 133.291 452.669 132.744 453.272 132.047C457.585 127.271 460.215 123.988 461.171 122.197C461.971 122.197 463.475 122.994 465.682 124.586C468.19 126.477 469.468 128.292 469.517 130.035" fill="#F16F26"/>
<path d="M558.284 111.343C559.94 111.343 560.765 112.487 560.765 114.774C560.765 117.362 559.888 120.123 558.132 123.056C556.227 126.191 554.27 127.759 552.266 127.759C544.042 127.759 539.93 121.02 539.93 107.534C539.93 102.91 540.432 97.5608 541.433 91.49C543.287 79.9005 544.818 69.1028 546.021 59.105C546.17 57.8607 546.897 55.2993 548.203 51.4182C549.555 47.2892 550.483 45.2261 550.985 45.2261C551.286 45.2261 551.487 46.1957 551.588 48.1349C551.688 51.0707 550.871 59.7003 549.142 74.0316C547.413 88.3604 546.574 96.5212 546.623 98.5089C546.924 107.068 550.809 111.345 558.279 111.345" fill="#F16F26"/>
<path d="M582.276 105.819C583.079 105.819 583.481 106.392 583.481 107.534C583.481 108.83 583.028 110.198 582.127 111.642C581.226 113.234 580.27 114.028 579.269 114.028C578.566 114.028 577.398 113.468 575.77 112.35C574.138 111.23 572.922 110.669 572.122 110.669C570.317 110.669 567.51 113.519 563.699 119.213C559.888 124.909 556.077 127.756 552.266 127.756C550.611 127.756 549.785 126.611 549.785 124.325C549.785 121.737 550.662 118.976 552.418 116.043C554.324 112.908 556.278 111.34 558.284 111.34C561.142 111.34 564.326 110.023 567.836 107.384C571.343 104.747 573.625 103.427 574.679 103.427C575.631 103.427 576.934 103.828 578.59 104.623C580.246 105.42 581.47 105.816 582.273 105.816M584.219 132.416C584.271 134.156 583.166 136.27 580.911 138.759C578.804 141.045 577.301 142.214 576.399 142.265C573.943 140.178 571.183 138.109 568.126 136.071C567.426 135.672 567.374 135.125 567.977 134.428C572.29 129.652 574.92 126.369 575.876 124.578C576.676 124.578 578.18 125.375 580.387 126.967C582.895 128.858 584.173 130.673 584.222 132.416" fill="#F16F26"/>
<path d="M677.188 -10.9709C677.289 -10.9197 677.337 -10.8228 677.337 -10.6719C677.337 -9.67537 675.934 -7.31328 673.125 -3.58298C670.066 0.548645 666.757 4.27893 663.198 7.61063C660.389 10.1478 652.143 15.8927 638.454 24.8481C631.335 29.4242 624.212 34.0271 617.093 38.6543C613.985 40.9949 610.877 43.3569 607.769 45.7433C602.853 49.7725 599.922 52.9076 598.969 55.1458C597.916 63.7538 596.412 75.1224 594.458 89.2518C593.706 93.8279 591.874 98.8537 588.967 104.324C585.558 110.793 582.322 114.025 579.266 114.025C578.414 114.025 577.987 113.454 577.987 112.31C577.987 111.017 578.451 109.611 579.377 108.092C580.305 106.576 581.272 105.816 582.273 105.816C586.084 105.816 588.215 102.309 588.666 95.2931C589.816 76.7358 591.271 65.5906 593.027 61.8604C599.346 48.3774 606.366 38.552 614.085 32.3815C621.153 26.8116 631.158 20.1186 644.092 12.3079C657.528 4.19815 666.553 -1.89694 671.168 -5.97739C675.027 -9.40874 677.033 -11.0759 677.183 -10.9763" fill="#F16F26"/>
<path d="M727.563 -228.355C727.686 -228.153 727.745 -227.547 727.745 -226.542C727.745 -216.911 726.182 -207.158 723.055 -197.287C719.521 -186.244 714.871 -177.036 709.106 -169.664C701.674 -160.154 693.409 -155.397 684.313 -155.397C677.126 -155.397 671.724 -157.374 668.109 -161.322C664.941 -164.746 663.359 -169.403 663.359 -175.285C663.359 -181.77 665.449 -189.729 669.631 -199.162C673.451 -207.786 676.089 -212.098 677.552 -212.098C677.878 -212.098 678.038 -211.874 678.038 -211.432C678.038 -211.031 676.496 -207.433 673.41 -200.643C670.324 -193.853 668.782 -188.442 668.782 -184.413C668.782 -179.979 670.386 -176.254 673.594 -173.23C676.966 -170.087 681.352 -168.516 686.753 -168.516C693.167 -168.516 699.524 -170.975 705.822 -175.891C711.709 -180.486 715.547 -185.582 717.333 -191.184C718.308 -194.125 718.997 -197.893 719.404 -202.488C719.648 -205.752 719.893 -209.035 720.137 -212.343C720.3 -213.711 721.426 -216.725 723.516 -221.379C725.609 -226.036 726.958 -228.36 727.566 -228.36M702.407 -201.879C702.448 -200.468 701.552 -198.758 699.725 -196.74C698.021 -194.887 696.802 -193.939 696.069 -193.899C694.079 -195.593 691.846 -197.263 689.37 -198.916C688.8 -199.24 688.759 -199.681 689.245 -200.247C692.739 -204.115 694.869 -206.776 695.643 -208.227C696.292 -208.227 697.51 -207.581 699.299 -206.291C701.329 -204.761 702.364 -203.288 702.404 -201.879" fill="#F16F26"/>
<path d="M755.035 -199.654C754.954 -199.654 754.254 -198.666 752.934 -196.692C751.612 -194.715 749.593 -193.729 746.871 -193.729C740.818 -193.729 737.672 -197.193 737.427 -204.125C737.387 -205.736 738.98 -222.06 740.381 -233.663C741.781 -245.269 742.441 -252.261 742.359 -254.639C742.278 -256.21 742.115 -256.996 741.873 -256.996C741.469 -256.996 740.715 -255.324 739.618 -251.981C738.562 -248.838 737.973 -246.761 737.851 -245.754C736.876 -237.655 734.724 -219.197 733.223 -209.808C732.409 -204.89 732.004 -200.559 732.004 -196.81C732.004 -185.889 735.335 -180.429 741.996 -180.429C744.637 -180.429 746.808 -181.375 748.513 -183.271C749.246 -184.036 750.402 -185.87 751.987 -188.771C754.547 -193.363 755.825 -196.568 755.825 -198.38C755.825 -199.226 755.559 -199.649 755.033 -199.649" fill="#F16F26"/>
<path d="M755.828 -238.221C754.039 -239.511 752.823 -240.154 752.172 -240.154C751.401 -238.703 749.267 -236.044 745.777 -232.177C745.288 -231.611 745.331 -231.169 745.899 -230.846C748.374 -229.193 750.608 -227.52 752.6 -225.829C753.331 -225.869 754.549 -226.817 756.254 -228.67C758.083 -230.685 758.974 -232.395 758.936 -233.809C758.895 -235.22 757.858 -236.691 755.83 -238.221" fill="#F16F26"/>
<path d="M526.135 -35.1815C526.258 -34.9795 526.317 -34.3735 526.317 -33.3689C526.317 -23.7374 524.754 -13.9848 521.627 -4.11359C518.096 6.9292 513.443 16.1378 507.678 23.5096C500.246 33.0198 491.981 37.7763 482.885 37.7763C475.698 37.7763 470.296 35.7994 466.681 31.8509C463.513 28.4276 461.931 23.7708 461.931 17.8885C461.931 11.4029 464.021 3.444 468.203 -5.98814C472.023 -14.6123 474.661 -18.9244 476.124 -18.9244C476.45 -18.9244 476.61 -18.7008 476.61 -18.2591C476.61 -17.8578 475.068 -14.2595 471.982 -7.4695C468.896 -0.679535 467.354 4.73141 467.354 8.76068C467.354 13.194 468.958 16.9189 472.166 19.9435C475.538 23.0867 479.924 24.6569 485.325 24.6569C491.739 24.6569 498.096 22.1979 504.394 17.2825C510.281 12.6876 514.119 7.5918 515.905 1.98959C516.88 -0.951569 517.569 -4.71959 517.976 -9.31447C518.22 -12.5788 518.465 -15.862 518.709 -19.1695C518.872 -20.5377 519.998 -23.5516 522.088 -28.2057C524.181 -32.8625 525.53 -35.1869 526.138 -35.1869M500.976 -8.70576C501.017 -7.29445 500.121 -5.58415 498.295 -3.56682C496.59 -1.71378 495.371 -0.765717 494.638 -0.725311C492.649 -2.41943 490.415 -4.08932 487.939 -5.74306C487.369 -6.06625 487.329 -6.50797 487.815 -7.07358C491.308 -10.9413 493.439 -13.6023 494.212 -15.054C494.861 -15.054 496.08 -14.4076 497.868 -13.1175C499.899 -11.5877 500.933 -10.1144 500.974 -8.70576" fill="#F16F26"/>
<path d="M553.605 -6.48105C553.523 -6.48105 552.823 -5.49258 551.504 -3.51836C550.182 -1.54143 548.162 -0.555664 545.44 -0.555664C539.387 -0.555664 536.241 -4.01932 535.997 -10.952C535.956 -12.5627 537.549 -28.8871 538.95 -40.4901C540.35 -52.0958 541.01 -59.0878 540.929 -61.4661C540.847 -63.0363 540.684 -63.8228 540.443 -63.8228C540.038 -63.8228 539.284 -62.1502 538.187 -58.8077C537.131 -55.6646 536.542 -53.588 536.42 -52.5807C535.446 -44.4817 533.293 -26.0241 531.792 -16.635C530.978 -11.7169 530.573 -7.38602 530.573 -3.63686C530.573 7.28473 533.904 12.7442 540.565 12.7442C543.206 12.7442 545.377 11.7988 547.082 9.90268C547.815 9.13776 548.971 7.30359 550.556 4.40283C553.116 -0.189362 554.394 -3.39445 554.394 -5.20709C554.394 -6.05281 554.128 -6.47566 553.602 -6.47566" fill="#F16F26"/>
<path d="M554.397 -45.0473C552.608 -46.3374 551.392 -46.9812 550.741 -46.9812C549.97 -45.5294 547.837 -42.8711 544.346 -39.0007C543.857 -38.4378 543.901 -37.9961 544.468 -37.6729C546.944 -36.0192 549.177 -34.3466 551.17 -32.6552C551.9 -32.6956 553.119 -33.6436 554.823 -35.4967C556.65 -37.5113 557.543 -39.2216 557.505 -40.6356C557.464 -42.0469 556.427 -43.5175 554.4 -45.0473" fill="#F16F26"/>
<path d="M349.856 4.04999C350.108 4.04999 350.233 4.49979 350.233 5.39398C350.233 8.18161 349.305 11.3894 347.448 15.0201C344.891 20.0459 341.181 24.1748 336.319 27.4068C331.054 30.9405 322.881 34.0486 311.801 36.7366C298.012 40.071 283.021 41.7355 266.827 41.7355C248.625 41.7355 236.817 40.4912 231.402 38.0025C226.791 35.864 224.484 31.3122 224.484 24.3445C224.484 14.5945 225.159 9.71683 226.514 9.71683C226.916 9.71683 227.29 10.7376 227.643 12.7765C228.042 15.214 228.669 16.8327 229.521 17.6273C235.238 23.2995 249.048 26.1356 270.961 26.1356C302.146 26.1356 324.634 22.4537 338.42 15.0901C341.729 13.3502 344.487 10.9369 346.694 7.85034C348.499 5.3132 349.552 4.04462 349.85 4.04462M283.523 54.5586C283.575 56.2985 282.47 58.4128 280.214 60.9015C278.108 63.1882 276.604 64.3571 275.703 64.4082C273.246 62.3209 270.486 60.2524 267.43 58.2135C266.729 57.8149 266.678 57.2681 267.28 56.5706C271.593 51.7952 274.224 48.512 275.179 46.7209C275.98 46.7209 277.484 47.5182 279.69 49.11C282.198 51.0007 283.477 52.816 283.526 54.5586" fill="#F16F26"/>
<path d="M372.293 35.864C373.948 35.864 374.773 37.0087 374.773 39.2953C374.773 41.8837 373.897 44.6444 372.141 47.5775C370.235 50.7125 368.278 52.2801 366.275 52.2801C358.05 52.2801 353.938 45.5413 353.938 32.0556C353.938 27.4311 354.44 22.0821 355.442 16.0112C357.296 4.42169 358.827 -6.37599 360.029 -16.3737C360.178 -17.6181 360.906 -20.1795 362.211 -24.0606C363.563 -28.1895 364.492 -30.2527 364.994 -30.2527C365.295 -30.2527 365.496 -29.2831 365.596 -27.3438C365.697 -24.4081 364.88 -15.7785 363.151 -1.44713C361.422 12.8816 360.583 21.0424 360.632 23.0301C360.933 31.5896 364.817 35.8667 372.287 35.8667" fill="#F16F26"/>
<path d="M396.285 30.3426C397.088 30.3426 397.49 30.9163 397.49 32.0583C397.49 33.3538 397.036 34.722 396.135 36.1656C395.234 37.7574 394.279 38.5519 393.277 38.5519C392.574 38.5519 391.407 37.9917 389.778 36.874C388.147 35.7535 386.931 35.1933 386.13 35.1933C384.325 35.1933 381.519 38.0429 377.708 43.7367C373.897 49.4331 370.086 52.2801 366.275 52.2801C364.619 52.2801 363.794 51.1353 363.794 48.8487C363.794 46.2604 364.671 43.4997 366.427 40.5666C368.332 37.4315 370.287 35.864 372.293 35.864C375.151 35.864 378.335 34.5469 381.844 31.9074C385.351 29.2706 387.634 27.9509 388.687 27.9509C389.64 27.9509 390.943 28.3522 392.598 29.1467C394.254 29.944 395.478 30.3399 396.282 30.3399M398.228 56.9368C398.28 58.6767 397.175 60.791 394.919 63.2797C392.813 65.5664 391.309 66.7353 390.408 66.7865C387.952 64.6991 385.191 62.6306 382.135 60.5917C381.434 60.1931 381.383 59.6464 381.985 58.9488C386.298 54.1735 388.929 50.8902 389.884 49.0992C390.685 49.0992 392.189 49.8964 394.395 51.4882C396.903 53.3789 398.182 55.1942 398.231 56.9368" fill="#F16F26"/>
<path d="M491.197 -86.447C491.297 -86.3958 491.346 -86.2988 491.346 -86.148C491.346 -85.1515 489.943 -82.7894 487.133 -79.0591C484.074 -74.9275 480.765 -71.1972 477.207 -67.8655C474.398 -65.3283 466.151 -59.5834 452.463 -50.628C445.343 -46.0519 438.221 -41.449 431.101 -36.8218C427.993 -34.4812 424.885 -32.1192 421.778 -29.7328C416.862 -25.7036 413.93 -22.5685 412.978 -20.3303C411.924 -11.7223 410.421 -0.353638 408.466 13.7757C407.715 18.3517 405.882 23.3776 402.975 28.8478C399.566 35.3173 396.331 38.5493 393.274 38.5493C392.422 38.5493 391.996 37.9783 391.996 36.8336C391.996 35.5408 392.46 34.1349 393.386 32.6158C394.314 31.0995 395.28 30.3399 396.282 30.3399C400.093 30.3399 402.223 26.8332 402.674 19.817C403.825 1.2597 405.28 -9.88545 407.036 -13.6158C413.355 -27.0987 420.374 -36.9241 428.094 -43.0946C435.162 -48.6645 445.167 -55.3575 458.101 -63.1682C471.537 -71.278 480.562 -77.373 485.176 -81.4535C489.036 -84.8848 491.042 -86.552 491.191 -86.4524" fill="#F16F26"/>
<path d="M340.144 -110.658C340.266 -110.456 340.326 -109.85 340.326 -108.845C340.326 -99.2135 338.762 -89.4609 335.635 -79.5897C332.104 -68.5469 327.452 -59.3383 321.686 -51.9666C314.255 -42.4563 305.99 -37.6998 296.894 -37.6998C289.706 -37.6998 284.305 -39.6768 280.689 -43.6252C277.522 -47.0485 275.939 -51.7053 275.939 -57.5876C275.939 -64.0732 278.029 -72.0321 282.212 -81.4643C286.031 -90.0884 288.669 -94.4005 290.132 -94.4005C290.458 -94.4005 290.618 -94.177 290.618 -93.7352C290.618 -93.3339 289.076 -89.7356 285.99 -82.9456C282.904 -76.1557 281.362 -70.7447 281.362 -66.7154C281.362 -62.2822 282.967 -58.5572 286.175 -55.5326C289.546 -52.3894 293.932 -50.8192 299.334 -50.8192C305.748 -50.8192 312.105 -53.2782 318.402 -58.1936C324.29 -62.7885 328.128 -67.8844 329.914 -73.4865C330.888 -76.4277 331.577 -80.1957 331.985 -84.7906C332.229 -88.0549 332.473 -91.3382 332.718 -94.6456C332.88 -96.0138 334.007 -99.0277 336.097 -103.682C338.19 -108.339 339.539 -110.663 340.147 -110.663M314.985 -84.1846C315.025 -82.7733 314.13 -81.063 312.303 -79.0456C310.598 -77.1926 309.38 -76.2446 308.647 -76.2041C306.657 -77.8983 304.423 -79.5681 301.948 -81.2219C301.378 -81.5451 301.337 -81.9868 301.823 -82.5524C305.316 -86.4201 307.447 -89.0811 308.221 -90.5328C308.869 -90.5328 310.088 -89.8864 311.877 -88.5963C313.907 -87.0665 314.941 -85.5932 314.982 -84.1846" fill="#F16F26"/>
<path d="M367.613 -81.9598C367.532 -81.9598 366.831 -80.9714 365.512 -78.9971C364.19 -77.0202 362.171 -76.0344 359.448 -76.0344C353.395 -76.0344 350.249 -79.4981 350.005 -86.4308C349.964 -88.0415 351.558 -104.366 352.958 -115.969C354.359 -127.575 355.018 -134.567 354.937 -136.945C354.856 -138.515 354.693 -139.302 354.451 -139.302C354.047 -139.302 353.292 -137.629 352.196 -134.286C351.14 -131.143 350.551 -129.067 350.429 -128.059C349.454 -119.96 347.302 -101.503 345.801 -92.1138C344.986 -87.1957 344.582 -82.8648 344.582 -79.1156C344.582 -68.1941 347.912 -62.7346 354.573 -62.7346C357.214 -62.7346 359.386 -63.68 361.09 -65.5761C361.823 -66.341 362.98 -68.1752 364.565 -71.076C367.124 -75.6682 368.403 -78.8732 368.403 -80.6859C368.403 -81.5316 368.137 -81.9545 367.61 -81.9545" fill="#F16F26"/>
<path d="M368.406 -120.523C366.617 -121.814 365.401 -122.457 364.749 -122.457C363.979 -121.006 361.845 -118.347 358.354 -114.477C357.866 -113.914 357.909 -113.472 358.477 -113.149C360.952 -111.495 363.186 -109.823 365.178 -108.131C365.908 -108.172 367.127 -109.12 368.832 -110.973C370.659 -112.987 371.552 -114.698 371.514 -116.112C371.473 -117.523 370.436 -118.994 368.408 -120.523" fill="#F16F26"/>
<path d="M125.372 188.416C125.625 188.416 125.75 188.866 125.75 189.76C125.75 192.548 124.821 195.755 122.965 199.386C120.408 204.412 116.697 208.541 111.836 211.773C106.57 215.307 98.3973 218.415 87.3174 221.103C73.5286 224.437 58.5373 226.102 42.3436 226.102C24.1413 226.102 12.3339 224.857 6.91884 222.369C2.30718 220.23 0 215.678 0 208.711C0 198.961 0.675869 194.083 2.03032 194.083C2.43204 194.083 2.80662 195.104 3.15948 197.143C3.55849 199.58 4.1855 201.199 5.0378 201.993C10.7542 207.666 24.5647 210.502 46.4775 210.502C77.6625 210.502 100.151 206.82 113.937 199.456C117.246 197.716 120.003 195.303 122.21 192.216C124.015 189.679 125.068 188.411 125.367 188.411M59.0395 238.925C59.091 240.665 57.9863 242.779 55.7307 245.268C53.6244 247.554 52.1206 248.723 51.2195 248.774C48.763 246.687 46.0025 244.618 42.9462 242.58C42.2459 242.181 42.1943 241.634 42.7969 240.937C47.11 236.161 49.7402 232.878 50.6956 231.087C51.4963 231.087 53.0001 231.884 55.2068 233.476C57.7149 235.367 58.9933 237.182 59.0422 238.925" fill="#F16F26"/>
<path d="M147.809 220.233C149.465 220.233 150.29 221.377 150.29 223.664C150.29 226.252 149.413 229.013 147.657 231.946C145.752 235.081 143.795 236.649 141.791 236.649C133.567 236.649 129.455 229.91 129.455 216.424C129.455 211.8 129.957 206.451 130.958 200.38C132.812 188.79 134.343 177.993 135.546 167.995C135.695 166.751 136.422 164.189 137.728 160.308C139.08 156.179 140.008 154.116 140.51 154.116C140.811 154.116 141.012 155.086 141.113 157.025C141.213 159.961 140.396 168.59 138.667 182.922C136.938 197.25 136.099 205.411 136.148 207.399C136.45 215.958 140.334 220.235 147.804 220.235" fill="#F16F26"/>
<path d="M171.801 214.709C172.604 214.709 173.006 215.282 173.006 216.424C173.006 217.72 172.553 219.088 171.652 220.532C170.751 222.124 169.795 222.918 168.794 222.918C168.09 222.918 166.923 222.358 165.295 221.24C163.663 220.12 162.447 219.559 161.647 219.559C159.842 219.559 157.035 222.409 153.224 228.103C149.413 233.799 145.602 236.646 141.791 236.646C140.136 236.646 139.31 235.501 139.31 233.215C139.31 230.626 140.187 227.866 141.943 224.933C143.849 221.798 145.803 220.23 147.809 220.23C150.667 220.23 153.851 218.913 157.361 216.274C160.868 213.637 163.15 212.317 164.204 212.317C165.156 212.317 166.459 212.718 168.115 213.513C169.771 214.31 170.995 214.706 171.798 214.706M173.744 241.306C173.796 243.046 172.691 245.16 170.436 247.649C168.329 249.935 166.826 251.104 165.924 251.155C163.468 249.068 160.708 246.999 157.651 244.961C156.951 244.562 156.899 244.015 157.502 243.318C161.815 238.542 164.445 235.259 165.401 233.468C166.201 233.468 167.705 234.265 169.912 235.857C172.42 237.748 173.698 239.563 173.747 241.306" fill="#F16F26"/>
<path d="M266.713 97.9191C266.814 97.9702 266.862 98.0672 266.862 98.218C266.862 99.2146 265.459 101.577 262.65 105.307C259.591 109.439 256.282 113.169 252.723 116.501C249.914 119.038 241.668 124.783 227.98 133.738C220.86 138.314 213.737 142.917 206.618 147.544C203.51 149.885 200.402 152.247 197.294 154.633C192.378 158.662 189.447 161.798 188.494 164.036C187.441 172.644 185.937 184.012 183.983 198.142C183.231 202.718 181.399 207.744 178.492 213.214C175.083 219.683 171.847 222.915 168.791 222.915C167.939 222.915 167.512 222.344 167.512 221.2C167.512 219.907 167.977 218.501 168.902 216.982C169.83 215.465 170.797 214.706 171.798 214.706C175.609 214.706 177.74 211.199 178.191 204.183C179.341 185.626 180.796 174.481 182.552 170.75C188.871 157.267 195.891 147.442 203.61 141.271C210.678 135.702 220.683 129.009 233.617 121.198C247.053 113.088 256.078 106.993 260.693 102.913C264.552 99.4812 266.558 97.814 266.708 97.9137" fill="#F16F26"/>
<path d="M115.66 73.7084C115.783 73.9104 115.842 74.5164 115.842 75.5211C115.842 85.1525 114.279 94.9052 111.152 104.776C107.621 115.819 102.968 125.028 97.203 132.4C89.7711 141.91 81.506 146.666 72.4103 146.666C65.2227 146.666 59.8212 144.689 56.2057 140.741C53.0381 137.318 51.4556 132.661 51.4556 126.778C51.4556 120.293 53.5457 112.334 57.7284 102.902C61.5475 94.2776 64.1858 89.9656 65.6489 89.9656C65.9746 89.9656 66.1347 90.1891 66.1347 90.6308C66.1347 91.0321 64.593 94.6305 61.5068 101.42C58.4206 108.21 56.8789 113.621 56.8789 117.651C56.8789 122.084 58.483 125.809 61.6914 128.833C65.0626 131.977 69.4489 133.547 74.8505 133.547C81.2644 133.547 87.6214 131.088 93.9186 126.172C99.806 121.578 103.644 116.482 105.43 110.88C106.405 107.938 107.094 104.17 107.501 99.5755C107.745 96.3112 107.99 93.028 108.234 89.7205C108.397 88.3523 109.523 85.3384 111.613 80.6842C113.706 76.0274 115.055 73.703 115.663 73.703M90.5013 100.184C90.542 101.596 89.6463 103.306 87.8195 105.323C86.1149 107.176 84.8962 108.124 84.1633 108.165C82.1737 106.471 79.9398 104.801 77.4644 103.147C76.8943 102.824 76.8536 102.382 77.3395 101.816C80.8328 97.9487 82.9636 95.2877 83.7372 93.8359C84.3859 93.8359 85.6046 94.4823 87.3934 95.7725C89.4237 97.3023 90.4579 98.7756 90.4986 100.184" fill="#F16F26"/>
<path d="M143.13 102.409C143.048 102.409 142.348 103.397 141.029 105.372C139.707 107.349 137.687 108.334 134.965 108.334C128.912 108.334 125.766 104.871 125.522 97.9379C125.481 96.3273 127.074 80.0028 128.475 68.3998C129.875 56.7941 130.535 49.8022 130.454 47.4239C130.372 45.8537 130.209 45.0672 129.968 45.0672C129.563 45.0672 128.809 46.7398 127.712 50.0823C126.656 53.2254 126.067 55.302 125.945 56.3093C124.971 64.4083 122.818 82.8659 121.317 92.2549C120.503 97.173 120.098 101.504 120.098 105.253C120.098 116.175 123.429 121.634 130.09 121.634C132.731 121.634 134.902 120.689 136.607 118.793C137.34 118.028 138.496 116.194 140.081 113.293C142.641 108.701 143.919 105.496 143.919 103.683C143.919 102.837 143.653 102.414 143.127 102.414" fill="#F16F26"/>
<path d="M143.922 63.8426C142.133 62.5525 140.917 61.9088 140.266 61.9088C139.495 63.3605 137.362 66.0189 133.871 69.8893C133.382 70.4522 133.426 70.8939 133.993 71.2171C136.469 72.8708 138.702 74.5434 140.695 76.2348C141.425 76.1944 142.644 75.2463 144.348 73.3933C146.175 71.3786 147.068 69.6684 147.03 68.2544C146.989 66.843 145.952 65.3724 143.925 63.8426" fill="#F16F26"/>
<path d="M1065.74 -82.9591C1065.86 -82.7571 1065.92 -82.1511 1065.92 -81.1465C1065.92 -71.515 1064.36 -61.7623 1061.23 -51.8911C1057.7 -40.8484 1053.04 -31.6398 1047.28 -24.268C1039.85 -14.7578 1031.58 -10.0013 1022.49 -10.0013C1015.3 -10.0013 1009.9 -11.9782 1006.28 -15.9267C1003.11 -19.3499 1001.53 -24.0068 1001.53 -29.8891C1001.53 -36.3747 1003.62 -44.3336 1007.8 -53.7657C1011.62 -62.3899 1014.26 -66.702 1015.73 -66.702C1016.05 -66.702 1016.21 -66.4784 1016.21 -66.0367C1016.21 -65.6354 1014.67 -62.037 1011.58 -55.2471C1008.5 -48.4571 1006.96 -43.0461 1006.96 -39.0169C1006.96 -34.5836 1008.56 -30.8587 1011.77 -27.834C1015.14 -24.6909 1019.53 -23.1207 1024.93 -23.1207C1031.34 -23.1207 1037.7 -25.5797 1044 -30.4951C1049.88 -35.09 1053.72 -40.1858 1055.51 -45.788C1056.48 -48.7291 1057.17 -52.4972 1057.58 -57.092C1057.82 -60.3564 1058.07 -63.6396 1058.31 -66.9471C1058.47 -68.3153 1059.6 -71.3291 1061.69 -75.9833C1063.78 -80.6401 1065.13 -82.9645 1065.74 -82.9645M1040.58 -56.4833C1040.62 -55.072 1039.72 -53.3617 1037.9 -51.3444C1036.19 -49.4914 1034.97 -48.5433 1034.24 -48.5029C1032.25 -50.197 1030.02 -51.8669 1027.54 -53.5206C1026.97 -53.8438 1026.93 -54.2856 1027.42 -54.8512C1030.91 -58.7188 1033.04 -61.3799 1033.81 -62.8316C1034.46 -62.8316 1035.68 -62.1852 1037.47 -60.8951C1039.5 -59.3652 1040.53 -57.892 1040.58 -56.4833" fill="#F16F26"/>
<path d="M1093.21 -54.2613C1093.12 -54.2613 1092.42 -53.2729 1091.11 -51.2986C1089.78 -49.3217 1087.76 -48.3359 1085.04 -48.3359C1078.99 -48.3359 1075.84 -51.7996 1075.6 -58.7323C1075.56 -60.3429 1077.15 -76.6674 1078.55 -88.2704C1079.95 -99.8761 1080.61 -106.868 1080.53 -109.246C1080.45 -110.817 1080.29 -111.603 1080.04 -111.603C1079.64 -111.603 1078.89 -109.93 1077.79 -106.588C1076.73 -103.445 1076.14 -101.368 1076.02 -100.361C1075.05 -92.262 1072.89 -73.8044 1071.39 -64.4153C1070.58 -59.4972 1070.17 -55.1663 1070.17 -51.4171C1070.17 -40.4955 1073.51 -35.0361 1080.17 -35.0361C1082.81 -35.0361 1084.98 -35.9814 1086.68 -37.8776C1087.42 -38.6425 1088.57 -40.4767 1090.16 -43.3774C1092.72 -47.9696 1094 -51.1747 1094 -52.9874C1094 -53.8331 1093.73 -54.2559 1093.2 -54.2559" fill="#F16F26"/>
<path d="M1094 -92.8249C1092.21 -94.115 1090.99 -94.7587 1090.34 -94.7587C1089.57 -93.307 1087.44 -90.6487 1083.95 -86.7783C1083.46 -86.2154 1083.5 -85.7737 1084.07 -85.4505C1086.54 -83.7968 1088.78 -82.1242 1090.77 -80.4327C1091.5 -80.4731 1092.72 -81.4212 1094.42 -83.2742C1096.25 -85.2889 1097.14 -86.9991 1097.11 -88.4132C1097.07 -89.8245 1096.03 -91.2951 1094 -92.8249" fill="#F16F26"/>
<path d="M691.902 -83.4277C692.122 -83.4277 692.236 -83.0291 692.236 -82.2319C692.236 -79.754 691.411 -76.9017 689.763 -73.6751C687.492 -69.2068 684.191 -65.5357 679.87 -62.6619C675.19 -59.5215 667.924 -56.7581 658.076 -54.3717C645.818 -51.409 632.491 -49.925 618.097 -49.925C601.92 -49.925 591.423 -51.032 586.608 -53.2432C582.507 -55.1447 580.457 -59.1902 580.457 -65.3822C580.457 -74.0494 581.06 -78.3858 582.262 -78.3858C582.618 -78.3858 582.955 -77.4781 583.267 -75.6655C583.622 -73.4973 584.179 -72.059 584.939 -71.3534C590.02 -66.3114 602.3 -63.7904 621.778 -63.7904C649.499 -63.7904 669.49 -67.0629 681.748 -73.6077C684.688 -75.1537 687.139 -77.3003 689.101 -80.0422C690.705 -82.2965 691.642 -83.425 691.911 -83.425M632.934 -38.5267C632.977 -36.9807 632 -35.1007 629.991 -32.8868C628.121 -30.8533 626.783 -29.8137 625.979 -29.7679C623.794 -31.6263 621.343 -33.4605 618.626 -35.2758C618.002 -35.6313 617.956 -36.1161 618.493 -36.7356C622.326 -40.9803 624.666 -43.8999 625.513 -45.4917C626.224 -45.4917 627.562 -44.7861 629.524 -43.3694C631.753 -41.6887 632.89 -40.0754 632.934 -38.5267Z" fill="#F16F26"/>
<path d="M711.847 -55.1448C713.319 -55.1448 714.054 -54.1267 714.054 -52.0932C714.054 -49.793 713.272 -47.3394 711.714 -44.7295C710.021 -41.9419 708.281 -40.5494 706.5 -40.5494C699.19 -40.5494 695.534 -46.5421 695.534 -58.5276C695.534 -62.6404 695.979 -67.3942 696.872 -72.789C698.52 -83.0938 699.883 -92.6902 700.949 -101.578C701.082 -102.685 701.731 -104.961 702.89 -108.414C704.092 -112.085 704.918 -113.919 705.363 -113.919C705.629 -113.919 705.808 -113.057 705.895 -111.331C705.984 -108.721 705.26 -101.05 703.723 -88.3135C702.184 -75.5766 701.438 -68.3207 701.484 -66.5511C701.753 -58.9451 705.205 -55.1421 711.847 -55.1421" fill="#F16F26"/>
<path d="M733.174 -60.0547C733.885 -60.0547 734.243 -59.5457 734.243 -58.5276C734.243 -57.3775 733.842 -56.1628 733.041 -54.8808C732.238 -53.4641 731.391 -52.7584 730.5 -52.7584C729.876 -52.7584 728.839 -53.2567 727.392 -54.2505C725.943 -55.2444 724.863 -55.7427 724.149 -55.7427C722.545 -55.7427 720.05 -53.2109 716.66 -48.1447C713.272 -43.0812 709.885 -40.5494 706.5 -40.5494C705.029 -40.5494 704.293 -41.5675 704.293 -43.5983C704.293 -45.9011 705.072 -48.3548 706.63 -50.9619C708.324 -53.7496 710.064 -55.142 711.845 -55.142C714.385 -55.142 717.216 -56.3137 720.335 -58.6569C723.454 -61.0001 725.484 -62.1744 726.421 -62.1744C727.265 -62.1744 728.427 -61.8216 729.895 -61.1132C731.366 -60.4076 732.457 -60.052 733.171 -60.052M734.903 -36.4124C734.946 -34.8664 733.969 -32.9865 731.961 -30.7725C730.09 -28.739 728.752 -27.6994 727.949 -27.6563C725.764 -29.512 723.313 -31.3489 720.596 -33.1615C719.971 -33.517 719.925 -34.0018 720.463 -34.6213C724.295 -38.866 726.635 -41.7856 727.482 -43.3774C728.193 -43.3774 729.531 -42.6718 731.494 -41.2551C733.722 -39.5744 734.859 -37.9611 734.903 -36.4124Z" fill="#F16F26"/>
<path d="M817.546 -163.876C817.636 -163.833 817.679 -163.744 817.679 -163.609C817.679 -162.723 816.431 -160.622 813.933 -157.307C811.214 -153.636 808.271 -150.317 805.109 -147.355C802.612 -145.1 795.281 -139.991 783.115 -132.029C776.785 -127.96 770.455 -123.869 764.125 -119.756C761.362 -117.677 758.599 -115.576 755.836 -113.453C751.466 -109.871 748.86 -107.086 748.013 -105.096C747.077 -97.4413 745.741 -87.3385 744.001 -74.7793C743.334 -70.7097 741.705 -66.2441 739.121 -61.3772C736.089 -55.6295 733.215 -52.753 730.498 -52.753C729.74 -52.753 729.36 -53.2594 729.36 -54.2775C729.36 -55.4275 729.773 -56.6746 730.598 -58.0266C731.426 -59.376 732.281 -60.0493 733.174 -60.0493C736.559 -60.0493 738.456 -63.1682 738.858 -69.4034C739.881 -85.9002 741.173 -95.8064 742.734 -99.1246C748.35 -111.11 754.59 -119.845 761.455 -125.331C767.738 -130.281 776.628 -136.231 788.128 -143.175C800.074 -150.382 808.095 -155.801 812.196 -159.429C815.63 -162.481 817.411 -163.962 817.546 -163.873" fill="#F16F26"/>
<path d="M909.272 -82.0541C909.492 -82.0541 909.606 -81.6555 909.606 -80.8582C909.606 -78.3804 908.78 -75.5281 907.133 -72.3014C904.861 -67.8331 901.56 -64.1621 897.239 -61.2883C892.56 -58.1478 885.293 -55.3844 875.446 -52.9981C863.188 -50.0354 849.86 -48.5514 835.466 -48.5514C819.286 -48.5514 808.793 -49.6583 803.977 -51.8696C799.876 -53.7711 797.827 -57.8165 797.827 -64.0086C797.827 -72.6758 798.429 -77.0121 799.632 -77.0121C799.987 -77.0121 800.324 -76.1045 800.636 -74.2918C800.992 -72.1237 801.548 -70.6854 802.308 -69.9798C807.389 -64.9378 819.669 -62.4168 839.147 -62.4168C866.868 -62.4168 886.859 -65.6892 899.117 -72.2341C902.057 -73.7801 904.508 -75.9267 906.471 -78.6685C908.075 -80.9229 909.011 -82.0514 909.28 -82.0514M850.306 -37.153C850.349 -35.6071 849.369 -33.7271 847.363 -31.5132C845.493 -29.4797 844.155 -28.44 843.351 -28.3942C841.166 -30.2527 838.715 -32.0868 835.998 -33.9022C835.374 -34.2577 835.328 -34.7425 835.865 -35.362C839.698 -39.6067 842.038 -42.5263 842.885 -44.1181C843.596 -44.1181 844.934 -43.4124 846.896 -41.9957C849.125 -40.315 850.262 -38.7017 850.306 -37.153Z" fill="#F16F26"/>
<path d="M929.217 -53.7711C930.688 -53.7711 931.423 -52.753 931.423 -50.7195C931.423 -48.4194 930.642 -45.9658 929.084 -43.3559C927.39 -40.5683 925.65 -39.1758 923.869 -39.1758C916.56 -39.1758 912.904 -45.1685 912.904 -57.154C912.904 -61.2667 913.349 -66.0205 914.242 -71.4153C915.889 -81.7201 917.252 -91.3166 918.319 -100.205C918.452 -101.312 919.1 -103.588 920.259 -107.04C921.462 -110.711 922.287 -112.546 922.732 -112.546C922.998 -112.546 923.177 -111.684 923.264 -109.957C923.354 -107.347 922.629 -99.6768 921.093 -86.9399C919.554 -74.203 918.807 -66.947 918.853 -65.1775C919.122 -57.5714 922.575 -53.7684 929.217 -53.7684" fill="#F16F26"/>
<path d="M950.543 -58.6811C951.254 -58.6811 951.613 -58.1721 951.613 -57.154C951.613 -56.0039 951.211 -54.7892 950.41 -53.5071C949.607 -52.0904 948.76 -51.3848 947.87 -51.3848C947.245 -51.3848 946.208 -51.883 944.762 -52.8769C943.312 -53.8707 942.232 -54.369 941.518 -54.369C939.914 -54.369 937.419 -51.8372 934.029 -46.771C930.642 -41.7075 927.254 -39.1758 923.869 -39.1758C922.398 -39.1758 921.663 -40.1939 921.663 -42.2247C921.663 -44.5275 922.444 -46.9811 924.003 -49.5883C925.696 -52.3759 927.436 -53.7684 929.217 -53.7684C931.757 -53.7684 934.588 -54.94 937.707 -57.2832C940.826 -59.6265 942.856 -60.8008 943.793 -60.8008C944.637 -60.8008 945.799 -60.4479 947.267 -59.7396C948.738 -59.0339 949.829 -58.6784 950.543 -58.6784M952.272 -35.0388C952.316 -33.4928 951.336 -31.6128 949.33 -29.3989C947.46 -27.3654 946.122 -26.3257 945.318 -26.2826C943.133 -28.1384 940.682 -29.9752 937.965 -31.7879C937.341 -32.1434 937.295 -32.6282 937.832 -33.2477C941.665 -37.4924 944.004 -40.412 944.851 -42.0038C945.562 -42.0038 946.901 -41.2981 948.863 -39.8814C951.092 -38.2008 952.229 -36.5874 952.272 -35.0388Z" fill="#F16F26"/>
<path d="M1034.92 -162.502C1035.01 -162.459 1035.05 -162.37 1035.05 -162.236C1035.05 -161.349 1033.8 -159.249 1031.3 -155.933C1028.58 -152.262 1025.64 -148.944 1022.48 -145.981C1019.98 -143.727 1012.65 -138.617 1000.48 -130.656C994.154 -126.586 987.825 -122.495 981.495 -118.382C978.732 -116.303 975.968 -114.202 973.205 -112.08C968.835 -108.498 966.229 -105.713 965.383 -103.722C964.446 -96.0677 963.111 -85.9649 961.371 -73.4057C960.7 -69.336 959.074 -64.8705 956.488 -60.0036C953.456 -54.2559 950.581 -51.3794 947.864 -51.3794C947.107 -51.3794 946.727 -51.8857 946.727 -52.9038C946.727 -54.0539 947.139 -55.3009 947.965 -56.653C948.792 -57.9997 949.648 -58.6757 950.541 -58.6757C953.925 -58.6757 955.823 -61.7946 956.224 -68.0298C957.248 -84.5266 958.54 -94.4328 960.1 -97.751C965.716 -109.736 971.957 -118.471 978.821 -123.957C985.105 -128.908 993.994 -134.857 1005.49 -141.801C1017.44 -149.008 1025.46 -154.427 1029.56 -158.055C1033 -161.107 1034.78 -162.588 1034.91 -162.499" fill="#F16F26"/>
<path d="M550.757 -164.63C550.931 -164.63 551.018 -164.32 551.018 -163.698C551.018 -161.77 550.375 -159.548 549.091 -157.035C547.321 -153.555 544.75 -150.697 541.385 -148.459C537.742 -146.013 532.083 -143.861 524.412 -142.003C514.866 -139.692 504.489 -138.539 493.276 -138.539C480.676 -138.539 472.503 -139.401 468.754 -141.122C465.56 -142.604 463.966 -145.755 463.966 -150.576C463.966 -157.326 464.436 -160.703 465.372 -160.703C465.649 -160.703 465.91 -159.997 466.154 -158.583C466.431 -156.895 466.865 -155.777 467.457 -155.225C471.415 -151.3 480.977 -149.337 496.145 -149.337C517.732 -149.337 533.301 -151.885 542.848 -156.983C545.139 -158.187 547.047 -159.857 548.575 -161.996C549.823 -163.752 550.554 -164.633 550.76 -164.633M504.836 -129.665C504.871 -128.461 504.109 -126.996 502.545 -125.272C501.088 -123.688 500.048 -122.88 499.424 -122.842C497.722 -124.289 495.814 -125.719 493.697 -127.133C493.211 -127.408 493.175 -127.787 493.591 -128.27C496.576 -131.574 498.398 -133.847 499.06 -135.089C499.614 -135.089 500.656 -134.54 502.182 -133.438C503.916 -132.129 504.804 -130.871 504.839 -129.665" fill="#F16F26"/>
<path d="M566.291 -142.604C567.437 -142.604 568.01 -141.812 568.01 -140.228C568.01 -138.434 567.404 -136.525 566.188 -134.491C564.869 -132.323 563.515 -131.238 562.128 -131.238C556.433 -131.238 553.588 -135.902 553.588 -145.238C553.588 -148.44 553.936 -152.143 554.631 -156.342C555.914 -164.369 556.976 -171.843 557.806 -178.765C557.912 -179.627 558.414 -181.399 559.318 -184.087C560.255 -186.944 560.898 -188.375 561.245 -188.375C561.454 -188.375 561.593 -187.704 561.663 -186.36C561.731 -184.326 561.169 -178.35 559.97 -168.433C558.773 -158.513 558.192 -152.865 558.227 -151.489C558.436 -145.564 561.123 -142.604 566.297 -142.604" fill="#F16F26"/>
<path d="M582.898 -146.428C583.454 -146.428 583.731 -146.032 583.731 -145.24C583.731 -144.344 583.419 -143.398 582.795 -142.399C582.17 -141.297 581.508 -140.745 580.816 -140.745C580.33 -140.745 579.521 -141.133 578.395 -141.909C577.268 -142.684 576.424 -143.072 575.87 -143.072C574.619 -143.072 572.676 -141.101 570.04 -137.158C567.402 -133.215 564.763 -131.243 562.125 -131.243C560.979 -131.243 560.407 -132.035 560.407 -133.619C560.407 -135.41 561.015 -137.319 562.231 -139.353C563.55 -141.524 564.904 -142.609 566.291 -142.609C568.27 -142.609 570.474 -143.519 572.903 -145.348C575.333 -147.174 576.913 -148.087 577.643 -148.087C578.302 -148.087 579.203 -147.813 580.349 -147.26C581.494 -146.708 582.344 -146.434 582.9 -146.434M584.244 -128.016C584.279 -126.812 583.517 -125.347 581.953 -123.623C580.495 -122.04 579.456 -121.232 578.832 -121.197C577.13 -122.64 575.221 -124.071 573.104 -125.485C572.618 -125.759 572.583 -126.139 572.998 -126.621C575.984 -129.926 577.806 -132.199 578.468 -133.441C579.022 -133.441 580.064 -132.891 581.589 -131.79C583.324 -130.481 584.211 -129.223 584.247 -128.016" fill="#F16F26"/>
<path d="M648.606 -227.28C648.674 -227.245 648.709 -227.178 648.709 -227.073C648.709 -226.386 647.738 -224.748 645.794 -222.166C643.677 -219.308 641.386 -216.722 638.921 -214.417C636.978 -212.661 631.267 -208.683 621.791 -202.482C616.862 -199.312 611.933 -196.129 607.004 -192.926C604.851 -191.308 602.699 -189.67 600.549 -188.016C597.148 -185.229 595.118 -183.058 594.458 -181.507C593.728 -175.546 592.688 -167.679 591.334 -157.897C590.813 -154.726 589.545 -151.249 587.531 -147.46C585.169 -142.981 582.933 -140.745 580.816 -140.745C580.227 -140.745 579.931 -141.138 579.931 -141.933C579.931 -142.827 580.254 -143.802 580.894 -144.853C581.538 -145.903 582.205 -146.428 582.9 -146.428C585.539 -146.428 587.015 -148.858 587.327 -153.714C588.125 -166.561 589.132 -174.275 590.346 -176.858C594.719 -186.19 599.58 -192.994 604.924 -197.265C609.818 -201.122 616.743 -205.755 625.7 -211.16C634.999 -216.773 641.248 -220.994 644.442 -223.819C647.116 -226.195 648.503 -227.348 648.606 -227.28Z" fill="#F16F26"/>
</svg>
