<svg width="7" height="11" viewBox="0 0 7 11" fill="none" xmlns="http://www.w3.org/2000/svg">
<path fill-rule="evenodd" clip-rule="evenodd" d="M5.83854 0.00520833L4.38542 0C2.75 0 1.69271 1.0625 1.69271 2.70833V3.95833H0.229167C0.104167 3.95833 0 4.05729 0 4.18229V5.98958C0 6.11458 0.104167 6.21354 0.229167 6.21354H1.69271V10.7708C1.69271 10.8958 1.79688 10.9948 1.92188 10.9948H3.83333C3.95833 10.9948 4.05729 10.8958 4.05729 10.7708V6.21354H5.77083C5.89583 6.21354 6 6.11458 6 5.98958V4.18229C6 4.11979 5.97396 4.0625 5.93229 4.02083C5.89062 3.97917 5.83333 3.95833 5.77083 3.95833H4.05729V2.89583C4.05729 2.39063 4.18229 2.13021 4.85938 2.13021H5.83854C5.96354 2.13021 6.06771 2.03125 6.06771 1.90625V0.229167C6.06771 0.104167 5.96875 0.00520833 5.83854 0.00520833Z" fill="white"/>
</svg>
