<svg width="20" height="20" viewBox="0 0 20 20" fill="none" xmlns="http://www.w3.org/2000/svg">
<path d="M10 20C15.5228 20 20 15.5228 20 10C20 4.47715 15.5228 0 10 0C4.47715 0 0 4.47715 0 10C0 15.5228 4.47715 20 10 20Z" fill="#F18930"/>
<path d="M10 7.97867C10.0371 7.91377 10.0603 7.87204 10.0834 7.83032C10.9597 6.25869 13.3472 6.1567 14.3394 7.65415C14.7798 8.31711 14.8169 9.04033 14.6083 9.78674C14.3857 10.5888 13.9268 11.2517 13.3658 11.8498C12.828 12.42 12.2299 12.9207 11.618 13.4029C11.1127 13.8016 10.6027 14.1956 10.0974 14.5943C10.0371 14.6407 9.99536 14.6732 9.91655 14.6129C9.04961 13.9128 8.16875 13.2267 7.31572 12.5081C6.65276 11.9518 6.07789 11.3166 5.68382 10.5331C5.4242 10.0232 5.26657 9.49003 5.27121 8.91516C5.28512 7.78396 6.13815 6.7872 7.26008 6.62958C8.26611 6.48586 9.11451 6.7872 9.75892 7.59388C9.80528 7.64951 9.84701 7.71442 9.8841 7.77932C9.92119 7.83959 9.95364 7.89986 10 7.98331" fill="white"/>
</svg>
