<svg width="11" height="11" viewBox="0 0 11 11" fill="none" xmlns="http://www.w3.org/2000/svg">
<path d="M8.02602 1.8125C7.67706 1.8125 7.39581 2.09375 7.39581 2.44271C7.39581 2.78646 7.67706 3.06771 8.02602 3.06771C8.37498 3.06771 8.65623 2.78646 8.65623 2.44271C8.65623 2.09375 8.37498 1.8125 8.02602 1.8125Z" fill="white"/>
<path d="M9.49479 7.34896C9.46875 7.85937 9.38542 8.13542 9.3125 8.32292C9.21875 8.5625 9.10417 8.73958 8.92188 8.92188C8.73958 9.10417 8.5625 9.21875 8.31771 9.3125C8.13542 9.38542 7.85937 9.46875 7.34896 9.49479C6.79687 9.52083 6.63021 9.52604 5.23438 9.52604C3.83333 9.52604 3.66667 9.52083 3.11979 9.49479C2.60937 9.46875 2.32813 9.38542 2.14583 9.3125C1.90104 9.21875 1.72917 9.10417 1.54167 8.92188C1.35937 8.73958 1.25 8.5625 1.15104 8.32292C1.08333 8.13542 0.994792 7.85937 0.973958 7.34896C0.947916 6.79687 0.942708 6.63021 0.942708 5.23438C0.942708 3.83854 0.947916 3.67187 0.973958 3.11979C0.994792 2.60937 1.08333 2.33333 1.15104 2.14583C1.25 1.90104 1.35937 1.72917 1.54167 1.54688C1.72917 1.36458 1.90104 1.25 2.14583 1.15625C2.32813 1.08333 2.60937 0.994792 3.11979 0.973958C3.66667 0.947916 3.83333 0.942708 5.23438 0.942708C6.63021 0.942708 6.79687 0.947916 7.34896 0.973958C7.85937 0.994792 8.13542 1.08333 8.31771 1.15625C8.5625 1.25 8.73958 1.36458 8.92188 1.54688C9.10417 1.72917 9.21875 1.90104 9.3125 2.14583C9.38542 2.33333 9.46875 2.60937 9.49479 3.11979C9.51562 3.67187 9.52604 3.83854 9.52604 5.23438C9.52604 6.63021 9.51562 6.79687 9.49479 7.34896ZM10.4323 3.07292C10.4062 2.52083 10.3229 2.14062 10.1927 1.80729C10.0573 1.45833 9.88021 1.17188 9.58854 0.880208C9.29688 0.588542 9.00521 0.40625 8.66146 0.276042C8.32813 0.145834 7.94792 0.0572927 7.39062 0.03125C6.83333 0.00520867 6.65625 0 5.23438 0C3.8125 0 3.63542 0.00520867 3.07292 0.03125C2.51563 0.0572927 2.13542 0.145834 1.80208 0.276042C1.45833 0.40625 1.16667 0.588542 0.875 0.880208C0.588541 1.17188 0.406249 1.45833 0.270833 1.80729C0.145833 2.14062 0.0572927 2.52083 0.03125 3.07292C0.00520867 3.63542 0 3.8125 0 5.23438C0 6.65625 0.00520867 6.83333 0.03125 7.39062C0.0572927 7.94792 0.145833 8.32813 0.270833 8.66146C0.406249 9.00521 0.588541 9.29688 0.875 9.58854C1.16667 9.88021 1.45833 10.0573 1.80208 10.1927C2.13542 10.3229 2.51563 10.4115 3.07292 10.4375C3.63542 10.4635 3.8125 10.4688 5.23438 10.4688C6.65625 10.4688 6.83333 10.4635 7.39062 10.4375C7.94792 10.4115 8.32813 10.3229 8.66146 10.1927C9.00521 10.0573 9.29688 9.88021 9.58854 9.58854C9.88021 9.29688 10.0573 9.00521 10.1927 8.66146C10.3229 8.32813 10.4062 7.94792 10.4323 7.39062C10.4583 6.83333 10.4688 6.65625 10.4688 5.23438C10.4688 3.8125 10.4583 3.63542 10.4323 3.07292Z" fill="white"/>
<path d="M5.23436 6.97917C4.26562 6.97917 3.48957 6.19792 3.48957 5.23438C3.48957 4.27083 4.26562 3.48958 5.23436 3.48958C6.19791 3.48958 6.97916 4.27083 6.97916 5.23438C6.97916 6.19792 6.19791 6.97917 5.23436 6.97917ZM5.23436 2.54688C3.74999 2.54688 2.54166 3.75 2.54166 5.23438C2.54166 6.71875 3.74999 7.92188 5.23436 7.92188C6.71874 7.92188 7.92186 6.71875 7.92186 5.23438C7.92186 3.75 6.71874 2.54688 5.23436 2.54688Z" fill="white"/>
</svg>
