<svg width="12" height="12" viewBox="0 0 12 12" fill="none" xmlns="http://www.w3.org/2000/svg">
<path fill-rule="evenodd" clip-rule="evenodd" d="M1.38542 0C0.546874 0 0 0.557292 0 1.29167C0 2.00521 0.531249 2.57812 1.35417 2.57812H1.36458C2.22396 2.57812 2.75521 2.00521 2.75521 1.29167C2.73958 0.557292 2.22396 0 1.38542 0ZM0.145833 9.82812C0.145833 10.5041 0.693818 11.0521 1.36979 11.0521C2.04577 11.0521 2.59375 10.5041 2.59375 9.82812V4.81771C2.59375 4.14174 2.04577 3.59375 1.36979 3.59375C0.693818 3.59375 0.145833 4.14174 0.145833 4.81771V9.82812ZM8.60417 3.42188C7.30208 3.42188 6.72396 4.14583 6.39583 4.65104V4.67188C6.39583 4.67475 6.3935 4.67708 6.39062 4.67708C6.38775 4.67708 6.38535 4.67469 6.38628 4.67197C6.38879 4.66465 6.39583 4.65961 6.39583 4.65104C6.39583 4.06712 5.92247 3.59375 5.33854 3.59375H5.19906C4.51725 3.59375 3.95866 4.1615 3.96059 4.84331C3.96456 6.24664 3.95797 8.45751 3.9529 9.82756C3.9504 10.5042 4.49809 11.0521 5.17471 11.0521C5.84912 11.0521 6.39583 10.5054 6.39583 9.83096V6.88542C6.39583 6.66667 6.41667 6.44271 6.47917 6.28125C6.65625 5.83854 7.05729 5.375 7.73958 5.375C8.625 5.375 8.97917 6.05729 8.97917 7.0625V9.82813C8.97917 10.5041 9.52715 11.0521 10.2031 11.0521C10.8791 11.0521 11.4271 10.5041 11.4271 9.82812V6.77604C11.4271 4.48438 10.224 3.42188 8.60417 3.42188Z" fill="white"/>
</svg>
