<svg width="78" height="48" viewBox="0 0 78 48" fill="none" xmlns="http://www.w3.org/2000/svg">
<path d="M51.1889 33.0777C50.9861 32.9543 50.8322 32.8604 50.7398 32.7905L50.079 32.2841L50.7543 31.7944C52.2553 30.7081 57.0696 26.5914 57.3032 18.4757H50.7706C49.6788 27.175 44.812 29.0235 40.8794 29.0235H40.2765V18.4757H34.0788V28.8228C34.0788 30.5498 32.6702 32.5861 29.8765 33.8012C32.6195 34.8396 34.0788 36.4212 34.0788 38.8551V47.9705H40.2765V35.1968H40.8794C46.9666 35.1968 51.4297 40.5324 51.6632 47.9705H58.6286C58.491 40.9908 55.9905 35.983 51.1889 33.0777Z" fill="white"/>
<path d="M27.7762 28.8247V18.5052H22.0384V27.2008L22.0203 28.9223L20.9467 27.558C18.7396 24.7558 16.154 22.5483 13.2607 20.9944C10.3004 19.4018 7.26045 18.5457 4.20961 18.4481L4.20599 18.8016V28.8247H4.20237C4.20237 30.5516 2.79373 32.5879 0 33.8031C2.74304 34.8415 4.20237 36.423 4.20237 38.857V48H10.5249V26.098L11.4411 26.6632C14.3942 28.4841 16.9344 31.2918 18.7903 34.7826C20.6805 38.3322 21.8049 42.4913 22.0403 46.8456V47.9356H27.778V38.857C27.778 36.423 29.2373 34.8433 31.9804 33.8031C29.1866 32.5879 27.778 30.5516 27.778 28.8247" fill="white"/>
<path d="M70.276 10.7154C70.2308 11.1407 70.0298 11.704 69.512 11.7777C69.512 11.7777 69.3671 12.5031 68.4673 12.5546C68.1721 12.6025 68.0309 12.8032 67.9766 12.9081C67.9223 12.8032 67.7811 12.6025 67.4859 12.5546C66.5861 12.5031 66.4412 11.7777 66.4412 11.7777C65.9234 11.704 65.7224 11.1407 65.6772 10.7154C65.6319 10.43 65.4508 10.2864 65.3458 10.2256C65.4527 10.1649 65.6337 10.0194 65.6772 9.73587C65.7224 9.31057 65.9234 8.74719 66.4412 8.67354C66.4412 8.67354 66.5861 7.94814 67.4859 7.89659C67.7793 7.84872 67.9223 7.64804 67.9766 7.54309C68.0309 7.6462 68.1721 7.84872 68.4673 7.89659C69.3671 7.94814 69.512 8.67354 69.512 8.67354C70.0298 8.74719 70.2308 9.31057 70.276 9.73587C70.3213 10.0194 70.5024 10.1649 70.6074 10.2256C70.5006 10.2864 70.3195 10.43 70.276 10.7154Z" fill="#F16F21"/>
<path d="M76.7362 8.36055C76.5624 6.74036 75.8001 4.58993 73.8266 4.30823C73.8266 4.30823 73.2744 1.54102 69.8451 1.3477C68.7244 1.16727 68.1848 0.395842 67.9766 0C67.7702 0.395842 67.2306 1.16727 66.1099 1.3477C62.6788 1.54102 62.1284 4.30823 62.1284 4.30823C60.1531 4.58993 59.3908 6.74036 59.2188 8.36055C59.0486 9.44314 58.357 9.99179 57.955 10.2256C58.357 10.4576 59.0486 11.0081 59.2188 12.0907C59.3908 13.7109 60.1531 15.8613 62.1284 16.1412C62.1284 16.1412 62.6806 18.9084 66.1099 19.1017C67.2306 19.284 67.7684 20.0535 67.9766 20.4494C68.1848 20.0535 68.7226 19.284 69.8451 19.1017C73.2744 18.9084 73.8266 16.1412 73.8266 16.1412C75.802 15.8595 76.5642 13.7109 76.7362 12.0907C76.9064 11.0081 77.598 10.4594 78 10.2256C77.598 9.99179 76.9046 9.44314 76.7362 8.36055ZM73.45 11.391C73.3414 12.4037 72.8652 13.7458 71.6322 13.9226C71.6322 13.9226 71.2864 15.6514 69.1444 15.7729C68.4437 15.8852 68.107 16.3676 67.9784 16.6143C67.8481 16.3676 67.5131 15.8852 66.8124 15.7729C64.6705 15.6514 64.3247 13.9226 64.3247 13.9226C63.0898 13.7458 62.6137 12.4037 62.5068 11.391C62.4 10.7154 61.9691 10.3729 61.7174 10.2256C61.9691 10.0802 62.4018 9.73772 62.5068 9.06018C62.6155 8.04756 63.0916 6.70538 64.3247 6.52863C64.3247 6.52863 64.6687 4.79982 66.8124 4.6783C67.5131 4.56599 67.8499 4.08362 67.9784 3.83691C68.1088 4.08362 68.4437 4.56599 69.1444 4.6783C71.2864 4.79982 71.6322 6.52863 71.6322 6.52863C72.867 6.70538 73.3432 8.04756 73.45 9.06018C73.5568 9.73587 73.9877 10.0783 74.2394 10.2256C73.9877 10.3711 73.555 10.7135 73.45 11.391Z" fill="white"/>
<path d="M73.45 9.06018C73.3414 8.04756 72.8652 6.70538 71.6322 6.53047C71.6322 6.53047 71.2864 4.80166 69.1444 4.68014C68.4437 4.56783 68.107 4.08546 67.9766 3.83875C67.8481 4.08546 67.5113 4.56783 66.8106 4.68014C64.6687 4.80166 64.3228 6.53047 64.3228 6.53047C63.0898 6.70538 62.6118 8.0494 62.505 9.06018C62.3982 9.73588 61.9673 10.0802 61.7138 10.2256C61.9655 10.3711 62.3982 10.7135 62.505 11.391C62.6137 12.4037 63.0898 13.7458 64.3228 13.9208C64.3228 13.9208 64.6687 15.6496 66.8106 15.7711C67.5113 15.8834 67.8481 16.3639 67.9766 16.6125C68.107 16.3639 68.4437 15.8834 69.1444 15.7711C71.2864 15.6496 71.6322 13.9208 71.6322 13.9208C72.8652 13.7458 73.3414 12.4018 73.45 11.391C73.5568 10.7135 73.9877 10.3711 74.2394 10.2256C73.9877 10.0802 73.555 9.73772 73.45 9.06018ZM71.873 11.056C71.7951 11.7758 71.4566 12.7314 70.5784 12.8584C70.5784 12.8584 70.3322 14.0883 68.8077 14.1748C68.3098 14.2558 68.0689 14.5983 67.9766 14.7732C67.8843 14.5964 67.6453 14.254 67.1455 14.1748C65.621 14.0883 65.3748 12.8584 65.3748 12.8584C64.4967 12.7332 64.1581 11.7777 64.0802 11.056C64.006 10.5736 63.6964 10.3306 63.5171 10.2256C63.6964 10.1225 64.0042 9.87764 64.0802 9.39711C64.1581 8.67723 64.4967 7.71984 65.3748 7.59465C65.3748 7.59465 65.621 6.36477 67.1455 6.27824C67.6453 6.19723 67.8843 5.85478 67.9766 5.67803C68.0689 5.85478 68.3098 6.19723 68.8077 6.27824C70.334 6.36477 70.5784 7.59465 70.5784 7.59465C71.4566 7.71984 71.7951 8.67539 71.873 9.39711C71.9472 9.87948 72.2568 10.1225 72.4343 10.2256C72.255 10.3287 71.9472 10.5736 71.873 11.056Z" fill="#00A6AB"/>
<path d="M70.276 9.73587C70.2308 9.31057 70.0298 8.74719 69.512 8.67354C69.512 8.67354 69.3671 7.94814 68.4673 7.89659C68.1721 7.84872 68.0309 7.64804 67.9766 7.54309C67.9223 7.6462 67.7811 7.84872 67.4859 7.89659C66.5861 7.94814 66.4412 8.67354 66.4412 8.67354C65.9234 8.74719 65.7224 9.31057 65.6772 9.73587C65.6319 10.0194 65.4508 10.1649 65.3458 10.2256C65.4527 10.2864 65.6337 10.4318 65.6772 10.7154C65.7224 11.1407 65.9234 11.704 66.4412 11.7777C66.4412 11.7777 66.5861 12.5031 67.4859 12.5546C67.7793 12.6025 67.9223 12.8032 67.9766 12.9081C68.0309 12.8032 68.1721 12.6025 68.4673 12.5546C69.3671 12.5031 69.512 11.7777 69.512 11.7777C70.0298 11.704 70.2308 11.1407 70.276 10.7154C70.3213 10.4318 70.5024 10.2864 70.6074 10.2256C70.5006 10.1649 70.3195 10.0194 70.276 9.73587Z" fill="#F16F21"/>
</svg>
