<svg width="111" height="590" viewBox="0 0 111 590" fill="none" xmlns="http://www.w3.org/2000/svg">
<path d="M20.1103 317.268L20.1103 328.644L8.74999 328.644L8.74999 317.268L20.1103 317.268Z" fill="#50B748" fill-opacity="0.6"/>
<path d="M20.1103 351.398L20.1103 362.774L8.74999 362.774L8.74999 351.398L20.1103 351.398Z" fill="#50B748" fill-opacity="0.6"/>
<path d="M-2.6103 317.268L-2.6103 328.644L-25.3309 328.644L-25.3309 317.268L-2.6103 317.268Z" fill="#50B748" fill-opacity="0.6"/>
<path d="M54.1911 317.268L54.1911 328.644L31.4706 328.644L31.4706 317.268L54.1911 317.268Z" fill="#50B748" fill-opacity="0.6"/>
<path d="M42.8308 305.891L42.8308 317.268L20.1103 317.268L20.1103 305.891L42.8308 305.891Z" fill="#50B748" fill-opacity="0.6"/>
<path d="M8.74999 305.891L8.74999 317.268L-13.9706 317.268L-13.9706 305.891L8.74999 305.891Z" fill="#50B748" fill-opacity="0.6"/>
<path d="M42.8308 328.644L42.8308 340.021L20.1103 340.021L20.1103 328.644L42.8308 328.644Z" fill="#50B748" fill-opacity="0.6"/>
<path d="M8.74999 328.644L8.74999 340.021L-13.9706 340.021L-13.9706 328.644L8.74999 328.644Z" fill="#50B748" fill-opacity="0.6"/>
<path d="M31.4705 340.021L31.4705 351.398L-2.61031 351.398L-2.61031 340.021L31.4705 340.021Z" fill="#50B748" fill-opacity="0.6"/>
<path d="M20.1103 283.13L20.1103 294.507L8.74999 294.507L8.75 283.13L20.1103 283.13Z" fill="#50B748" fill-opacity="0.6"/>
<path d="M31.4705 294.514L31.4705 305.891L-2.6103 305.891L-2.6103 294.514L31.4705 294.514Z" fill="#50B748" fill-opacity="0.6"/>
<path d="M20.1103 203.651L20.1103 215.028L8.75 215.028L8.75 203.651L20.1103 203.651Z" fill="#50B748" fill-opacity="0.6"/>
<path d="M20.1103 237.781L20.1103 249.157L8.75 249.157L8.75 237.781L20.1103 237.781Z" fill="#50B748" fill-opacity="0.6"/>
<path d="M-2.61029 203.651L-2.61029 215.028L-25.3309 215.028L-25.3309 203.651L-2.61029 203.651Z" fill="#50B748" fill-opacity="0.6"/>
<path d="M54.1911 203.651L54.1911 215.028L31.4706 215.028L31.4706 203.651L54.1911 203.651Z" fill="#50B748" fill-opacity="0.6"/>
<path d="M42.8308 192.274L42.8308 203.651L20.1103 203.651L20.1103 192.274L42.8308 192.274Z" fill="#50B748" fill-opacity="0.6"/>
<path d="M8.74999 192.274L8.75 203.651L-13.9706 203.651L-13.9706 192.274L8.74999 192.274Z" fill="#50B748" fill-opacity="0.6"/>
<path d="M42.8308 215.028L42.8308 226.404L20.1103 226.404L20.1103 215.028L42.8308 215.028Z" fill="#50B748" fill-opacity="0.6"/>
<path d="M8.75 215.028L8.74999 226.404L-13.9706 226.404L-13.9706 215.028L8.75 215.028Z" fill="#50B748" fill-opacity="0.6"/>
<path d="M31.4705 226.412L31.4705 237.788L-2.6103 237.788L-2.6103 226.412L31.4705 226.412Z" fill="#50B748" fill-opacity="0.6"/>
<path d="M20.1103 169.521L20.1103 180.898L8.75 180.898L8.75 169.521L20.1103 169.521Z" fill="#50B748" fill-opacity="0.6"/>
<path d="M31.4706 180.898L31.4705 192.274L-2.6103 192.274L-2.6103 180.898L31.4706 180.898Z" fill="#50B748" fill-opacity="0.6"/>
<path d="M20.1103 430.877L20.1103 442.254L8.74999 442.254L8.74999 430.877L20.1103 430.877Z" fill="#50B748" fill-opacity="0.6"/>
<path d="M20.1103 465.007L20.1103 476.383L8.74999 476.383L8.74999 465.007L20.1103 465.007Z" fill="#50B748" fill-opacity="0.6"/>
<path d="M-2.6103 430.877L-2.6103 442.254L-25.3309 442.254L-25.3309 430.877L-2.6103 430.877Z" fill="#50B748" fill-opacity="0.6"/>
<path d="M54.1911 430.877L54.1911 442.254L31.4705 442.254L31.4705 430.877L54.1911 430.877Z" fill="#50B748" fill-opacity="0.6"/>
<path d="M42.8308 419.5L42.8308 430.877L20.1103 430.877L20.1103 419.5L42.8308 419.5Z" fill="#50B748" fill-opacity="0.6"/>
<path d="M8.74998 419.5L8.74999 430.877L-13.9706 430.877L-13.9706 419.5L8.74998 419.5Z" fill="#50B748" fill-opacity="0.6"/>
<path d="M42.8308 442.254L42.8308 453.63L20.1103 453.63L20.1103 442.254L42.8308 442.254Z" fill="#50B748" fill-opacity="0.6"/>
<path d="M8.74999 442.254L8.74998 453.63L-13.9706 453.63L-13.9706 442.254L8.74999 442.254Z" fill="#50B748" fill-opacity="0.6"/>
<path d="M31.4705 453.63L31.4705 465.007L-2.61031 465.007L-2.61031 453.63L31.4705 453.63Z" fill="#50B748" fill-opacity="0.6"/>
<path d="M20.1103 396.747L20.1103 408.124L8.74999 408.124L8.74999 396.747L20.1103 396.747Z" fill="#50B748" fill-opacity="0.6"/>
<path d="M31.4705 408.124L31.4705 419.5L-2.61031 419.5L-2.61031 408.124L31.4705 408.124Z" fill="#50B748" fill-opacity="0.6"/>
<path d="M20.1103 544.494L20.1103 555.87L8.74998 555.87L8.74998 544.494L20.1103 544.494Z" fill="#50B748" fill-opacity="0.6"/>
<path d="M20.1103 578.623L20.1103 590L8.74998 590L8.74998 578.623L20.1103 578.623Z" fill="#50B748" fill-opacity="0.6"/>
<path d="M-2.61031 544.494L-2.61031 555.87L-25.3309 555.87L-25.3309 544.494L-2.61031 544.494Z" fill="#50B748" fill-opacity="0.6"/>
<path d="M54.1911 544.494L54.1911 555.87L31.4705 555.87L31.4705 544.494L54.1911 544.494Z" fill="#50B748" fill-opacity="0.6"/>
<path d="M42.8308 533.109L42.8308 544.486L20.1103 544.486L20.1103 533.109L42.8308 533.109Z" fill="#50B748" fill-opacity="0.6"/>
<path d="M8.74998 533.109L8.74998 544.486L-13.9706 544.486L-13.9706 533.109L8.74998 533.109Z" fill="#50B748" fill-opacity="0.6"/>
<path d="M42.8308 555.87L42.8308 567.247L20.1103 567.247L20.1103 555.87L42.8308 555.87Z" fill="#50B748" fill-opacity="0.6"/>
<path d="M8.74998 555.87L8.74998 567.247L-13.9706 567.247L-13.9706 555.87L8.74998 555.87Z" fill="#50B748" fill-opacity="0.6"/>
<path d="M31.4705 567.247L31.4705 578.623L-2.61032 578.623L-2.61032 567.247L31.4705 567.247Z" fill="#50B748" fill-opacity="0.6"/>
<path d="M20.1103 510.364L20.1103 521.74L8.74998 521.74L8.74999 510.364L20.1103 510.364Z" fill="#50B748" fill-opacity="0.6"/>
<path d="M31.4705 521.733L31.4705 533.109L-2.61031 533.109L-2.61031 521.733L31.4705 521.733Z" fill="#50B748" fill-opacity="0.6"/>
<path d="M-36.6986 374.076L-36.6986 385.453L-48.0589 385.453L-48.0589 374.076L-36.6986 374.076Z" fill="#50B748" fill-opacity="0.6"/>
<path d="M-36.6986 408.206L-36.6986 419.582L-48.0589 419.582L-48.0589 408.206L-36.6986 408.206Z" fill="#50B748" fill-opacity="0.6"/>
<path d="M-59.4192 374.076L-59.4192 385.453L-82.1397 385.453L-82.1397 374.076L-59.4192 374.076Z" fill="#50B748" fill-opacity="0.6"/>
<path d="M-2.6103 374.076L-2.6103 385.453L-25.3309 385.453L-25.3309 374.076L-2.6103 374.076Z" fill="#50B748" fill-opacity="0.6"/>
<path d="M-13.9706 362.692L-13.9706 374.069L-36.6911 374.069L-36.6911 362.692L-13.9706 362.692Z" fill="#50B748" fill-opacity="0.6"/>
<path d="M-48.0589 362.692L-48.0589 374.069L-70.7795 374.069L-70.7795 362.692L-48.0589 362.692Z" fill="#50B748" fill-opacity="0.6"/>
<path d="M-13.9706 385.453L-13.9706 396.829L-36.6911 396.829L-36.6911 385.453L-13.9706 385.453Z" fill="#50B748" fill-opacity="0.6"/>
<path d="M-48.0589 385.453L-48.0589 396.829L-70.7795 396.829L-70.7795 385.453L-48.0589 385.453Z" fill="#50B748" fill-opacity="0.6"/>
<path d="M-25.3383 396.829L-25.3383 408.206L-59.4192 408.206L-59.4192 396.829L-25.3383 396.829Z" fill="#50B748" fill-opacity="0.6"/>
<path d="M-36.6986 339.939L-36.6986 351.315L-48.0589 351.315L-48.0589 339.939L-36.6986 339.939Z" fill="#50B748" fill-opacity="0.6"/>
<path d="M-25.3383 351.315L-25.3383 362.692L-59.4192 362.692L-59.4192 351.315L-25.3383 351.315Z" fill="#50B748" fill-opacity="0.6"/>
<path d="M-36.6986 260.459L-36.6986 271.836L-48.0589 271.836L-48.0589 260.459L-36.6986 260.459Z" fill="#50B748" fill-opacity="0.6"/>
<path d="M-36.6986 294.589L-36.6986 305.966L-48.0589 305.966L-48.0589 294.589L-36.6986 294.589Z" fill="#50B748" fill-opacity="0.6"/>
<path d="M-59.4192 260.459L-59.4192 271.836L-82.1397 271.836L-82.1397 260.459L-59.4192 260.459Z" fill="#50B748" fill-opacity="0.6"/>
<path d="M-2.61029 260.459L-2.61029 271.836L-25.3309 271.836L-25.3309 260.459L-2.61029 260.459Z" fill="#50B748" fill-opacity="0.6"/>
<path d="M-13.9706 249.083L-13.9706 260.459L-36.6911 260.459L-36.6911 249.083L-13.9706 249.083Z" fill="#50B748" fill-opacity="0.6"/>
<path d="M-48.0589 249.083L-48.0589 260.459L-70.7795 260.459L-70.7795 249.083L-48.0589 249.083Z" fill="#50B748" fill-opacity="0.6"/>
<path d="M-13.9706 271.836L-13.9706 283.213L-36.6911 283.213L-36.6911 271.836L-13.9706 271.836Z" fill="#50B748" fill-opacity="0.6"/>
<path d="M-48.0589 271.836L-48.0589 283.213L-70.7795 283.213L-70.7795 271.836L-48.0589 271.836Z" fill="#50B748" fill-opacity="0.6"/>
<path d="M-25.3383 283.213L-25.3383 294.589L-59.4192 294.589L-59.4192 283.213L-25.3383 283.213Z" fill="#50B748" fill-opacity="0.6"/>
<path d="M-36.6986 226.33L-36.6986 237.706L-48.0589 237.706L-48.0589 226.33L-36.6986 226.33Z" fill="#50B748" fill-opacity="0.6"/>
<path d="M-25.3383 237.706L-25.3383 249.083L-59.4192 249.083L-59.4192 237.706L-25.3383 237.706Z" fill="#50B748" fill-opacity="0.6"/>
<path d="M-36.6986 487.685L-36.6986 499.062L-48.0589 499.062L-48.0589 487.685L-36.6986 487.685Z" fill="#50B748" fill-opacity="0.6"/>
<path d="M-36.6986 521.815L-36.6986 533.192L-48.0589 533.192L-48.0589 521.815L-36.6986 521.815Z" fill="#50B748" fill-opacity="0.6"/>
<path d="M-59.4192 487.685L-59.4192 499.062L-82.1397 499.062L-82.1397 487.685L-59.4192 487.685Z" fill="#50B748" fill-opacity="0.6"/>
<path d="M-2.6103 487.685L-2.6103 499.062L-25.3309 499.062L-25.3309 487.685L-2.6103 487.685Z" fill="#50B748" fill-opacity="0.6"/>
<path d="M-13.9706 476.309L-13.9706 487.685L-36.6912 487.685L-36.6912 476.309L-13.9706 476.309Z" fill="#50B748" fill-opacity="0.6"/>
<path d="M-48.0589 476.309L-48.0589 487.685L-70.7795 487.685L-70.7795 476.309L-48.0589 476.309Z" fill="#50B748" fill-opacity="0.6"/>
<path d="M-13.9706 499.062L-13.9706 510.438L-36.6912 510.438L-36.6912 499.062L-13.9706 499.062Z" fill="#50B748" fill-opacity="0.6"/>
<path d="M-48.0589 499.062L-48.0589 510.438L-70.7795 510.438L-70.7795 499.062L-48.0589 499.062Z" fill="#50B748" fill-opacity="0.6"/>
<path d="M-25.3383 510.438L-25.3383 521.815L-59.4192 521.815L-59.4192 510.438L-25.3383 510.438Z" fill="#50B748" fill-opacity="0.6"/>
<path d="M-36.6986 453.555L-36.6986 464.932L-48.0589 464.932L-48.0589 453.555L-36.6986 453.555Z" fill="#50B748" fill-opacity="0.6"/>
<path d="M-25.3383 464.932L-25.3383 476.309L-59.4192 476.309L-59.4192 464.932L-25.3383 464.932Z" fill="#50B748" fill-opacity="0.6"/>
<path d="M-93.5 317.268L-93.5 328.644L-104.86 328.644L-104.86 317.268L-93.5 317.268Z" fill="#50B748" fill-opacity="0.6"/>
<path d="M-93.5 351.398L-93.5 362.774L-104.86 362.774L-104.86 351.398L-93.5 351.398Z" fill="#50B748" fill-opacity="0.6"/>
<path d="M-116.221 317.268L-116.221 328.644L-138.941 328.644L-138.941 317.268L-116.221 317.268Z" fill="#50B748" fill-opacity="0.6"/>
<path d="M-59.4192 317.268L-59.4192 328.644L-82.1397 328.644L-82.1397 317.268L-59.4192 317.268Z" fill="#50B748" fill-opacity="0.6"/>
<path d="M-70.7794 305.891L-70.7794 317.268L-93.5 317.268L-93.5 305.891L-70.7794 305.891Z" fill="#50B748" fill-opacity="0.6"/>
<path d="M-104.86 305.891L-104.86 317.268L-127.581 317.268L-127.581 305.891L-104.86 305.891Z" fill="#50B748" fill-opacity="0.6"/>
<path d="M-70.7794 328.644L-70.7794 340.021L-93.5 340.021L-93.5 328.644L-70.7794 328.644Z" fill="#50B748" fill-opacity="0.6"/>
<path d="M-104.86 328.644L-104.86 340.021L-127.581 340.021L-127.581 328.644L-104.86 328.644Z" fill="#50B748" fill-opacity="0.6"/>
<path d="M-82.1397 340.021L-82.1397 351.398L-116.221 351.398L-116.221 340.021L-82.1397 340.021Z" fill="#50B748" fill-opacity="0.6"/>
<path d="M-93.5 283.13L-93.5 294.507L-104.86 294.507L-104.86 283.13L-93.5 283.13Z" fill="#50B748" fill-opacity="0.6"/>
<path d="M-82.1397 294.514L-82.1397 305.891L-116.221 305.891L-116.221 294.514L-82.1397 294.514Z" fill="#50B748" fill-opacity="0.6"/>
<path d="M-93.5 203.651L-93.5 215.028L-104.86 215.028L-104.86 203.651L-93.5 203.651Z" fill="#50B748" fill-opacity="0.6"/>
<path d="M-93.5 237.781L-93.5 249.157L-104.86 249.157L-104.86 237.781L-93.5 237.781Z" fill="#50B748" fill-opacity="0.6"/>
<path d="M-116.221 203.651L-116.221 215.028L-138.941 215.028L-138.941 203.651L-116.221 203.651Z" fill="#50B748" fill-opacity="0.6"/>
<path d="M-59.4192 203.651L-59.4192 215.028L-82.1397 215.028L-82.1397 203.651L-59.4192 203.651Z" fill="#50B748" fill-opacity="0.6"/>
<path d="M-70.7794 192.274L-70.7794 203.651L-93.5 203.651L-93.5 192.274L-70.7794 192.274Z" fill="#50B748" fill-opacity="0.6"/>
<path d="M-104.86 192.274L-104.86 203.651L-127.581 203.651L-127.581 192.274L-104.86 192.274Z" fill="#50B748" fill-opacity="0.6"/>
<path d="M-70.7794 215.028L-70.7794 226.404L-93.5 226.404L-93.5 215.028L-70.7794 215.028Z" fill="#50B748" fill-opacity="0.6"/>
<path d="M-104.86 215.028L-104.86 226.404L-127.581 226.404L-127.581 215.028L-104.86 215.028Z" fill="#50B748" fill-opacity="0.6"/>
<path d="M-82.1397 226.412L-82.1397 237.788L-116.221 237.788L-116.221 226.412L-82.1397 226.412Z" fill="#50B748" fill-opacity="0.6"/>
<path d="M-93.5 169.521L-93.5 180.898L-104.86 180.898L-104.86 169.521L-93.5 169.521Z" fill="#50B748" fill-opacity="0.6"/>
<path d="M-82.1397 180.898L-82.1397 192.274L-116.221 192.274L-116.221 180.898L-82.1397 180.898Z" fill="#50B748" fill-opacity="0.6"/>
<path d="M-93.5 430.877L-93.5 442.254L-104.86 442.254L-104.86 430.877L-93.5 430.877Z" fill="#50B748" fill-opacity="0.6"/>
<path d="M-93.5 465.007L-93.5 476.383L-104.86 476.383L-104.86 465.007L-93.5 465.007Z" fill="#50B748" fill-opacity="0.6"/>
<path d="M-116.221 430.877L-116.221 442.253L-138.941 442.253L-138.941 430.877L-116.221 430.877Z" fill="#50B748" fill-opacity="0.6"/>
<path d="M-59.4192 430.877L-59.4192 442.254L-82.1397 442.254L-82.1397 430.877L-59.4192 430.877Z" fill="#50B748" fill-opacity="0.6"/>
<path d="M-70.7794 419.5L-70.7794 430.877L-93.5 430.877L-93.5 419.5L-70.7794 419.5Z" fill="#50B748" fill-opacity="0.6"/>
<path d="M-104.86 419.5L-104.86 430.877L-127.581 430.877L-127.581 419.5L-104.86 419.5Z" fill="#50B748" fill-opacity="0.6"/>
<path d="M-70.7794 442.254L-70.7794 453.63L-93.5 453.63L-93.5 442.254L-70.7794 442.254Z" fill="#50B748" fill-opacity="0.6"/>
<path d="M-104.86 442.254L-104.86 453.63L-127.581 453.63L-127.581 442.254L-104.86 442.254Z" fill="#50B748" fill-opacity="0.6"/>
<path d="M-82.1397 453.63L-82.1397 465.007L-116.221 465.007L-116.221 453.63L-82.1397 453.63Z" fill="#50B748" fill-opacity="0.6"/>
<path d="M-93.5 396.747L-93.5 408.124L-104.86 408.124L-104.86 396.747L-93.5 396.747Z" fill="#50B748" fill-opacity="0.6"/>
<path d="M-82.1397 408.124L-82.1397 419.5L-116.221 419.5L-116.221 408.124L-82.1397 408.124Z" fill="#50B748" fill-opacity="0.6"/>
<path d="M-93.5 544.494L-93.5 555.87L-104.86 555.87L-104.86 544.494L-93.5 544.494Z" fill="#50B748" fill-opacity="0.6"/>
<path d="M-93.5 578.623L-93.5 590L-104.86 590L-104.86 578.623L-93.5 578.623Z" fill="#50B748" fill-opacity="0.6"/>
<path d="M-116.221 544.494L-116.221 555.87L-138.941 555.87L-138.941 544.494L-116.221 544.494Z" fill="#50B748" fill-opacity="0.6"/>
<path d="M-59.4192 544.494L-59.4192 555.87L-82.1397 555.87L-82.1397 544.494L-59.4192 544.494Z" fill="#50B748" fill-opacity="0.6"/>
<path d="M-70.7794 533.109L-70.7794 544.486L-93.5 544.486L-93.5 533.109L-70.7794 533.109Z" fill="#50B748" fill-opacity="0.6"/>
<path d="M-104.86 533.109L-104.86 544.486L-127.581 544.486L-127.581 533.109L-104.86 533.109Z" fill="#50B748" fill-opacity="0.6"/>
<path d="M-70.7794 555.87L-70.7794 567.247L-93.5 567.247L-93.5 555.87L-70.7794 555.87Z" fill="#50B748" fill-opacity="0.6"/>
<path d="M-104.86 555.87L-104.86 567.247L-127.581 567.247L-127.581 555.87L-104.86 555.87Z" fill="#50B748" fill-opacity="0.6"/>
<path d="M-82.1397 567.247L-82.1397 578.623L-116.221 578.623L-116.221 567.247L-82.1397 567.247Z" fill="#50B748" fill-opacity="0.6"/>
<path d="M-93.5 510.364L-93.5 521.74L-104.86 521.74L-104.86 510.364L-93.5 510.364Z" fill="#50B748" fill-opacity="0.6"/>
<path d="M-82.1397 521.733L-82.1397 533.109L-116.221 533.109L-116.221 521.733L-82.1397 521.733Z" fill="#50B748" fill-opacity="0.6"/>
<path d="M-150.309 487.685L-150.309 499.062L-161.669 499.062L-161.669 487.685L-150.309 487.685Z" fill="#50B748" fill-opacity="0.6"/>
<path d="M-150.309 521.815L-150.309 533.192L-161.669 533.192L-161.669 521.815L-150.309 521.815Z" fill="#50B748" fill-opacity="0.6"/>
<path d="M-173.029 487.685L-173.029 499.062L-195.75 499.062L-195.75 487.685L-173.029 487.685Z" fill="#50B748" fill-opacity="0.6"/>
<path d="M-116.221 487.685L-116.221 499.062L-138.941 499.062L-138.941 487.685L-116.221 487.685Z" fill="#50B748" fill-opacity="0.6"/>
<path d="M-127.581 476.309L-127.581 487.685L-150.301 487.685L-150.301 476.309L-127.581 476.309Z" fill="#50B748" fill-opacity="0.6"/>
<path d="M-161.669 476.309L-161.669 487.685L-184.39 487.685L-184.39 476.309L-161.669 476.309Z" fill="#50B748" fill-opacity="0.6"/>
<path d="M-127.581 499.062L-127.581 510.438L-150.301 510.438L-150.301 499.062L-127.581 499.062Z" fill="#50B748" fill-opacity="0.6"/>
<path d="M-161.669 499.062L-161.669 510.438L-184.39 510.438L-184.39 499.062L-161.669 499.062Z" fill="#50B748" fill-opacity="0.6"/>
<path d="M-138.949 510.438L-138.949 521.815L-173.029 521.815L-173.029 510.438L-138.949 510.438Z" fill="#50B748" fill-opacity="0.6"/>
<path d="M-150.309 453.555L-150.309 464.932L-161.669 464.932L-161.669 453.555L-150.309 453.555Z" fill="#50B748" fill-opacity="0.6"/>
<path d="M-138.949 464.932L-138.949 476.309L-173.029 476.309L-173.029 464.932L-138.949 464.932Z" fill="#50B748" fill-opacity="0.6"/>
<path d="M-207.11 317.268L-207.11 328.644L-218.471 328.644L-218.471 317.268L-207.11 317.268Z" fill="#50B748" fill-opacity="0.6"/>
<path d="M-207.11 351.398L-207.11 362.774L-218.471 362.774L-218.471 351.398L-207.11 351.398Z" fill="#50B748" fill-opacity="0.6"/>
<path d="M-229.838 317.268L-229.838 328.644L-252.559 328.644L-252.559 317.268L-229.838 317.268Z" fill="#50B748" fill-opacity="0.6"/>
<path d="M-173.029 317.268L-173.029 328.644L-195.75 328.644L-195.75 317.268L-173.029 317.268Z" fill="#50B748" fill-opacity="0.6"/>
<path d="M-184.39 305.891L-184.39 317.268L-207.11 317.268L-207.11 305.891L-184.39 305.891Z" fill="#50B748" fill-opacity="0.6"/>
<path d="M-218.471 305.891L-218.471 317.268L-241.191 317.268L-241.191 305.891L-218.471 305.891Z" fill="#50B748" fill-opacity="0.6"/>
<path d="M-184.39 328.644L-184.39 340.021L-207.11 340.021L-207.11 328.644L-184.39 328.644Z" fill="#50B748" fill-opacity="0.6"/>
<path d="M-218.471 328.644L-218.471 340.021L-241.191 340.021L-241.191 328.644L-218.471 328.644Z" fill="#50B748" fill-opacity="0.6"/>
<path d="M-195.75 340.021L-195.75 351.398L-229.831 351.398L-229.831 340.021L-195.75 340.021Z" fill="#50B748" fill-opacity="0.6"/>
<path d="M-207.11 283.13L-207.11 294.507L-218.471 294.507L-218.471 283.13L-207.11 283.13Z" fill="#50B748" fill-opacity="0.6"/>
<path d="M-195.75 294.514L-195.75 305.891L-229.831 305.891L-229.831 294.514L-195.75 294.514Z" fill="#50B748" fill-opacity="0.6"/>
<path d="M-207.11 203.651L-207.11 215.028L-218.471 215.028L-218.471 203.651L-207.11 203.651Z" fill="#50B748" fill-opacity="0.6"/>
<path d="M-207.11 237.781L-207.11 249.157L-218.471 249.157L-218.471 237.781L-207.11 237.781Z" fill="#50B748" fill-opacity="0.6"/>
<path d="M-229.838 203.651L-229.838 215.028L-252.559 215.028L-252.559 203.651L-229.838 203.651Z" fill="#50B748" fill-opacity="0.6"/>
<path d="M-173.029 203.651L-173.029 215.028L-195.75 215.028L-195.75 203.651L-173.029 203.651Z" fill="#50B748" fill-opacity="0.6"/>
<path d="M-184.39 192.274L-184.39 203.651L-207.11 203.651L-207.11 192.274L-184.39 192.274Z" fill="#50B748" fill-opacity="0.6"/>
<path d="M-218.471 192.274L-218.471 203.651L-241.191 203.651L-241.191 192.274L-218.471 192.274Z" fill="#50B748" fill-opacity="0.6"/>
<path d="M-184.39 215.028L-184.39 226.404L-207.11 226.404L-207.11 215.028L-184.39 215.028Z" fill="#50B748" fill-opacity="0.6"/>
<path d="M-218.471 215.028L-218.471 226.404L-241.191 226.404L-241.191 215.028L-218.471 215.028Z" fill="#50B748" fill-opacity="0.6"/>
<path d="M-195.75 226.412L-195.75 237.788L-229.831 237.788L-229.831 226.412L-195.75 226.412Z" fill="#50B748" fill-opacity="0.6"/>
<path d="M-207.11 169.521L-207.11 180.898L-218.471 180.898L-218.471 169.521L-207.11 169.521Z" fill="#50B748" fill-opacity="0.6"/>
<path d="M-195.75 180.898L-195.75 192.274L-229.831 192.274L-229.831 180.898L-195.75 180.898Z" fill="#50B748" fill-opacity="0.6"/>
<path d="M-207.11 430.877L-207.11 442.253L-218.471 442.253L-218.471 430.877L-207.11 430.877Z" fill="#50B748" fill-opacity="0.6"/>
<path d="M-207.11 465.007L-207.11 476.383L-218.471 476.383L-218.471 465.007L-207.11 465.007Z" fill="#50B748" fill-opacity="0.6"/>
<path d="M-229.838 430.877L-229.838 442.253L-252.559 442.253L-252.559 430.877L-229.838 430.877Z" fill="#50B748" fill-opacity="0.6"/>
<path d="M-173.029 430.877L-173.029 442.253L-195.75 442.253L-195.75 430.877L-173.029 430.877Z" fill="#50B748" fill-opacity="0.6"/>
<path d="M-184.39 419.5L-184.39 430.877L-207.11 430.877L-207.11 419.5L-184.39 419.5Z" fill="#50B748" fill-opacity="0.6"/>
<path d="M-218.471 419.5L-218.471 430.877L-241.191 430.877L-241.191 419.5L-218.471 419.5Z" fill="#50B748" fill-opacity="0.6"/>
<path d="M-184.39 442.254L-184.39 453.63L-207.11 453.63L-207.11 442.253L-184.39 442.254Z" fill="#50B748" fill-opacity="0.6"/>
<path d="M-218.471 442.253L-218.471 453.63L-241.191 453.63L-241.191 442.254L-218.471 442.253Z" fill="#50B748" fill-opacity="0.6"/>
<path d="M-195.75 453.63L-195.75 465.007L-229.831 465.007L-229.831 453.63L-195.75 453.63Z" fill="#50B748" fill-opacity="0.6"/>
<path d="M-207.11 396.747L-207.11 408.124L-218.471 408.124L-218.471 396.747L-207.11 396.747Z" fill="#50B748" fill-opacity="0.6"/>
<path d="M-195.75 408.124L-195.75 419.5L-229.831 419.5L-229.831 408.124L-195.75 408.124Z" fill="#50B748" fill-opacity="0.6"/>
<path d="M-207.11 544.494L-207.11 555.87L-218.471 555.87L-218.471 544.494L-207.11 544.494Z" fill="#50B748" fill-opacity="0.6"/>
<path d="M-207.11 578.623L-207.11 590L-218.471 590L-218.471 578.623L-207.11 578.623Z" fill="#50B748" fill-opacity="0.6"/>
<path d="M-229.838 544.494L-229.838 555.87L-252.559 555.87L-252.559 544.494L-229.838 544.494Z" fill="#50B748" fill-opacity="0.6"/>
<path d="M-173.029 544.494L-173.029 555.87L-195.75 555.87L-195.75 544.494L-173.029 544.494Z" fill="#50B748" fill-opacity="0.6"/>
<path d="M-184.39 533.109L-184.39 544.486L-207.11 544.486L-207.11 533.109L-184.39 533.109Z" fill="#50B748" fill-opacity="0.6"/>
<path d="M-218.471 533.109L-218.471 544.486L-241.191 544.486L-241.191 533.109L-218.471 533.109Z" fill="#50B748" fill-opacity="0.6"/>
<path d="M-184.39 555.87L-184.39 567.247L-207.11 567.247L-207.11 555.87L-184.39 555.87Z" fill="#50B748" fill-opacity="0.6"/>
<path d="M-218.471 555.87L-218.471 567.247L-241.191 567.247L-241.191 555.87L-218.471 555.87Z" fill="#50B748" fill-opacity="0.6"/>
<path d="M-195.75 567.247L-195.75 578.623L-229.831 578.623L-229.831 567.247L-195.75 567.247Z" fill="#50B748" fill-opacity="0.6"/>
<path d="M-207.11 510.364L-207.11 521.74L-218.471 521.74L-218.471 510.364L-207.11 510.364Z" fill="#50B748" fill-opacity="0.6"/>
<path d="M-195.75 521.733L-195.75 533.109L-229.831 533.109L-229.831 521.733L-195.75 521.733Z" fill="#50B748" fill-opacity="0.6"/>
<path d="M-263.919 374.076L-263.919 385.453L-275.279 385.453L-275.279 374.076L-263.919 374.076Z" fill="#50B748" fill-opacity="0.6"/>
<path d="M-263.919 408.206L-263.919 419.582L-275.279 419.582L-275.279 408.206L-263.919 408.206Z" fill="#50B748" fill-opacity="0.6"/>
<path d="M-286.64 374.076L-286.64 385.453L-309.36 385.453L-309.36 374.076L-286.64 374.076Z" fill="#50B748" fill-opacity="0.6"/>
<path d="M-229.838 374.076L-229.838 385.453L-252.559 385.453L-252.559 374.076L-229.838 374.076Z" fill="#50B748" fill-opacity="0.6"/>
<path d="M-241.199 362.692L-241.199 374.069L-263.919 374.069L-263.919 362.692L-241.199 362.692Z" fill="#50B748" fill-opacity="0.6"/>
<path d="M-275.279 362.692L-275.279 374.069L-298 374.069L-298 362.692L-275.279 362.692Z" fill="#50B748" fill-opacity="0.6"/>
<path d="M-241.199 385.453L-241.199 396.829L-263.919 396.829L-263.919 385.453L-241.199 385.453Z" fill="#50B748" fill-opacity="0.6"/>
<path d="M-275.279 385.453L-275.279 396.829L-298 396.829L-298 385.453L-275.279 385.453Z" fill="#50B748" fill-opacity="0.6"/>
<path d="M-252.559 396.829L-252.559 408.206L-286.64 408.206L-286.64 396.829L-252.559 396.829Z" fill="#50B748" fill-opacity="0.6"/>
<path d="M-263.919 339.939L-263.919 351.315L-275.279 351.315L-275.279 339.939L-263.919 339.939Z" fill="#50B748" fill-opacity="0.6"/>
<path d="M-252.559 351.315L-252.559 362.692L-286.64 362.692L-286.64 351.315L-252.559 351.315Z" fill="#50B748" fill-opacity="0.6"/>
<path d="M-320.721 317.268L-320.721 328.644L-332.081 328.644L-332.081 317.268L-320.721 317.268Z" fill="#50B748" fill-opacity="0.6"/>
<path d="M-320.721 351.398L-320.721 362.774L-332.081 362.774L-332.081 351.398L-320.721 351.398Z" fill="#50B748" fill-opacity="0.6"/>
<path d="M-343.449 317.268L-343.449 328.644L-366.169 328.644L-366.169 317.268L-343.449 317.268Z" fill="#50B748" fill-opacity="0.6"/>
<path d="M-286.64 317.268L-286.64 328.644L-309.36 328.644L-309.36 317.268L-286.64 317.268Z" fill="#50B748" fill-opacity="0.6"/>
<path d="M-298 305.891L-298 317.268L-320.721 317.268L-320.721 305.891L-298 305.891Z" fill="#50B748" fill-opacity="0.6"/>
<path d="M-332.081 305.891L-332.081 317.268L-354.801 317.268L-354.801 305.891L-332.081 305.891Z" fill="#50B748" fill-opacity="0.6"/>
<path d="M-298 328.644L-298 340.021L-320.721 340.021L-320.721 328.644L-298 328.644Z" fill="#50B748" fill-opacity="0.6"/>
<path d="M-332.081 328.644L-332.081 340.021L-354.801 340.021L-354.801 328.644L-332.081 328.644Z" fill="#50B748" fill-opacity="0.6"/>
<path d="M-309.36 340.021L-309.36 351.398L-343.441 351.398L-343.441 340.021L-309.36 340.021Z" fill="#50B748" fill-opacity="0.6"/>
<path d="M-320.721 283.13L-320.721 294.507L-332.081 294.507L-332.081 283.13L-320.721 283.13Z" fill="#50B748" fill-opacity="0.6"/>
<path d="M-309.36 294.514L-309.36 305.891L-343.441 305.891L-343.441 294.514L-309.36 294.514Z" fill="#50B748" fill-opacity="0.6"/>
<path d="M-320.721 430.877L-320.721 442.253L-332.081 442.253L-332.081 430.877L-320.721 430.877Z" fill="#50B748" fill-opacity="0.6"/>
<path d="M-320.721 465.007L-320.721 476.383L-332.081 476.383L-332.081 465.007L-320.721 465.007Z" fill="#50B748" fill-opacity="0.6"/>
<path d="M-343.449 430.877L-343.449 442.253L-366.169 442.253L-366.169 430.877L-343.449 430.877Z" fill="#50B748" fill-opacity="0.6"/>
<path d="M-286.64 430.877L-286.64 442.253L-309.36 442.253L-309.36 430.877L-286.64 430.877Z" fill="#50B748" fill-opacity="0.6"/>
<path d="M-298 419.5L-298 430.877L-320.721 430.877L-320.721 419.5L-298 419.5Z" fill="#50B748" fill-opacity="0.6"/>
<path d="M-332.081 419.5L-332.081 430.877L-354.801 430.877L-354.801 419.5L-332.081 419.5Z" fill="#50B748" fill-opacity="0.6"/>
<path d="M-298 442.254L-298 453.63L-320.721 453.63L-320.721 442.253L-298 442.254Z" fill="#50B748" fill-opacity="0.6"/>
<path d="M-332.081 442.253L-332.081 453.63L-354.801 453.63L-354.801 442.254L-332.081 442.253Z" fill="#50B748" fill-opacity="0.6"/>
<path d="M-309.36 453.63L-309.36 465.007L-343.441 465.007L-343.441 453.63L-309.36 453.63Z" fill="#50B748" fill-opacity="0.6"/>
<path d="M-320.721 396.747L-320.721 408.124L-332.081 408.124L-332.081 396.747L-320.721 396.747Z" fill="#50B748" fill-opacity="0.6"/>
<path d="M-309.36 408.124L-309.36 419.5L-343.441 419.5L-343.441 408.124L-309.36 408.124Z" fill="#50B748" fill-opacity="0.6"/>
<path d="M-320.721 544.494L-320.721 555.87L-332.081 555.87L-332.081 544.494L-320.721 544.494Z" fill="#50B748" fill-opacity="0.6"/>
<path d="M-320.721 578.623L-320.721 590L-332.081 590L-332.081 578.623L-320.721 578.623Z" fill="#50B748" fill-opacity="0.6"/>
<path d="M-343.449 544.494L-343.449 555.87L-366.169 555.87L-366.169 544.494L-343.449 544.494Z" fill="#50B748" fill-opacity="0.6"/>
<path d="M-286.64 544.494L-286.64 555.87L-309.36 555.87L-309.36 544.494L-286.64 544.494Z" fill="#50B748" fill-opacity="0.6"/>
<path d="M-298 533.109L-298 544.486L-320.721 544.486L-320.721 533.109L-298 533.109Z" fill="#50B748" fill-opacity="0.6"/>
<path d="M-332.081 533.109L-332.081 544.486L-354.801 544.486L-354.801 533.109L-332.081 533.109Z" fill="#50B748" fill-opacity="0.6"/>
<path d="M-298 555.87L-298 567.247L-320.721 567.247L-320.721 555.87L-298 555.87Z" fill="#50B748" fill-opacity="0.6"/>
<path d="M-332.081 555.87L-332.081 567.247L-354.801 567.247L-354.801 555.87L-332.081 555.87Z" fill="#50B748" fill-opacity="0.6"/>
<path d="M-309.36 567.247L-309.36 578.623L-343.441 578.623L-343.441 567.247L-309.36 567.247Z" fill="#50B748" fill-opacity="0.6"/>
<path d="M-320.721 510.364L-320.721 521.74L-332.081 521.74L-332.081 510.364L-320.721 510.364Z" fill="#50B748" fill-opacity="0.6"/>
<path d="M-309.36 521.733L-309.36 533.109L-343.441 533.109L-343.441 521.733L-309.36 521.733Z" fill="#50B748" fill-opacity="0.6"/>
<path d="M-434.338 430.877L-434.338 442.253L-445.699 442.253L-445.699 430.877L-434.338 430.877Z" fill="#50B748" fill-opacity="0.6"/>
<path d="M-434.338 465.007L-434.338 476.383L-445.699 476.383L-445.699 465.007L-434.338 465.007Z" fill="#50B748" fill-opacity="0.6"/>
<path d="M-457.059 430.877L-457.059 442.253L-479.779 442.253L-479.779 430.877L-457.059 430.877Z" fill="#50B748" fill-opacity="0.6"/>
<path d="M-400.25 430.877L-400.25 442.253L-422.971 442.253L-422.971 430.877L-400.25 430.877Z" fill="#50B748" fill-opacity="0.6"/>
<path d="M-411.61 419.5L-411.61 430.877L-434.331 430.877L-434.331 419.5L-411.61 419.5Z" fill="#50B748" fill-opacity="0.6"/>
<path d="M-445.699 419.5L-445.699 430.877L-468.419 430.877L-468.419 419.5L-445.699 419.5Z" fill="#50B748" fill-opacity="0.6"/>
<path d="M-411.61 442.254L-411.61 453.63L-434.331 453.63L-434.331 442.254L-411.61 442.254Z" fill="#50B748" fill-opacity="0.6"/>
<path d="M-445.699 442.253L-445.699 453.63L-468.419 453.63L-468.419 442.254L-445.699 442.253Z" fill="#50B748" fill-opacity="0.6"/>
<path d="M-422.978 453.63L-422.978 465.007L-457.059 465.007L-457.059 453.63L-422.978 453.63Z" fill="#50B748" fill-opacity="0.6"/>
<path d="M-434.338 396.747L-434.338 408.124L-445.699 408.124L-445.699 396.747L-434.338 396.747Z" fill="#50B748" fill-opacity="0.6"/>
<path d="M-422.978 408.124L-422.978 419.5L-457.059 419.5L-457.059 408.124L-422.978 408.124Z" fill="#50B748" fill-opacity="0.6"/>
<path d="M-434.338 544.494L-434.338 555.87L-445.699 555.87L-445.699 544.494L-434.338 544.494Z" fill="#50B748" fill-opacity="0.6"/>
<path d="M-434.338 578.623L-434.338 590L-445.699 590L-445.699 578.623L-434.338 578.623Z" fill="#50B748" fill-opacity="0.6"/>
<path d="M-457.059 544.494L-457.059 555.87L-479.78 555.87L-479.78 544.494L-457.059 544.494Z" fill="#50B748" fill-opacity="0.6"/>
<path d="M-400.25 544.494L-400.25 555.87L-422.971 555.87L-422.971 544.494L-400.25 544.494Z" fill="#50B748" fill-opacity="0.6"/>
<path d="M-411.61 533.109L-411.61 544.486L-434.331 544.486L-434.331 533.109L-411.61 533.109Z" fill="#50B748" fill-opacity="0.6"/>
<path d="M-445.699 533.109L-445.699 544.486L-468.419 544.486L-468.419 533.109L-445.699 533.109Z" fill="#50B748" fill-opacity="0.6"/>
<path d="M-411.61 555.87L-411.61 567.247L-434.331 567.247L-434.331 555.87L-411.61 555.87Z" fill="#50B748" fill-opacity="0.6"/>
<path d="M-445.699 555.87L-445.699 567.247L-468.419 567.247L-468.419 555.87L-445.699 555.87Z" fill="#50B748" fill-opacity="0.6"/>
<path d="M-422.978 567.247L-422.978 578.623L-457.059 578.623L-457.059 567.247L-422.978 567.247Z" fill="#50B748" fill-opacity="0.6"/>
<path d="M-434.338 510.364L-434.338 521.74L-445.699 521.74L-445.699 510.364L-434.338 510.364Z" fill="#50B748" fill-opacity="0.6"/>
<path d="M-422.978 521.733L-422.978 533.109L-457.059 533.109L-457.059 521.733L-422.978 521.733Z" fill="#50B748" fill-opacity="0.6"/>
<path d="M-547.949 430.877L-547.949 442.253L-559.309 442.253L-559.309 430.877L-547.949 430.877Z" fill="#50B748" fill-opacity="0.6"/>
<path d="M-547.949 465.007L-547.949 476.383L-559.309 476.383L-559.309 465.007L-547.949 465.007Z" fill="#50B748" fill-opacity="0.6"/>
<path d="M-570.669 430.877L-570.669 442.253L-593.39 442.253L-593.39 430.877L-570.669 430.877Z" fill="#50B748" fill-opacity="0.6"/>
<path d="M-513.86 430.877L-513.86 442.253L-536.581 442.253L-536.581 430.877L-513.86 430.877Z" fill="#50B748" fill-opacity="0.6"/>
<path d="M-525.221 419.5L-525.221 430.877L-547.941 430.877L-547.941 419.5L-525.221 419.5Z" fill="#50B748" fill-opacity="0.6"/>
<path d="M-559.309 419.5L-559.309 430.877L-582.029 430.877L-582.029 419.5L-559.309 419.5Z" fill="#50B748" fill-opacity="0.6"/>
<path d="M-525.221 442.254L-525.221 453.63L-547.941 453.63L-547.941 442.254L-525.221 442.254Z" fill="#50B748" fill-opacity="0.6"/>
<path d="M-559.309 442.253L-559.309 453.63L-582.029 453.63L-582.029 442.254L-559.309 442.253Z" fill="#50B748" fill-opacity="0.6"/>
<path d="M-536.588 453.63L-536.588 465.007L-570.669 465.007L-570.669 453.63L-536.588 453.63Z" fill="#50B748" fill-opacity="0.6"/>
<path d="M-547.949 396.747L-547.949 408.124L-559.309 408.124L-559.309 396.747L-547.949 396.747Z" fill="#50B748" fill-opacity="0.6"/>
<path d="M-536.588 408.124L-536.588 419.5L-570.669 419.5L-570.669 408.124L-536.588 408.124Z" fill="#50B748" fill-opacity="0.6"/>
<path d="M-661.559 544.494L-661.559 555.87L-672.919 555.87L-672.919 544.494L-661.559 544.494Z" fill="#50B748" fill-opacity="0.6"/>
<path d="M-661.559 578.623L-661.559 590L-672.919 590L-672.919 578.623L-661.559 578.623Z" fill="#50B748" fill-opacity="0.6"/>
<path d="M-684.28 544.494L-684.28 555.87L-707 555.87L-707 544.494L-684.28 544.494Z" fill="#50B748" fill-opacity="0.6"/>
<path d="M-627.478 544.494L-627.478 555.87L-650.199 555.87L-650.199 544.494L-627.478 544.494Z" fill="#50B748" fill-opacity="0.6"/>
<path d="M-638.838 533.109L-638.838 544.486L-661.559 544.486L-661.559 533.109L-638.838 533.109Z" fill="#50B748" fill-opacity="0.6"/>
<path d="M-672.919 533.109L-672.919 544.486L-695.64 544.486L-695.64 533.109L-672.919 533.109Z" fill="#50B748" fill-opacity="0.6"/>
<path d="M-638.838 555.87L-638.838 567.247L-661.559 567.247L-661.559 555.87L-638.838 555.87Z" fill="#50B748" fill-opacity="0.6"/>
<path d="M-672.919 555.87L-672.919 567.247L-695.64 567.247L-695.64 555.87L-672.919 555.87Z" fill="#50B748" fill-opacity="0.6"/>
<path d="M-650.199 567.247L-650.199 578.623L-684.28 578.623L-684.28 567.247L-650.199 567.247Z" fill="#50B748" fill-opacity="0.6"/>
<path d="M-661.559 510.364L-661.559 521.74L-672.919 521.74L-672.919 510.364L-661.559 510.364Z" fill="#50B748" fill-opacity="0.6"/>
<path d="M-650.199 521.733L-650.199 533.109L-684.28 533.109L-684.28 521.733L-650.199 521.733Z" fill="#50B748" fill-opacity="0.6"/>
<path d="M76.9191 374.076L76.9191 385.453L65.5589 385.453L65.5589 374.076L76.9191 374.076Z" fill="#50B748" fill-opacity="0.6"/>
<path d="M76.9191 408.206L76.9191 419.582L65.5589 419.582L65.5589 408.206L76.9191 408.206Z" fill="#50B748" fill-opacity="0.6"/>
<path d="M54.1911 374.076L54.1911 385.453L31.4705 385.453L31.4705 374.076L54.1911 374.076Z" fill="#50B748" fill-opacity="0.6"/>
<path d="M111 374.076L111 385.453L88.2794 385.453L88.2794 374.076L111 374.076Z" fill="#50B748" fill-opacity="0.6"/>
<path d="M99.6397 362.692L99.6397 374.069L76.9191 374.069L76.9191 362.692L99.6397 362.692Z" fill="#50B748" fill-opacity="0.6"/>
<path d="M65.5514 362.692L65.5514 374.069L42.8308 374.069L42.8308 362.692L65.5514 362.692Z" fill="#50B748" fill-opacity="0.6"/>
<path d="M99.6397 385.453L99.6397 396.829L76.9191 396.829L76.9191 385.453L99.6397 385.453Z" fill="#50B748" fill-opacity="0.6"/>
<path d="M65.5514 385.453L65.5514 396.829L42.8308 396.829L42.8308 385.453L65.5514 385.453Z" fill="#50B748" fill-opacity="0.6"/>
<path d="M88.2794 396.829L88.2794 408.206L54.1986 408.206L54.1986 396.829L88.2794 396.829Z" fill="#50B748" fill-opacity="0.6"/>
<path d="M76.9191 339.939L76.9191 351.315L65.5589 351.315L65.5589 339.939L76.9191 339.939Z" fill="#50B748" fill-opacity="0.6"/>
<path d="M88.2794 351.315L88.2794 362.692L54.1986 362.692L54.1986 351.315L88.2794 351.315Z" fill="#50B748" fill-opacity="0.6"/>
<path d="M76.9191 260.459L76.9191 271.836L65.5589 271.836L65.5589 260.459L76.9191 260.459Z" fill="#50B748" fill-opacity="0.6"/>
<path d="M76.9191 294.589L76.9191 305.966L65.5589 305.966L65.5589 294.589L76.9191 294.589Z" fill="#50B748" fill-opacity="0.6"/>
<path d="M54.1911 260.459L54.1911 271.836L31.4706 271.836L31.4706 260.459L54.1911 260.459Z" fill="#50B748" fill-opacity="0.6"/>
<path d="M111 260.459L111 271.836L88.2794 271.836L88.2794 260.459L111 260.459Z" fill="#50B748" fill-opacity="0.6"/>
<path d="M99.6397 249.083L99.6397 260.459L76.9191 260.459L76.9191 249.083L99.6397 249.083Z" fill="#50B748" fill-opacity="0.6"/>
<path d="M65.5514 249.083L65.5514 260.459L42.8308 260.459L42.8308 249.083L65.5514 249.083Z" fill="#50B748" fill-opacity="0.6"/>
<path d="M99.6397 271.836L99.6397 283.213L76.9191 283.213L76.9191 271.836L99.6397 271.836Z" fill="#50B748" fill-opacity="0.6"/>
<path d="M65.5514 271.836L65.5514 283.213L42.8308 283.213L42.8308 271.836L65.5514 271.836Z" fill="#50B748" fill-opacity="0.6"/>
<path d="M88.2794 283.213L88.2794 294.589L54.1986 294.589L54.1986 283.213L88.2794 283.213Z" fill="#50B748" fill-opacity="0.6"/>
<path d="M76.9191 226.33L76.9191 237.706L65.5589 237.706L65.5589 226.33L76.9191 226.33Z" fill="#50B748" fill-opacity="0.6"/>
<path d="M88.2794 237.706L88.2794 249.083L54.1986 249.083L54.1986 237.706L88.2794 237.706Z" fill="#50B748" fill-opacity="0.6"/>
<path d="M76.9191 487.685L76.9191 499.062L65.5589 499.062L65.5589 487.685L76.9191 487.685Z" fill="#50B748" fill-opacity="0.6"/>
<path d="M76.9191 521.815L76.9191 533.192L65.5588 533.192L65.5588 521.815L76.9191 521.815Z" fill="#50B748" fill-opacity="0.6"/>
<path d="M54.1911 487.685L54.1911 499.062L31.4705 499.062L31.4705 487.685L54.1911 487.685Z" fill="#50B748" fill-opacity="0.6"/>
<path d="M111 487.685L111 499.062L88.2794 499.062L88.2794 487.685L111 487.685Z" fill="#50B748" fill-opacity="0.6"/>
<path d="M99.6397 476.309L99.6397 487.685L76.9191 487.685L76.9191 476.309L99.6397 476.309Z" fill="#50B748" fill-opacity="0.6"/>
<path d="M65.5514 476.309L65.5514 487.685L42.8308 487.685L42.8308 476.309L65.5514 476.309Z" fill="#50B748" fill-opacity="0.6"/>
<path d="M99.6397 499.062L99.6397 510.438L76.9191 510.438L76.9191 499.062L99.6397 499.062Z" fill="#50B748" fill-opacity="0.6"/>
<path d="M65.5514 499.062L65.5514 510.438L42.8308 510.438L42.8308 499.062L65.5514 499.062Z" fill="#50B748" fill-opacity="0.6"/>
<path d="M88.2794 510.438L88.2794 521.815L54.1986 521.815L54.1986 510.438L88.2794 510.438Z" fill="#50B748" fill-opacity="0.6"/>
<path d="M76.9191 453.555L76.9191 464.932L65.5589 464.932L65.5589 453.555L76.9191 453.555Z" fill="#50B748" fill-opacity="0.6"/>
<path d="M88.2794 464.932L88.2794 476.309L54.1986 476.309L54.1986 464.932L88.2794 464.932Z" fill="#50B748" fill-opacity="0.6"/>
<path d="M-150.309 147.747L-150.309 159.123L-161.669 159.123L-161.669 147.747L-150.309 147.747Z" fill="#50B748" fill-opacity="0.6"/>
<path d="M-150.309 181.876L-150.309 193.253L-161.669 193.253L-161.669 181.876L-150.309 181.876Z" fill="#50B748" fill-opacity="0.6"/>
<path d="M-116.228 147.747L-116.228 159.123L-138.949 159.123L-138.949 147.747L-116.228 147.747Z" fill="#50B748" fill-opacity="0.6"/>
<path d="M-173.029 147.747L-173.029 159.123L-195.75 159.123L-195.75 147.747L-173.029 147.747Z" fill="#50B748" fill-opacity="0.6"/>
<path d="M-161.669 136.37L-161.669 147.747L-184.39 147.747L-184.39 136.37L-161.669 136.37Z" fill="#50B748" fill-opacity="0.6"/>
<path d="M-127.588 136.37L-127.588 147.747L-150.309 147.747L-150.309 136.37L-127.588 136.37Z" fill="#50B748" fill-opacity="0.6"/>
<path d="M-161.669 159.123L-161.669 170.5L-184.39 170.5L-184.39 159.123L-161.669 159.123Z" fill="#50B748" fill-opacity="0.6"/>
<path d="M-127.588 159.123L-127.588 170.5L-150.309 170.5L-150.309 159.123L-127.588 159.123Z" fill="#50B748" fill-opacity="0.6"/>
<path d="M-138.949 170.5L-138.949 181.876L-173.029 181.876L-173.029 170.5L-138.949 170.5Z" fill="#50B748" fill-opacity="0.6"/>
<path d="M-150.309 113.617L-150.309 124.993L-161.669 124.993L-161.669 113.617L-150.309 113.617Z" fill="#50B748" fill-opacity="0.6"/>
<path d="M-138.949 124.993L-138.949 136.37L-173.029 136.37L-173.029 124.993L-138.949 124.993Z" fill="#50B748" fill-opacity="0.6"/>
<path d="M-150.309 34.1298L-150.309 45.5065L-161.669 45.5065L-161.669 34.1298L-150.309 34.1298Z" fill="#50B748" fill-opacity="0.6"/>
<path d="M-150.309 68.2597L-150.309 79.6363L-161.669 79.6363L-161.669 68.2597L-150.309 68.2597Z" fill="#50B748" fill-opacity="0.6"/>
<path d="M-116.228 34.1298L-116.228 45.5065L-138.949 45.5065L-138.949 34.1298L-116.228 34.1298Z" fill="#50B748" fill-opacity="0.6"/>
<path d="M-173.029 34.1298L-173.029 45.5065L-195.75 45.5065L-195.75 34.1298L-173.029 34.1298Z" fill="#50B748" fill-opacity="0.6"/>
<path d="M-161.669 22.7532L-161.669 34.1298L-184.39 34.1298L-184.39 22.7532L-161.669 22.7532Z" fill="#50B748" fill-opacity="0.6"/>
<path d="M-127.588 22.7532L-127.588 34.1298L-150.309 34.1298L-150.309 22.7532L-127.588 22.7532Z" fill="#50B748" fill-opacity="0.6"/>
<path d="M-161.669 45.5139L-161.669 56.8905L-184.39 56.8905L-184.39 45.5139L-161.669 45.5139Z" fill="#50B748" fill-opacity="0.6"/>
<path d="M-127.588 45.5139L-127.588 56.8905L-150.309 56.8905L-150.309 45.5139L-127.588 45.5139Z" fill="#50B748" fill-opacity="0.6"/>
<path d="M-138.949 56.8906L-138.949 68.2671L-173.029 68.2671L-173.029 56.8906L-138.949 56.8906Z" fill="#50B748" fill-opacity="0.6"/>
<path d="M-150.309 -1.14222e-05L-150.309 11.3766L-161.669 11.3766L-161.669 -1.19187e-05L-150.309 -1.14222e-05Z" fill="#50B748" fill-opacity="0.6"/>
<path d="M-138.949 11.3766L-138.949 22.7532L-173.029 22.7532L-173.029 11.3766L-138.949 11.3766Z" fill="#50B748" fill-opacity="0.6"/>
<path d="M-150.309 261.356L-150.309 272.732L-161.669 272.732L-161.669 261.356L-150.309 261.356Z" fill="#50B748" fill-opacity="0.6"/>
<path d="M-150.309 295.493L-150.309 306.87L-161.669 306.87L-161.669 295.493L-150.309 295.493Z" fill="#50B748" fill-opacity="0.6"/>
<path d="M-116.228 261.356L-116.228 272.732L-138.949 272.732L-138.949 261.356L-116.228 261.356Z" fill="#50B748" fill-opacity="0.6"/>
<path d="M-173.029 261.356L-173.029 272.732L-195.75 272.732L-195.75 261.356L-173.029 261.356Z" fill="#50B748" fill-opacity="0.6"/>
<path d="M-161.669 249.979L-161.669 261.356L-184.39 261.356L-184.39 249.979L-161.669 249.979Z" fill="#50B748" fill-opacity="0.6"/>
<path d="M-127.588 249.979L-127.588 261.356L-150.309 261.356L-150.309 249.979L-127.588 249.979Z" fill="#50B748" fill-opacity="0.6"/>
<path d="M-161.669 272.732L-161.669 284.109L-184.39 284.109L-184.39 272.732L-161.669 272.732Z" fill="#50B748" fill-opacity="0.6"/>
<path d="M-127.588 272.732L-127.588 284.109L-150.309 284.109L-150.309 272.732L-127.588 272.732Z" fill="#50B748" fill-opacity="0.6"/>
<path d="M-138.949 284.109L-138.949 295.486L-173.029 295.486L-173.029 284.109L-138.949 284.109Z" fill="#50B748" fill-opacity="0.6"/>
<path d="M-150.309 227.226L-150.309 238.603L-161.669 238.603L-161.669 227.226L-150.309 227.226Z" fill="#50B748" fill-opacity="0.6"/>
<path d="M-138.949 238.603L-138.949 249.979L-173.029 249.979L-173.029 238.603L-138.949 238.603Z" fill="#50B748" fill-opacity="0.6"/>
</svg>
