<svg width="106" height="187" viewBox="0 0 106 187" fill="none" xmlns="http://www.w3.org/2000/svg">
<path d="M106.86 80.1418H80.1439V106.858H106.86V80.1418Z" fill="#05A6AB"/>
<path d="M26.7121 80.1418H0V106.858H26.7121V80.1418Z" fill="#05A6AB"/>
<path d="M106.86 0H80.1439V53.4291H106.86V0Z" fill="#05A6AB"/>
<path d="M106.86 133.571H80.1439V187H106.86V133.571Z" fill="#05A6AB"/>
<path d="M133.568 106.854H106.852V160.284H133.568V106.854Z" fill="#05A6AB"/>
<path d="M133.568 26.7127H106.852V80.1418H133.568V26.7127Z" fill="#05A6AB"/>
<path d="M80.1439 106.854H53.428V160.284H80.1439V106.854Z" fill="#05A6AB"/>
<path d="M80.1439 26.7127H53.428V80.1418H80.1439V26.7127Z" fill="#05A6AB"/>
<path d="M53.428 53.4291H26.7121V133.575H53.428V53.4291Z" fill="#05A6AB"/>
<path d="M187 80.1418H160.284V106.858H187V80.1418Z" fill="#05A6AB"/>
<path d="M160.284 53.4291H133.568V133.575H160.284V53.4291Z" fill="#05A6AB"/>
</svg>
