<svg width="102" height="27" viewBox="0 0 102 27" fill="none" xmlns="http://www.w3.org/2000/svg">
<g filter="url(#filter0_d_4406_1455)">
<path d="M13.625 8.90156C14.4416 9.16823 15.1416 9.69323 15.725 10.4766C16.3083 11.2599 16.6 12.1349 16.6 13.1016C16.6 14.7682 15.9833 16.0599 14.75 16.9766C13.5333 17.8932 11.8666 18.3516 9.74995 18.3516H3.39995V0.351562H9.22495C11.2416 0.351562 12.8583 0.784895 14.075 1.65156C15.3083 2.5349 15.925 3.7849 15.925 5.40156C15.925 6.1849 15.7083 6.89323 15.275 7.52656C14.8583 8.14323 14.3083 8.60156 13.625 8.90156ZM7.07495 3.42656V7.85156H9.37495C9.95828 7.85156 10.4416 7.80156 10.825 7.70156C11.625 7.40156 12.025 6.74323 12.025 5.72656C12.025 4.99323 11.8 4.42656 11.35 4.02656C10.9 3.62656 10.275 3.42656 9.47495 3.42656H7.07495ZM10.175 10.4516H7.07495V15.2766H9.92495C10.7416 15.2766 11.4 15.0599 11.9 14.6266C12.4 14.1932 12.65 13.6016 12.65 12.8516C12.65 12.1016 12.4166 11.5182 11.95 11.1016C11.5 10.6682 10.9083 10.4516 10.175 10.4516ZM20.5654 9.35156C20.5654 6.75156 21.457 4.54323 23.2404 2.72656C25.0404 0.909895 27.2904 0.00156182 29.9904 0.00156182C32.6737 0.00156182 34.9154 0.909895 36.7154 2.72656C38.5154 4.52656 39.4154 6.7349 39.4154 9.35156C39.4154 12.0016 38.5154 14.2266 36.7154 16.0266C34.932 17.8099 32.6904 18.7016 29.9904 18.7016C27.307 18.7016 25.057 17.8099 23.2404 16.0266C21.457 14.2099 20.5654 11.9849 20.5654 9.35156ZM24.4404 9.35156C24.4404 10.9849 24.9654 12.3682 26.0154 13.5016C27.0654 14.6182 28.3904 15.1766 29.9904 15.1766C31.5904 15.1766 32.9154 14.6182 33.9654 13.5016C35.0154 12.3682 35.5404 10.9849 35.5404 9.35156C35.5404 7.71823 35.0154 6.34323 33.9654 5.22656C32.9154 4.09323 31.5904 3.52656 29.9904 3.52656C28.3904 3.52656 27.0654 4.09323 26.0154 5.22656C24.9654 6.34323 24.4404 7.71823 24.4404 9.35156ZM49.7929 18.6266L41.7429 0.351562H46.0179L48.4679 6.47656C49.1013 8.0599 49.6013 9.41823 49.9679 10.5516L51.2679 7.40156L52.2679 5.12656L54.3429 0.476562H54.4929C57.0096 6.14323 58.4596 9.50156 58.8429 10.5516L62.8179 0.351562H67.1179L59.0429 18.6266H58.8679L55.3429 10.5766C55.0929 10.0266 54.7846 9.3099 54.4179 8.42656C54.2513 8.87656 53.9513 9.59323 53.5179 10.5766L49.9679 18.6266H49.7929ZM82.0607 15.1266V18.3516H71.2857V0.351562H75.1357V15.1266H82.0607ZM91.2453 18.7016C89.2453 18.7016 87.4619 18.3599 85.8953 17.6766V13.9766C87.3453 14.7432 88.8536 15.1766 90.4203 15.2766C91.0703 15.3099 91.6036 15.2766 92.0203 15.1766C93.4703 14.9599 94.1953 14.4266 94.1953 13.5766C94.1953 13.0266 93.9369 12.5599 93.4203 12.1766C92.9203 11.7932 91.9953 11.3516 90.6453 10.8516C88.9453 10.2349 87.6786 9.5099 86.8453 8.67656C86.0453 7.8599 85.6453 6.71823 85.6453 5.25156C85.6453 3.66823 86.2453 2.40156 87.4453 1.45156C88.6286 0.484895 90.2036 0.00156182 92.1703 0.00156182C93.9536 0.00156182 95.5203 0.301562 96.8703 0.901562V4.45156C95.6369 3.71823 94.1703 3.35156 92.4703 3.35156C91.5369 3.35156 90.7953 3.52656 90.2453 3.87656C89.6953 4.2099 89.4203 4.6599 89.4203 5.22656C89.4203 5.74323 89.6786 6.2099 90.1953 6.62656C90.7286 7.02656 91.6119 7.4599 92.8453 7.92656C94.5953 8.6099 95.8786 9.3599 96.6953 10.1766C97.5286 10.9766 97.9453 12.0849 97.9453 13.5016C97.9453 15.1349 97.3536 16.4099 96.1703 17.3266C95.0036 18.2432 93.3619 18.7016 91.2453 18.7016Z" fill="white"/>
</g>
<defs>
<filter id="filter0_d_4406_1455" x="-9.77516e-05" y="0" width="101.345" height="26.1031" filterUnits="userSpaceOnUse" color-interpolation-filters="sRGB">
<feFlood flood-opacity="0" result="BackgroundImageFix"/>
<feColorMatrix in="SourceAlpha" type="matrix" values="0 0 0 0 0 0 0 0 0 0 0 0 0 0 0 0 0 0 127 0" result="hardAlpha"/>
<feOffset dy="4"/>
<feGaussianBlur stdDeviation="1.7"/>
<feComposite in2="hardAlpha" operator="out"/>
<feColorMatrix type="matrix" values="0 0 0 0 0 0 0 0 0 0 0 0 0 0 0 0 0 0 0.25 0"/>
<feBlend mode="normal" in2="BackgroundImageFix" result="effect1_dropShadow_4406_1455"/>
<feBlend mode="normal" in="SourceGraphic" in2="effect1_dropShadow_4406_1455" result="shape"/>
</filter>
</defs>
</svg>
