<svg width="117" height="27" viewBox="0 0 117 27" fill="none" xmlns="http://www.w3.org/2000/svg">
<g filter="url(#filter0_d_4406_1446)">
<path d="M3.40001 0.351562H7.25001V8.85156L14.25 0.351562H18.8L12.425 7.87656L18.9 18.3516H14.6L9.82501 10.3516L7.25001 13.2766V18.3516H3.40001V0.351562ZM24.9838 18.3516H20.9588L29.6838 0.0765623H29.8338L38.5838 18.3516H34.5588L33.1088 15.1766H26.3838L24.9838 18.3516ZM27.5588 12.4766H31.9588C30.9588 10.1932 30.2338 8.4099 29.7838 7.12656L28.8588 9.37656C28.2255 10.9099 27.7921 11.9432 27.5588 12.4766ZM52.8926 8.90156C53.7093 9.16823 54.4093 9.69323 54.9926 10.4766C55.5759 11.2599 55.8676 12.1349 55.8676 13.1016C55.8676 14.7682 55.2509 16.0599 54.0176 16.9766C52.8009 17.8932 51.1343 18.3516 49.0176 18.3516H42.6676V0.351562H48.4926C50.5093 0.351562 52.1259 0.784895 53.3426 1.65156C54.5759 2.5349 55.1926 3.7849 55.1926 5.40156C55.1926 6.1849 54.9759 6.89323 54.5426 7.52656C54.1259 8.14323 53.5759 8.60156 52.8926 8.90156ZM46.3426 3.42656V7.85156H48.6426C49.2259 7.85156 49.7093 7.80156 50.0926 7.70156C50.8926 7.40156 51.2926 6.74323 51.2926 5.72656C51.2926 4.99323 51.0676 4.42656 50.6176 4.02656C50.1676 3.62656 49.5426 3.42656 48.7426 3.42656H46.3426ZM49.4426 10.4516H46.3426V15.2766H49.1926C50.0093 15.2766 50.6676 15.0599 51.1676 14.6266C51.6676 14.1932 51.9176 13.6016 51.9176 12.8516C51.9176 12.1016 51.6843 11.5182 51.2176 11.1016C50.7676 10.6682 50.1759 10.4516 49.4426 10.4516ZM59.833 9.35156C59.833 6.75156 60.7247 4.54323 62.508 2.72656C64.308 0.909895 66.558 0.00156182 69.258 0.00156182C71.9414 0.00156182 74.183 0.909895 75.983 2.72656C77.783 4.52656 78.683 6.7349 78.683 9.35156C78.683 12.0016 77.783 14.2266 75.983 16.0266C74.1997 17.8099 71.958 18.7016 69.258 18.7016C66.5747 18.7016 64.3247 17.8099 62.508 16.0266C60.7247 14.2099 59.833 11.9849 59.833 9.35156ZM63.708 9.35156C63.708 10.9849 64.233 12.3682 65.283 13.5016C66.333 14.6182 67.658 15.1766 69.258 15.1766C70.858 15.1766 72.183 14.6182 73.233 13.5016C74.283 12.3682 74.808 10.9849 74.808 9.35156C74.808 7.71823 74.283 6.34323 73.233 5.22656C72.183 4.09323 70.858 3.52656 69.258 3.52656C67.658 3.52656 66.333 4.09323 65.283 5.22656C64.233 6.34323 63.708 7.71823 63.708 9.35156ZM93.9424 8.90156C94.7591 9.16823 95.4591 9.69323 96.0424 10.4766C96.6257 11.2599 96.9174 12.1349 96.9174 13.1016C96.9174 14.7682 96.3007 16.0599 95.0674 16.9766C93.8507 17.8932 92.1841 18.3516 90.0674 18.3516H83.7174V0.351562H89.5424C91.5591 0.351562 93.1757 0.784895 94.3924 1.65156C95.6257 2.5349 96.2424 3.7849 96.2424 5.40156C96.2424 6.1849 96.0257 6.89323 95.5924 7.52656C95.1757 8.14323 94.6257 8.60156 93.9424 8.90156ZM87.3924 3.42656V7.85156H89.6924C90.2757 7.85156 90.7591 7.80156 91.1424 7.70156C91.9424 7.40156 92.3424 6.74323 92.3424 5.72656C92.3424 4.99323 92.1174 4.42656 91.6674 4.02656C91.2174 3.62656 90.5924 3.42656 89.7924 3.42656H87.3924ZM90.4924 10.4516H87.3924V15.2766H90.2424C91.0591 15.2766 91.7174 15.0599 92.2174 14.6266C92.7174 14.1932 92.9674 13.6016 92.9674 12.8516C92.9674 12.1016 92.7341 11.5182 92.2674 11.1016C91.8174 10.6682 91.2257 10.4516 90.4924 10.4516ZM106.558 18.7016C104.558 18.7016 102.774 18.3599 101.208 17.6766V13.9766C102.658 14.7432 104.166 15.1766 105.733 15.2766C106.383 15.3099 106.916 15.2766 107.333 15.1766C108.783 14.9599 109.508 14.4266 109.508 13.5766C109.508 13.0266 109.249 12.5599 108.733 12.1766C108.233 11.7932 107.308 11.3516 105.958 10.8516C104.258 10.2349 102.991 9.5099 102.158 8.67656C101.358 7.8599 100.958 6.71823 100.958 5.25156C100.958 3.66823 101.558 2.40156 102.758 1.45156C103.941 0.484895 105.516 0.00156182 107.483 0.00156182C109.266 0.00156182 110.833 0.301562 112.183 0.901562V4.45156C110.949 3.71823 109.483 3.35156 107.783 3.35156C106.849 3.35156 106.108 3.52656 105.558 3.87656C105.008 4.2099 104.733 4.6599 104.733 5.22656C104.733 5.74323 104.991 6.2099 105.508 6.62656C106.041 7.02656 106.924 7.4599 108.158 7.92656C109.908 8.6099 111.191 9.3599 112.008 10.1766C112.841 10.9766 113.258 12.0849 113.258 13.5016C113.258 15.1349 112.666 16.4099 111.483 17.3266C110.316 18.2432 108.674 18.7016 106.558 18.7016Z" fill="white"/>
</g>
<defs>
<filter id="filter0_d_4406_1446" x="2.43187e-05" y="0" width="116.658" height="26.1031" filterUnits="userSpaceOnUse" color-interpolation-filters="sRGB">
<feFlood flood-opacity="0" result="BackgroundImageFix"/>
<feColorMatrix in="SourceAlpha" type="matrix" values="0 0 0 0 0 0 0 0 0 0 0 0 0 0 0 0 0 0 127 0" result="hardAlpha"/>
<feOffset dy="4"/>
<feGaussianBlur stdDeviation="1.7"/>
<feComposite in2="hardAlpha" operator="out"/>
<feColorMatrix type="matrix" values="0 0 0 0 0 0 0 0 0 0 0 0 0 0 0 0 0 0 0.25 0"/>
<feBlend mode="normal" in2="BackgroundImageFix" result="effect1_dropShadow_4406_1446"/>
<feBlend mode="normal" in="SourceGraphic" in2="effect1_dropShadow_4406_1446" result="shape"/>
</filter>
</defs>
</svg>
