<svg width="115" height="27" viewBox="0 0 115 27" fill="none" xmlns="http://www.w3.org/2000/svg">
<g filter="url(#filter0_d_4406_1458)">
<path d="M13.625 8.90156C14.4416 9.16823 15.1416 9.69323 15.725 10.4766C16.3083 11.2599 16.6 12.1349 16.6 13.1016C16.6 14.7682 15.9833 16.0599 14.75 16.9766C13.5333 17.8932 11.8666 18.3516 9.74995 18.3516H3.39995V0.351562H9.22495C11.2416 0.351562 12.8583 0.784895 14.075 1.65156C15.3083 2.5349 15.925 3.7849 15.925 5.40156C15.925 6.1849 15.7083 6.89323 15.275 7.52656C14.8583 8.14323 14.3083 8.60156 13.625 8.90156ZM7.07495 3.42656V7.85156H9.37495C9.95828 7.85156 10.4416 7.80156 10.825 7.70156C11.625 7.40156 12.025 6.74323 12.025 5.72656C12.025 4.99323 11.8 4.42656 11.35 4.02656C10.9 3.62656 10.275 3.42656 9.47495 3.42656H7.07495ZM10.175 10.4516H7.07495V15.2766H9.92495C10.7416 15.2766 11.4 15.0599 11.9 14.6266C12.4 14.1932 12.65 13.6016 12.65 12.8516C12.65 12.1016 12.4166 11.5182 11.95 11.1016C11.5 10.6682 10.9083 10.4516 10.175 10.4516ZM32.6654 0.351562H36.5154V11.8016C36.5154 13.9182 35.8487 15.6016 34.5154 16.8516C33.182 18.0849 31.3404 18.7016 28.9904 18.7016C26.6404 18.7016 24.7987 18.0849 23.4654 16.8516C22.132 15.6016 21.4654 13.9182 21.4654 11.8016V0.351562H25.3154V11.4266C25.3154 12.6099 25.632 13.5349 26.2654 14.2016C26.9154 14.8516 27.8237 15.1766 28.9904 15.1766C30.1737 15.1766 31.082 14.8516 31.7154 14.2016C32.3487 13.5516 32.6654 12.6266 32.6654 11.4266V0.351562ZM42.4234 18.3516V0.351562H48.7484C50.8984 0.351562 52.5901 0.876562 53.8234 1.92656C55.0734 2.9599 55.6984 4.4099 55.6984 6.27656C55.6984 7.49323 55.3901 8.55156 54.7734 9.45156C54.1734 10.3349 53.3401 10.9849 52.2734 11.4016L56.0484 18.3516H51.9734L48.7984 12.0516H46.1984V18.3516H42.4234ZM48.8484 3.57656H46.1984V8.95156H48.9484C49.8484 8.95156 50.5484 8.72656 51.0484 8.27656C51.5651 7.8099 51.8234 7.14323 51.8234 6.27656C51.8234 5.4099 51.5567 4.74323 51.0234 4.27656C50.4901 3.8099 49.7651 3.57656 48.8484 3.57656ZM75.6574 10.0516V17.3266C73.8907 18.2432 71.849 18.7016 69.5324 18.7016C66.7324 18.7016 64.4157 17.8099 62.5824 16.0266C60.7657 14.2599 59.8574 12.0349 59.8574 9.35156C59.8574 6.6849 60.7657 4.46823 62.5824 2.70156C64.4157 0.901562 66.7074 0.00156182 69.4574 0.00156182C71.474 0.00156182 73.3574 0.409895 75.1074 1.22656V4.77656C73.3074 3.94323 71.5074 3.52656 69.7074 3.52656C67.874 3.52656 66.424 4.08489 65.3574 5.20156C64.274 6.3349 63.7324 7.71823 63.7324 9.35156C63.7324 11.0182 64.2657 12.4099 65.3324 13.5266C66.399 14.6432 67.799 15.2016 69.5324 15.2016C70.4157 15.2016 71.2324 15.0849 71.9824 14.8516V10.0516H75.6574ZM92.9574 15.1266V18.3516H81.0074V0.351562H92.5824V3.57656H84.8574V7.67656H91.4074V10.7766H84.8574V15.1266H92.9574ZM97.9556 18.3516V0.351562H104.281C106.431 0.351562 108.122 0.876562 109.356 1.92656C110.606 2.9599 111.231 4.4099 111.231 6.27656C111.231 7.49323 110.922 8.55156 110.306 9.45156C109.706 10.3349 108.872 10.9849 107.806 11.4016L111.581 18.3516H107.506L104.331 12.0516H101.731V18.3516H97.9556ZM104.381 3.57656H101.731V8.95156H104.481C105.381 8.95156 106.081 8.72656 106.581 8.27656C107.097 7.8099 107.356 7.14323 107.356 6.27656C107.356 5.4099 107.089 4.74323 106.556 4.27656C106.022 3.8099 105.297 3.57656 104.381 3.57656Z" fill="white"/>
</g>
<defs>
<filter id="filter0_d_4406_1458" x="-9.77516e-05" y="0" width="114.981" height="26.1031" filterUnits="userSpaceOnUse" color-interpolation-filters="sRGB">
<feFlood flood-opacity="0" result="BackgroundImageFix"/>
<feColorMatrix in="SourceAlpha" type="matrix" values="0 0 0 0 0 0 0 0 0 0 0 0 0 0 0 0 0 0 127 0" result="hardAlpha"/>
<feOffset dy="4"/>
<feGaussianBlur stdDeviation="1.7"/>
<feComposite in2="hardAlpha" operator="out"/>
<feColorMatrix type="matrix" values="0 0 0 0 0 0 0 0 0 0 0 0 0 0 0 0 0 0 0.25 0"/>
<feBlend mode="normal" in2="BackgroundImageFix" result="effect1_dropShadow_4406_1458"/>
<feBlend mode="normal" in="SourceGraphic" in2="effect1_dropShadow_4406_1458" result="shape"/>
</filter>
</defs>
</svg>
