<svg width="108" height="54" viewBox="0 0 108 54" fill="none" xmlns="http://www.w3.org/2000/svg">
<g filter="url(#filter0_d_4406_1450)">
<path d="M81.1971 46H26.6029C13.8097 46 3.40002 35.6849 3.40002 22.992C3.40002 10.299 13.8097 0 26.6029 0H81.1809C93.9741 0 104.4 10.3151 104.4 22.992C104.4 35.6689 93.9903 46 81.1809 46H81.1971ZM26.6029 2.28152C15.0907 2.28152 5.70248 11.5844 5.70248 22.992C5.70248 34.3996 15.0745 43.7024 26.6029 43.7024H81.1809C92.7094 43.7024 102.081 34.4156 102.081 22.992C102.081 11.5683 92.7256 2.28152 81.1971 2.28152H26.6029Z" fill="white"/>
<path d="M22.9547 15.0388C20.3928 15.0388 18.3822 13.5927 18.3822 11.745C18.3822 9.89731 20.3928 8.45127 22.9547 8.45127C25.5166 8.45127 27.5272 9.89731 27.5272 11.745C27.5272 13.5927 25.5166 15.0388 22.9547 15.0388ZM22.9547 10.7328C21.544 10.7328 20.6847 11.3915 20.6847 11.745C20.6847 12.0985 21.544 12.7572 22.9547 12.7572C24.3653 12.7572 25.2247 12.0985 25.2247 11.745C25.2247 11.3915 24.3653 10.7328 22.9547 10.7328Z" fill="white"/>
<path d="M33.332 15.0388C30.7701 15.0388 28.7595 13.5927 28.7595 11.745C28.7595 9.89731 30.7701 8.45127 33.332 8.45127C35.8938 8.45127 37.9044 9.89731 37.9044 11.745C37.9044 13.5927 35.8938 15.0388 33.332 15.0388ZM33.332 10.7328C31.9213 10.7328 31.0619 11.3915 31.0619 11.745C31.0619 12.0985 31.9213 12.7572 33.332 12.7572C34.7426 12.7572 35.602 12.0985 35.602 11.745C35.602 11.3915 34.7426 10.7328 33.332 10.7328Z" fill="white"/>
<path d="M43.7092 15.0388C41.1473 15.0388 39.1367 13.5927 39.1367 11.745C39.1367 9.89731 41.1473 8.45127 43.7092 8.45127C46.2711 8.45127 48.2817 9.89731 48.2817 11.745C48.2817 13.5927 46.2711 15.0388 43.7092 15.0388ZM43.7092 10.7328C42.2986 10.7328 41.4392 11.3915 41.4392 11.745C41.4392 12.0985 42.2986 12.7572 43.7092 12.7572C45.1199 12.7572 45.9793 12.0985 45.9793 11.745C45.9793 11.3915 45.1199 10.7328 43.7092 10.7328Z" fill="white"/>
<path d="M54.0865 15.0388C51.5246 15.0388 49.514 13.5927 49.514 11.745C49.514 9.89731 51.5246 8.45127 54.0865 8.45127C56.6484 8.45127 58.659 9.89731 58.659 11.745C58.659 13.5927 56.6484 15.0388 54.0865 15.0388ZM54.0865 10.7328C52.6758 10.7328 51.8165 11.3915 51.8165 11.745C51.8165 12.0985 52.6758 12.7572 54.0865 12.7572C55.4972 12.7572 56.3565 12.0985 56.3565 11.745C56.3565 11.3915 55.4972 10.7328 54.0865 10.7328Z" fill="white"/>
<path d="M64.4638 15.0388C61.9019 15.0388 59.8913 13.5927 59.8913 11.745C59.8913 9.89731 61.9019 8.45127 64.4638 8.45127C67.0256 8.45127 69.0362 9.89731 69.0362 11.745C69.0362 13.5927 67.0256 15.0388 64.4638 15.0388ZM64.4638 10.7328C63.0531 10.7328 62.1937 11.3915 62.1937 11.745C62.1937 12.0985 63.0531 12.7572 64.4638 12.7572C65.8744 12.7572 66.7338 12.0985 66.7338 11.745C66.7338 11.3915 65.8744 10.7328 64.4638 10.7328Z" fill="white"/>
<path d="M74.841 15.0388C72.2791 15.0388 70.2685 13.5927 70.2685 11.745C70.2685 9.89731 72.2791 8.45127 74.841 8.45127C77.4029 8.45127 79.4135 9.89731 79.4135 11.745C79.4135 13.5927 77.4029 15.0388 74.841 15.0388ZM74.841 10.7328C73.4304 10.7328 72.571 11.3915 72.571 11.745C72.571 12.0985 73.4304 12.7572 74.841 12.7572C76.2517 12.7572 77.1111 12.0985 77.1111 11.745C77.1111 11.3915 76.2517 10.7328 74.841 10.7328Z" fill="white"/>
<path d="M85.2183 15.0388C82.6564 15.0388 80.6458 13.5927 80.6458 11.745C80.6458 9.89731 82.6564 8.45127 85.2183 8.45127C87.7802 8.45127 89.7908 9.89731 89.7908 11.745C89.7908 13.5927 87.7802 15.0388 85.2183 15.0388ZM85.2183 10.7328C83.8076 10.7328 82.9483 11.3915 82.9483 11.745C82.9483 12.0985 83.8076 12.7572 85.2183 12.7572C86.629 12.7572 87.4883 12.0985 87.4883 11.745C87.4883 11.3915 86.629 10.7328 85.2183 10.7328Z" fill="white"/>
<path d="M22.9547 25.7234C20.3928 25.7234 18.3822 24.2773 18.3822 22.4296C18.3822 20.5819 20.3928 19.1359 22.9547 19.1359C25.5166 19.1359 27.5272 20.5819 27.5272 22.4296C27.5272 24.2773 25.5166 25.7234 22.9547 25.7234ZM22.9547 21.4174C21.544 21.4174 20.6847 22.0761 20.6847 22.4296C20.6847 22.7831 21.544 23.4418 22.9547 23.4418C24.3653 23.4418 25.2247 22.7831 25.2247 22.4296C25.2247 22.0761 24.3653 21.4174 22.9547 21.4174Z" fill="white"/>
<path d="M33.332 25.7234C30.7701 25.7234 28.7595 24.2773 28.7595 22.4296C28.7595 20.5819 30.7701 19.1359 33.332 19.1359C35.8938 19.1359 37.9044 20.5819 37.9044 22.4296C37.9044 24.2773 35.8938 25.7234 33.332 25.7234ZM33.332 21.4174C31.9213 21.4174 31.0619 22.0761 31.0619 22.4296C31.0619 22.7831 31.9213 23.4418 33.332 23.4418C34.7426 23.4418 35.602 22.7831 35.602 22.4296C35.602 22.0761 34.7426 21.4174 33.332 21.4174Z" fill="white"/>
<path d="M43.7092 25.7234C41.1473 25.7234 39.1367 24.2773 39.1367 22.4296C39.1367 20.5819 41.1473 19.1359 43.7092 19.1359C46.2711 19.1359 48.2817 20.5819 48.2817 22.4296C48.2817 24.2773 46.2711 25.7234 43.7092 25.7234ZM43.7092 21.4174C42.2986 21.4174 41.4392 22.0761 41.4392 22.4296C41.4392 22.7831 42.2986 23.4418 43.7092 23.4418C45.1199 23.4418 45.9793 22.7831 45.9793 22.4296C45.9793 22.0761 45.1199 21.4174 43.7092 21.4174Z" fill="white"/>
<path d="M54.0865 25.7234C51.5246 25.7234 49.514 24.2773 49.514 22.4296C49.514 20.5819 51.5246 19.1359 54.0865 19.1359C56.6484 19.1359 58.659 20.5819 58.659 22.4296C58.659 24.2773 56.6484 25.7234 54.0865 25.7234ZM54.0865 21.4174C52.6758 21.4174 51.8165 22.0761 51.8165 22.4296C51.8165 22.7831 52.6758 23.4418 54.0865 23.4418C55.4972 23.4418 56.3565 22.7831 56.3565 22.4296C56.3565 22.0761 55.4972 21.4174 54.0865 21.4174Z" fill="white"/>
<path d="M64.4638 25.7234C61.9019 25.7234 59.8913 24.2773 59.8913 22.4296C59.8913 20.5819 61.9019 19.1359 64.4638 19.1359C67.0256 19.1359 69.0362 20.5819 69.0362 22.4296C69.0362 24.2773 67.0256 25.7234 64.4638 25.7234ZM64.4638 21.4174C63.0531 21.4174 62.1937 22.0761 62.1937 22.4296C62.1937 22.7831 63.0531 23.4418 64.4638 23.4418C65.8744 23.4418 66.7338 22.7831 66.7338 22.4296C66.7338 22.0761 65.8744 21.4174 64.4638 21.4174Z" fill="white"/>
<path d="M74.841 25.7234C72.2791 25.7234 70.2685 24.2773 70.2685 22.4296C70.2685 20.5819 72.2791 19.1359 74.841 19.1359C77.4029 19.1359 79.4135 20.5819 79.4135 22.4296C79.4135 24.2773 77.4029 25.7234 74.841 25.7234ZM74.841 21.4174C73.4304 21.4174 72.571 22.0761 72.571 22.4296C72.571 22.7831 73.4304 23.4418 74.841 23.4418C76.2517 23.4418 77.1111 22.7831 77.1111 22.4296C77.1111 22.0761 76.2517 21.4174 74.841 21.4174Z" fill="white"/>
<path d="M85.2183 25.7234C82.6564 25.7234 80.6458 24.2773 80.6458 22.4296C80.6458 20.5819 82.6564 19.1359 85.2183 19.1359C87.7802 19.1359 89.7908 20.5819 89.7908 22.4296C89.7908 24.2773 87.7802 25.7234 85.2183 25.7234ZM85.2183 21.4174C83.8076 21.4174 82.9483 22.0761 82.9483 22.4296C82.9483 22.7831 83.8076 23.4418 85.2183 23.4418C86.629 23.4418 87.4883 22.7831 87.4883 22.4296C87.4883 22.0761 86.629 21.4174 85.2183 21.4174Z" fill="white"/>
<path d="M22.9547 35.9581C20.3928 35.9581 18.3822 34.5121 18.3822 32.6643C18.3822 30.8166 20.3928 29.3706 22.9547 29.3706C25.5166 29.3706 27.5272 30.8166 27.5272 32.6643C27.5272 34.5121 25.5166 35.9581 22.9547 35.9581ZM22.9547 31.6521C21.544 31.6521 20.6847 32.3109 20.6847 32.6643C20.6847 33.0178 21.544 33.6766 22.9547 33.6766C24.3653 33.6766 25.2247 33.0178 25.2247 32.6643C25.2247 32.3109 24.3653 31.6521 22.9547 31.6521Z" fill="white"/>
<path d="M33.332 35.9581C30.7701 35.9581 28.7595 34.5121 28.7595 32.6643C28.7595 30.8166 30.7701 29.3706 33.332 29.3706C35.8938 29.3706 37.9044 30.8166 37.9044 32.6643C37.9044 34.5121 35.8938 35.9581 33.332 35.9581ZM33.332 31.6521C31.9213 31.6521 31.0619 32.3109 31.0619 32.6643C31.0619 33.0178 31.9213 33.6766 33.332 33.6766C34.7426 33.6766 35.602 33.0178 35.602 32.6643C35.602 32.3109 34.7426 31.6521 33.332 31.6521Z" fill="white"/>
<path d="M43.7092 35.9581C41.1473 35.9581 39.1367 34.5121 39.1367 32.6643C39.1367 30.8166 41.1473 29.3706 43.7092 29.3706C46.2711 29.3706 48.2817 30.8166 48.2817 32.6643C48.2817 34.5121 46.2711 35.9581 43.7092 35.9581ZM43.7092 31.6521C42.2986 31.6521 41.4392 32.3109 41.4392 32.6643C41.4392 33.0178 42.2986 33.6766 43.7092 33.6766C45.1199 33.6766 45.9793 33.0178 45.9793 32.6643C45.9793 32.3109 45.1199 31.6521 43.7092 31.6521Z" fill="white"/>
<path d="M54.0865 35.9581C51.5246 35.9581 49.514 34.5121 49.514 32.6643C49.514 30.8166 51.5246 29.3706 54.0865 29.3706C56.6484 29.3706 58.659 30.8166 58.659 32.6643C58.659 34.5121 56.6484 35.9581 54.0865 35.9581ZM54.0865 31.6521C52.6758 31.6521 51.8165 32.3109 51.8165 32.6643C51.8165 33.0178 52.6758 33.6766 54.0865 33.6766C55.4972 33.6766 56.3565 33.0178 56.3565 32.6643C56.3565 32.3109 55.4972 31.6521 54.0865 31.6521Z" fill="white"/>
<path d="M64.4638 35.9581C61.9019 35.9581 59.8913 34.5121 59.8913 32.6643C59.8913 30.8166 61.9019 29.3706 64.4638 29.3706C67.0256 29.3706 69.0362 30.8166 69.0362 32.6643C69.0362 34.5121 67.0256 35.9581 64.4638 35.9581ZM64.4638 31.6521C63.0531 31.6521 62.1937 32.3109 62.1937 32.6643C62.1937 33.0178 63.0531 33.6766 64.4638 33.6766C65.8744 33.6766 66.7338 33.0178 66.7338 32.6643C66.7338 32.3109 65.8744 31.6521 64.4638 31.6521Z" fill="white"/>
<path d="M74.841 35.9581C72.2791 35.9581 70.2685 34.5121 70.2685 32.6643C70.2685 30.8166 72.2791 29.3706 74.841 29.3706C77.4029 29.3706 79.4135 30.8166 79.4135 32.6643C79.4135 34.5121 77.4029 35.9581 74.841 35.9581ZM74.841 31.6521C73.4304 31.6521 72.571 32.3109 72.571 32.6643C72.571 33.0178 73.4304 33.6766 74.841 33.6766C76.2517 33.6766 77.1111 33.0178 77.1111 32.6643C77.1111 32.3109 76.2517 31.6521 74.841 31.6521Z" fill="white"/>
<path d="M85.2183 35.9581C82.6564 35.9581 80.6458 34.5121 80.6458 32.6643C80.6458 30.8166 82.6564 29.3706 85.2183 29.3706C87.7802 29.3706 89.7908 30.8166 89.7908 32.6643C89.7908 34.5121 87.7802 35.9581 85.2183 35.9581ZM85.2183 31.6521C83.8076 31.6521 82.9483 32.3109 82.9483 32.6643C82.9483 33.0178 83.8076 33.6766 85.2183 33.6766C86.629 33.6766 87.4883 33.0178 87.4883 32.6643C87.4883 32.3109 86.629 31.6521 85.2183 31.6521Z" fill="white"/>
</g>
<defs>
<filter id="filter0_d_4406_1450" x="2.43187e-05" y="0" width="107.8" height="53.4" filterUnits="userSpaceOnUse" color-interpolation-filters="sRGB">
<feFlood flood-opacity="0" result="BackgroundImageFix"/>
<feColorMatrix in="SourceAlpha" type="matrix" values="0 0 0 0 0 0 0 0 0 0 0 0 0 0 0 0 0 0 127 0" result="hardAlpha"/>
<feOffset dy="4"/>
<feGaussianBlur stdDeviation="1.7"/>
<feComposite in2="hardAlpha" operator="out"/>
<feColorMatrix type="matrix" values="0 0 0 0 0 0 0 0 0 0 0 0 0 0 0 0 0 0 0.25 0"/>
<feBlend mode="normal" in2="BackgroundImageFix" result="effect1_dropShadow_4406_1450"/>
<feBlend mode="normal" in="SourceGraphic" in2="effect1_dropShadow_4406_1450" result="shape"/>
</filter>
</defs>
</svg>
