<svg width="44" height="70" viewBox="0 0 44 70" fill="none" xmlns="http://www.w3.org/2000/svg">
<g filter="url(#filter0_d_4406_1459)">
<path d="M38.4189 0C38.8061 0.323397 39.0754 0.476586 39.1428 1.02126C39.2774 2.11059 39.2774 5.14032 39.1428 6.22966C39.0754 6.79135 38.6882 7.21687 38.1327 7.25091H31.5502C31.3987 7.28495 31.1462 9.2764 31.2977 9.54874C31.3482 9.65086 32.6108 10.5359 32.8465 10.7572C34.631 12.4253 36.2303 14.8252 37.0721 17.1401C37.3077 17.7869 37.8296 20.4421 37.9475 20.6123C38.099 20.8336 38.6545 20.8847 38.9576 21.0379C39.6478 21.4123 40.237 22.2463 40.338 23.0463C40.4222 23.7612 40.439 27.2505 40.2707 27.8292C40.035 28.6122 38.6714 28.6122 38.0317 28.5611L37.8633 28.9015C36.2808 39.1311 35.5064 49.5139 33.8566 59.7264C33.7219 60.5945 33.7387 61.871 32.6108 61.9902C25.3381 61.9221 18.0318 62.1093 10.7927 61.8881C10.4897 61.7519 10.3382 61.4115 10.2204 61.1221L5.96112 28.5611C5.27089 28.5951 3.77258 28.6803 3.52006 27.8292C3.35171 27.2845 3.36854 23.3697 3.52006 22.7399C3.67157 22.0251 4.3618 21.2932 5.00153 20.9698C5.27089 20.8336 5.69176 20.8847 5.86011 20.6294C5.97796 20.4591 6.483 17.872 6.70186 17.2422C9.26077 10.0253 16.6176 5.56584 24.1597 6.65518C24.429 5.08926 24.3954 3.6595 25.2708 2.26378C26.0115 1.07232 27.19 0.425523 28.4862 0H38.4189ZM36.7354 2.41697H29.3785C29.227 2.41697 28.3684 2.70633 28.2001 2.79143C26.7186 3.6595 26.8196 5.68499 26.6849 7.18283L28.8398 7.98281C29.0755 7.16581 28.9071 5.82115 29.429 5.17436C29.4795 5.1233 29.8162 4.83394 29.8499 4.83394H36.7354V2.41697ZM8.36851 20.6974H11.0621C11.483 20.6974 12.0554 21.4123 12.089 21.8549C12.1227 22.3314 11.6177 23.2506 11.1799 23.2506H5.96112C5.99479 23.3697 5.84328 23.5059 5.84328 23.557V26.042H37.9306V23.557C37.9306 23.557 37.7791 23.3697 37.8128 23.2506H20.153C19.6142 23.2506 19.0587 22.2974 19.1597 21.7698C19.4459 20.306 21.4492 20.7825 22.493 20.7145L23.8061 9.08917C21.8196 8.91896 19.9341 9.02109 18.0149 9.58278C13.015 11.0466 9.15976 15.489 8.36851 20.7145V20.6974ZM25.0014 20.6974H27.2741L28.4694 10.7232C28.4357 10.604 26.5839 9.77001 26.365 9.78703L24.9846 20.6804L25.0014 20.6974ZM35.4222 20.6974C34.9004 17.4464 33.2842 14.4167 30.759 12.3402L29.7994 20.6974H35.4222ZM21.4156 28.5781H8.48636C8.67154 29.9909 8.72205 31.4717 8.95774 32.8674C8.97457 32.9695 9.05875 33.1738 9.14292 33.1738C9.2271 33.1738 10.355 32.4419 10.6749 32.3057C13.9914 30.91 17.9139 31.1993 20.9274 33.1738L21.4156 28.5781ZM26.3145 28.5781H23.924L23.2001 34.9269C23.2338 35.2844 25.0519 36.4418 25.1698 36.4418C25.557 36.4418 25.9778 29.2249 26.3145 28.5781ZM35.4222 28.5781H28.8903L27.7455 37.1737H30.0856C30.4391 37.1737 31.7017 36.7141 32.1058 36.5439C32.9643 36.1865 33.8398 35.6248 34.5132 34.978L35.4054 28.5611L35.4222 28.5781ZM27.4088 39.5907C26.7523 44.748 26.2135 49.9394 25.4223 55.0797C25.2371 55.5393 24.7321 55.8286 24.2438 55.8286C23.3011 55.8286 20.2876 55.4201 19.3617 55.1818C18.6547 54.9946 18.2169 54.4669 18.3011 53.701L20.5233 35.9652C17.3079 33.3099 12.6951 33.2929 9.51329 35.9652L12.4426 59.5732H31.365L34.1259 38.3822C32.1058 39.4545 29.6815 39.9992 27.4256 39.5907H27.4088ZM25.0014 38.9779C24.1765 38.7907 23.4526 38.2971 22.7287 37.8886L20.9274 52.901L23.2001 53.1393L25.0014 38.9779Z" fill="white"/>
<path d="M15.3887 20.7315C16.7018 20.4932 17.4594 22.2974 16.2473 23.0633C14.5806 24.1186 13.5032 21.0719 15.3887 20.7315Z" fill="white"/>
</g>
<defs>
<filter id="filter0_d_4406_1459" x="2.43187e-05" y="0" width="43.8" height="69.4" filterUnits="userSpaceOnUse" color-interpolation-filters="sRGB">
<feFlood flood-opacity="0" result="BackgroundImageFix"/>
<feColorMatrix in="SourceAlpha" type="matrix" values="0 0 0 0 0 0 0 0 0 0 0 0 0 0 0 0 0 0 127 0" result="hardAlpha"/>
<feOffset dy="4"/>
<feGaussianBlur stdDeviation="1.7"/>
<feComposite in2="hardAlpha" operator="out"/>
<feColorMatrix type="matrix" values="0 0 0 0 0 0 0 0 0 0 0 0 0 0 0 0 0 0 0.25 0"/>
<feBlend mode="normal" in2="BackgroundImageFix" result="effect1_dropShadow_4406_1459"/>
<feBlend mode="normal" in="SourceGraphic" in2="effect1_dropShadow_4406_1459" result="shape"/>
</filter>
</defs>
</svg>
