<svg width="124" height="52" viewBox="0 0 124 52" fill="none" xmlns="http://www.w3.org/2000/svg">
<g filter="url(#filter0_d_4406_1444)">
<path d="M39.1955 39.4961C38.9134 39.4961 38.647 39.3871 38.4276 39.1846L28.6953 29.5123H20.4832C19.0257 33.593 15.1391 36.3966 10.7353 36.4745C10.6726 36.4745 10.6099 36.4745 10.5472 36.4745C4.73292 36.4745 0 31.7707 0 25.9922C0 20.2137 4.73292 15.51 10.5472 15.51C15.0294 15.51 18.9944 18.3447 20.4832 22.4877H28.711L38.4276 12.8154C38.8507 12.3949 39.5403 12.3949 39.9634 12.8154L47.8934 20.6966L55.8078 12.8154C56.2152 12.4104 56.9361 12.4104 57.3436 12.8154L65.2736 20.6966L73.2036 12.8154C73.6267 12.3949 74.3163 12.3949 74.7394 12.8154L82.6694 20.6966L90.5838 12.8154C91.0069 12.3949 91.6965 12.3949 92.1196 12.8154L101.852 22.4877H112.086C112.211 22.4877 112.336 22.5033 112.446 22.55L119.279 24.9798C119.718 25.1356 120 25.5405 120 25.9922C120 26.4439 119.718 26.8489 119.279 27.0046L112.446 29.45C112.336 29.4967 112.211 29.5123 112.086 29.5123H101.852L92.1196 39.1846C91.6965 39.6051 91.0069 39.6051 90.5838 39.1846L82.6538 31.3034L74.7238 39.1846C74.3006 39.6051 73.6111 39.6051 73.1879 39.1846L65.2579 31.3034L57.3279 39.1846C56.9205 39.5896 56.1996 39.5896 55.7921 39.1846L47.8621 31.3034L39.9321 39.1846C39.7284 39.3871 39.4463 39.4961 39.1642 39.4961H39.1955ZM19.684 27.3473H29.1341C29.4162 27.3473 29.6983 27.4563 29.9021 27.6588L39.1955 36.895L47.1255 29.0138C47.3292 28.8114 47.6113 28.7023 47.8934 28.7023C48.1755 28.7023 48.4576 28.8114 48.6614 29.0138L56.5914 36.895L64.5213 29.0138C64.9288 28.6089 65.6497 28.6089 66.0572 29.0138L73.9872 36.895L81.9172 29.0138C82.3403 28.5933 83.0299 28.5933 83.453 29.0138L91.383 36.895L100.676 27.6588C100.88 27.4563 101.147 27.3473 101.444 27.3473H111.945L115.753 25.9922L111.945 24.6372H101.444C101.162 24.6372 100.88 24.5281 100.676 24.3256L91.3987 15.105L83.4687 22.9862C83.0456 23.4067 82.356 23.4067 81.9329 22.9862L74.0029 15.105L66.0729 22.9862C65.6654 23.3911 64.9445 23.3911 64.537 22.9862L56.607 15.105L48.677 22.9862C48.2539 23.4067 47.5643 23.4067 47.1412 22.9862L39.2112 15.105L29.9334 24.3256C29.7297 24.5281 29.4476 24.6372 29.1655 24.6372H19.6996C19.2138 24.6372 18.775 24.3101 18.6496 23.8428C17.6779 20.1982 14.3398 17.6594 10.5629 17.6594C5.93966 17.6594 2.1784 21.3975 2.1784 26.0078C2.1784 30.6181 5.84563 34.2472 10.3905 34.3406C10.4375 34.3406 10.5002 34.3406 10.5472 34.3406C14.3241 34.3406 17.6466 31.8018 18.6339 28.1728C18.7593 27.7055 19.1824 27.3784 19.684 27.3784V27.3473ZM10.5472 31.6305C7.4285 31.6305 4.87397 29.1073 4.87397 25.9922C4.87397 22.8771 7.41282 20.3539 10.5472 20.3539C13.6816 20.3539 16.2205 22.8771 16.2205 25.9922C16.2205 29.1073 13.6816 31.6305 10.5472 31.6305ZM10.5472 22.5189C8.61956 22.5189 7.0367 24.0764 7.0367 26.0078C7.0367 27.9391 8.60389 29.4967 10.5472 29.4967C12.4905 29.4967 14.0577 27.9391 14.0577 26.0078C14.0577 24.0764 12.4905 22.5189 10.5472 22.5189Z" fill="white"/>
</g>
<defs>
<filter id="filter0_d_4406_1444" x="-3.4" y="12.5" width="126.8" height="34.4" filterUnits="userSpaceOnUse" color-interpolation-filters="sRGB">
<feFlood flood-opacity="0" result="BackgroundImageFix"/>
<feColorMatrix in="SourceAlpha" type="matrix" values="0 0 0 0 0 0 0 0 0 0 0 0 0 0 0 0 0 0 127 0" result="hardAlpha"/>
<feOffset dy="4"/>
<feGaussianBlur stdDeviation="1.7"/>
<feComposite in2="hardAlpha" operator="out"/>
<feColorMatrix type="matrix" values="0 0 0 0 0 0 0 0 0 0 0 0 0 0 0 0 0 0 0.25 0"/>
<feBlend mode="normal" in2="BackgroundImageFix" result="effect1_dropShadow_4406_1444"/>
<feBlend mode="normal" in="SourceGraphic" in2="effect1_dropShadow_4406_1444" result="shape"/>
</filter>
</defs>
</svg>
