<svg width="74" height="53" viewBox="0 0 74 53" fill="none" xmlns="http://www.w3.org/2000/svg">
<g filter="url(#filter0_d_4406_1453)">
<path d="M36.9 45C22.1938 45 8.76458 35.8677 3.47427 22.2875C3.34798 21.9678 3.39007 21.6064 3.58653 21.3284C3.78299 21.0504 4.10574 20.8697 4.45656 20.8697H69.3435C69.6943 20.8697 70.0171 21.0365 70.2135 21.3284C70.41 21.6064 70.4521 21.9678 70.3258 22.2875C65.0355 35.8677 51.6062 45 36.9 45ZM6.02821 22.9547C11.3606 34.9504 23.583 42.915 36.9 42.915C50.217 42.915 62.4394 34.9504 67.7718 22.9547H6.02821Z" fill="white"/>
<path d="M31.3431 18.9515H20.131C19.7381 18.9515 19.3873 18.743 19.2049 18.3955C19.0224 18.048 19.0505 17.6449 19.261 17.3252L24.86 9.17989C25.0565 8.88799 25.3792 8.72119 25.73 8.72119C26.0809 8.72119 26.4036 8.88799 26.6001 9.17989L32.2131 17.3252C32.4376 17.6449 32.4517 18.0619 32.2693 18.3955C32.0868 18.743 31.736 18.9515 31.3431 18.9515ZM22.1237 16.8665H29.3505L25.73 11.6124L22.1237 16.8665Z" fill="white"/>
<path d="M53.6129 18.9515H42.4008C42.0079 18.9515 41.6571 18.743 41.4747 18.3955C41.2922 18.048 41.3203 17.6449 41.5308 17.3252L47.1439 9.17989C47.3403 8.88799 47.6631 8.72119 48.0139 8.72119C48.3647 8.72119 48.6874 8.88799 48.8839 9.17989L54.4829 17.3252C54.7075 17.6449 54.7215 18.0619 54.5391 18.3955C54.3566 18.7291 54.0058 18.9515 53.6129 18.9515ZM44.3935 16.8665H51.6203L48.0139 11.6124L44.3935 16.8665Z" fill="white"/>
<path d="M57.949 18.9515C57.542 18.9515 57.1211 18.9376 56.7001 18.8959C56.1949 18.8403 55.802 18.4511 55.7599 17.9646C55.3951 14.2534 56.7001 10.6255 59.3523 8.01229C62.0044 5.39911 65.6669 4.09251 69.3996 4.45391C69.9048 4.50951 70.2977 4.89871 70.3398 5.38521C70.7047 9.09649 69.3996 12.7244 66.7475 15.3376C64.39 17.6727 61.2326 18.9515 57.935 18.9515H57.949ZM57.8087 16.8665C57.8087 16.8665 57.9069 16.8665 57.949 16.8665C60.6994 16.8665 63.3235 15.7963 65.274 13.8642C67.2246 11.9321 68.3472 9.23549 68.3051 6.4694C65.5266 6.4138 62.8324 7.498 60.8397 9.47179C58.8471 11.4456 57.7666 14.1005 57.8087 16.8665Z" fill="white"/>
<path d="M15.8651 18.9515C12.5674 18.9515 9.41008 17.6727 7.05259 15.3376C4.40042 12.7383 3.09539 9.09649 3.46024 5.38521C3.51637 4.88481 3.90928 4.49561 4.40043 4.45391C8.14714 4.07861 11.8097 5.38521 14.4478 8.01229C17.1 10.6394 18.405 14.2673 18.0402 17.9646C17.9981 18.465 17.5911 18.8542 17.1 18.8959C16.679 18.9376 16.272 18.9515 15.8511 18.9515H15.8651ZM5.509 6.4694C5.46691 9.24939 6.54742 11.9043 8.54005 13.8642C10.5327 15.838 13.255 16.936 16.0054 16.8665C16.0475 14.1005 14.967 11.4456 12.9744 9.47179C10.9817 7.498 8.2594 6.386 5.509 6.4694Z" fill="white"/>
<path d="M36.6053 19.5492C36.3528 19.5492 36.1142 19.4658 35.9177 19.299C33.0972 16.8665 31.5536 13.336 31.6658 9.61079C31.7781 5.8995 33.5603 2.48012 36.5632 0.214434C36.9562 -0.091364 37.5175 -0.0635641 37.8963 0.256134C40.7169 2.70252 42.2605 6.2331 42.1482 9.94438C42.036 13.6557 40.2538 17.075 37.2649 19.3407C37.0825 19.4797 36.8439 19.5492 36.6194 19.5492H36.6053ZM37.1526 2.42452C35.0758 4.28711 33.869 6.8864 33.7707 9.66638C33.6866 12.4603 34.725 15.1291 36.6474 17.1028C38.7102 15.2403 39.9311 12.641 40.0293 9.86098C40.1135 7.0671 39.0751 4.41221 37.1526 2.42452Z" fill="white"/>
<path d="M21.0852 10.3336C18.3489 10.3336 16.1317 8.13739 16.1317 5.42691C16.1317 2.71642 18.3629 0.534133 21.0993 0.534133C23.8356 0.534133 26.0528 2.73032 26.0528 5.42691H23.9479C23.9479 3.88402 22.6709 2.61912 21.0993 2.61912C19.5276 2.61912 18.2366 3.88402 18.2366 5.42691C18.2366 6.9698 19.5136 8.24859 21.0852 8.24859C22.6569 8.24859 23.9339 6.9837 23.9339 5.42691H26.0388C26.0388 8.13739 23.8216 10.3336 21.0852 10.3336Z" fill="white"/>
<path d="M53.6129 10.3336C50.8765 10.3336 48.6594 8.13739 48.6594 5.42691C48.6594 2.71642 50.8765 0.534133 53.6129 0.534133C56.3493 0.534133 58.5664 2.73032 58.5664 5.42691C58.5664 8.12349 56.3493 10.3336 53.6129 10.3336ZM53.6129 2.61912C52.0412 2.61912 50.7643 3.88402 50.7643 5.42691C50.7643 6.9698 52.0412 8.24859 53.6129 8.24859C55.1846 8.24859 56.4615 6.9837 56.4615 5.42691C56.4615 3.87012 55.1846 2.61912 53.6129 2.61912Z" fill="white"/>
</g>
<defs>
<filter id="filter0_d_4406_1453" x="2.43187e-05" y="0" width="73.8" height="52.4" filterUnits="userSpaceOnUse" color-interpolation-filters="sRGB">
<feFlood flood-opacity="0" result="BackgroundImageFix"/>
<feColorMatrix in="SourceAlpha" type="matrix" values="0 0 0 0 0 0 0 0 0 0 0 0 0 0 0 0 0 0 127 0" result="hardAlpha"/>
<feOffset dy="4"/>
<feGaussianBlur stdDeviation="1.7"/>
<feComposite in2="hardAlpha" operator="out"/>
<feColorMatrix type="matrix" values="0 0 0 0 0 0 0 0 0 0 0 0 0 0 0 0 0 0 0.25 0"/>
<feBlend mode="normal" in2="BackgroundImageFix" result="effect1_dropShadow_4406_1453"/>
<feBlend mode="normal" in="SourceGraphic" in2="effect1_dropShadow_4406_1453" result="shape"/>
</filter>
</defs>
</svg>
