<svg width="127" height="50" viewBox="0 0 127 50" fill="none" xmlns="http://www.w3.org/2000/svg">
<g filter="url(#filter0_d_4406_1447)">
<path d="M106.405 42L52.132 40.9996C51.4953 40.9996 50.9791 40.4821 50.9447 39.8439C50.9103 39.2057 51.3749 38.6538 52.0116 38.5676C67.6705 36.584 80.7311 28.0632 88.9564 21.1984C89.3866 20.7154 90.1437 20.6637 90.6427 21.0776C95.0479 24.7688 99.0056 28.9084 102.361 33.3585L107.403 40.0337C107.678 40.4131 107.73 40.9133 107.523 41.3273C107.317 41.7413 106.904 42 106.439 42H106.405ZM62.5599 38.7573L103.927 39.5335L100.399 34.8591C97.3537 30.8057 93.7917 27.0283 89.834 23.6304C83.2434 29.0292 73.8137 35.2903 62.5599 38.7745V38.7573Z" fill="white"/>
<path d="M98.7647 26.6834C98.455 26.6834 98.1453 26.5626 97.9044 26.3212L91.9849 20.3877C91.744 20.1462 91.6236 19.8357 91.6236 19.4908C91.6236 19.163 91.7784 18.8353 92.0193 18.6111C97.1644 13.9023 103.118 5.60575 103.979 4.38111C104.185 3.98439 104.598 3.70842 105.063 3.70842H105.08C105.08 3.70842 105.252 3.70842 105.338 3.74292C108.642 4.24312 110.896 5.554 112.015 7.64107C113.202 9.84887 113.013 12.7639 111.464 16.0756C109.175 21.0086 99.7456 26.2867 99.3498 26.5109C99.1605 26.6144 98.954 26.6661 98.7647 26.6661V26.6834ZM94.6005 19.5598L98.9712 23.9409C101.931 22.1988 107.799 18.2489 109.279 15.0752C110.122 13.2641 110.913 10.7285 109.898 8.83121C109.227 7.57207 107.799 6.7269 105.648 6.29569C104.151 8.38275 99.281 15.0234 94.6177 19.5598H94.6005Z" fill="white"/>
<path d="M110.053 41.655C109.657 41.655 109.261 41.448 109.038 41.1031C108.986 41.0341 104.392 34.0657 99.6251 28.6842C99.3842 28.4255 99.281 28.0632 99.3326 27.7183C99.3842 27.3733 99.5735 27.0456 99.8832 26.8559L106.663 22.492C106.973 22.3023 107.334 22.2505 107.678 22.354C107.971 22.4402 114.94 24.6998 117.28 29.7708C118.64 32.6858 118.76 35.3421 117.642 37.4292C116.437 39.6715 113.942 41.0858 110.225 41.655C110.173 41.655 110.105 41.655 110.053 41.655ZM102.378 28.1495C106.044 32.4616 109.433 37.3602 110.621 39.1023C113.099 38.6193 114.768 37.6361 115.508 36.2735C116.437 34.5314 115.783 32.3236 115.078 30.7885C113.512 27.4078 109.003 25.4415 107.472 24.855L102.378 28.1322V28.1495Z" fill="white"/>
<path d="M117.934 28.3392C117.59 28.3392 117.263 28.2012 117.022 27.9425C114.682 25.3207 111.791 23.2854 109.33 22.4747C108.934 22.354 108.625 22.0263 108.521 21.6296C108.418 21.2329 108.521 20.8016 108.814 20.4912L109.003 20.2842C110.879 18.2661 112.359 16.662 112.961 12.9018C113.03 12.4706 113.322 12.1084 113.735 11.9532C113.907 11.8842 117.865 10.4181 120.722 12.1947C122.236 13.1433 123.114 14.7647 123.337 17.007C124.026 24.4583 118.829 27.9942 118.622 28.1495C118.416 28.2875 118.192 28.3565 117.951 28.3565L117.934 28.3392ZM111.774 20.8361C113.873 21.8538 116.093 23.4752 118.02 25.4415C119.207 24.2858 121.29 21.6123 120.894 17.214C120.756 15.7478 120.274 14.7819 119.431 14.2472C118.209 13.471 116.334 13.7298 115.215 14.023C114.561 17.283 113.254 19.163 111.774 20.8361Z" fill="white"/>
<path d="M39.7769 38.2571C38.7273 38.2571 37.6604 38.2398 36.6107 38.1881L4.51849 35.6698C3.88181 35.6181 3.39999 35.0834 3.39999 34.4624V6.55441C3.39999 5.89897 3.89902 5.36427 4.55291 5.32977L103.187 0C103.669 0 104.099 0.22423 104.323 0.638193C104.547 1.05216 104.512 1.56961 104.22 1.94908L99.1777 8.62423C85.0675 27.3216 63.0417 38.2398 39.7769 38.2398V38.2571ZM5.82627 33.3413L36.7484 35.7561C60.3573 36.8082 82.9681 26.0797 97.2333 7.17536L100.692 2.58727L5.82627 7.69281V33.3413ZM34.8556 30.3573C31.414 30.3573 28.7296 28.529 28.7296 26.2177C28.7296 23.9064 31.414 22.078 34.8556 22.078C38.2971 22.078 40.9815 23.9064 40.9815 26.2177C40.9815 28.529 38.2971 30.3573 34.8556 30.3573ZM34.8556 24.4928C32.6358 24.4928 31.1559 25.5277 31.1559 26.2004C31.1559 26.8731 32.6358 27.908 34.8556 27.908C37.0753 27.908 38.5552 26.8731 38.5552 26.2004C38.5552 25.5277 37.0753 24.4928 34.8556 24.4928ZM13.9655 29.6156C11.2123 29.6156 9.06131 28.115 9.06131 26.2004C9.06131 24.2858 11.2123 22.7852 13.9655 22.7852C16.7187 22.7852 18.8697 24.2858 18.8697 26.2004C18.8697 28.115 16.7187 29.6156 13.9655 29.6156ZM13.9655 25.2345C12.3308 25.2345 11.4876 25.9589 11.4876 26.2177C11.4876 26.4764 12.348 27.1836 13.9655 27.1836C15.583 27.1836 16.4434 26.4591 16.4434 26.2177C16.4434 25.9762 15.583 25.2345 13.9655 25.2345ZM59.1183 26.3039C56.3135 26.3039 54.2142 24.8378 54.2142 22.8887C54.2142 20.9396 56.3307 19.4735 59.1183 19.4735C61.906 19.4735 64.0225 20.9741 64.0225 22.8887C64.0225 24.8033 61.8716 26.3039 59.1183 26.3039ZM59.1183 21.9228C57.5696 21.9228 56.6404 22.5955 56.6404 22.906C56.6404 23.1647 57.5008 23.8719 59.1183 23.8719C60.7359 23.8719 61.5962 23.1474 61.5962 22.906C61.5962 22.6645 60.7359 21.9228 59.1183 21.9228ZM21.8638 17.1277C19.1106 17.1277 16.9596 15.6271 16.9596 13.7125C16.9596 11.7979 19.1106 10.2973 21.8638 10.2973C24.617 10.2973 26.768 11.7979 26.768 13.7125C26.768 15.6271 24.617 17.1277 21.8638 17.1277ZM21.8638 12.7294C20.2291 12.7294 19.3859 13.4538 19.3859 13.7125C19.3859 13.9713 20.2463 14.6957 21.8638 14.6957C23.4813 14.6957 24.3417 13.9713 24.3417 13.7125C24.3417 13.4538 23.4813 12.7294 21.8638 12.7294ZM72.3682 14.9372C68.9267 14.9372 66.2423 13.1088 66.2423 10.7975C66.2423 8.48624 68.9267 6.65791 72.3682 6.65791C75.8097 6.65791 78.4941 8.48624 78.4941 10.7975C78.4941 13.1088 75.8097 14.9372 72.3682 14.9372ZM72.3682 9.08994C70.1484 9.08994 68.6686 10.1248 68.6686 10.7975C68.6686 11.4702 70.1484 12.5051 72.3682 12.5051C74.588 12.5051 76.0679 11.4702 76.0679 10.7975C76.0679 10.1248 74.588 9.08994 72.3682 9.08994ZM44.4058 14.9372C41.6526 14.9372 39.5016 13.4366 39.5016 11.522C39.5016 9.60739 41.6526 8.10678 44.4058 8.10678C47.159 8.10678 49.31 9.60739 49.31 11.522C49.31 13.4366 47.159 14.9372 44.4058 14.9372ZM44.4058 10.5388C42.7711 10.5388 41.9279 11.2632 41.9279 11.522C41.9279 11.7807 42.7883 12.5051 44.4058 12.5051C46.0233 12.5051 46.8837 11.7807 46.8837 11.522C46.8837 11.2632 46.0233 10.5388 44.4058 10.5388Z" fill="white"/>
</g>
<defs>
<filter id="filter0_d_4406_1447" x="-6.19888e-06" y="0" width="126.8" height="49.4" filterUnits="userSpaceOnUse" color-interpolation-filters="sRGB">
<feFlood flood-opacity="0" result="BackgroundImageFix"/>
<feColorMatrix in="SourceAlpha" type="matrix" values="0 0 0 0 0 0 0 0 0 0 0 0 0 0 0 0 0 0 127 0" result="hardAlpha"/>
<feOffset dy="4"/>
<feGaussianBlur stdDeviation="1.7"/>
<feComposite in2="hardAlpha" operator="out"/>
<feColorMatrix type="matrix" values="0 0 0 0 0 0 0 0 0 0 0 0 0 0 0 0 0 0 0.25 0"/>
<feBlend mode="normal" in2="BackgroundImageFix" result="effect1_dropShadow_4406_1447"/>
<feBlend mode="normal" in="SourceGraphic" in2="effect1_dropShadow_4406_1447" result="shape"/>
</filter>
</defs>
</svg>
