<svg width="104" height="27" viewBox="0 0 104 27" fill="none" xmlns="http://www.w3.org/2000/svg">
<g filter="url(#filter0_d_4406_1449)">
<path d="M11.45 18.6266L3.40002 0.351562H7.67502L10.125 6.47656C10.7584 8.0599 11.2584 9.41823 11.625 10.5516L12.925 7.40156L13.925 5.12656L16 0.476562H16.15C18.6667 6.14323 20.1167 9.50156 20.5 10.5516L24.475 0.351562H28.775L20.7 18.6266H20.525L17 10.5766C16.75 10.0266 16.4417 9.3099 16.075 8.42656C15.9084 8.87656 15.6084 9.59323 15.175 10.5766L11.625 18.6266H11.45ZM32.9428 18.3516V0.351562H39.2678C41.4178 0.351562 43.1095 0.876562 44.3428 1.92656C45.5928 2.9599 46.2178 4.4099 46.2178 6.27656C46.2178 7.49323 45.9095 8.55156 45.2928 9.45156C44.6928 10.3349 43.8595 10.9849 42.7928 11.4016L46.5678 18.3516H42.4928L39.3178 12.0516H36.7178V18.3516H32.9428ZM39.3678 3.57656H36.7178V8.95156H39.4678C40.3678 8.95156 41.0678 8.72656 41.5678 8.27656C42.0845 7.8099 42.3428 7.14323 42.3428 6.27656C42.3428 5.4099 42.0761 4.74323 41.5428 4.27656C41.0095 3.8099 40.2845 3.57656 39.3678 3.57656ZM53.4768 18.3516H49.4518L58.1768 0.0765623H58.3268L67.0768 18.3516H63.0518L61.6018 15.1766H54.8768L53.4768 18.3516ZM56.0518 12.4766H60.4518C59.4518 10.1932 58.7268 8.4099 58.2768 7.12656L57.3518 9.37656C56.7184 10.9099 56.2851 11.9432 56.0518 12.4766ZM77.0106 12.2016H75.0106V18.3516H71.1606V0.351562H77.0106C79.1439 0.351562 80.8272 0.868228 82.0606 1.90156C83.3106 2.9349 83.9356 4.39323 83.9356 6.27656C83.9356 8.1599 83.3106 9.61823 82.0606 10.6516C80.8272 11.6849 79.1439 12.2016 77.0106 12.2016ZM77.1106 3.57656H75.0106V8.95156H77.2106C78.0772 8.95156 78.7606 8.71823 79.2606 8.25156C79.7772 7.7849 80.0356 7.12656 80.0356 6.27656C80.0356 5.4099 79.7689 4.74323 79.2356 4.27656C78.7189 3.8099 78.0106 3.57656 77.1106 3.57656ZM93.1465 18.7016C91.1465 18.7016 89.3632 18.3599 87.7965 17.6766V13.9766C89.2465 14.7432 90.7548 15.1766 92.3215 15.2766C92.9715 15.3099 93.5048 15.2766 93.9215 15.1766C95.3715 14.9599 96.0965 14.4266 96.0965 13.5766C96.0965 13.0266 95.8382 12.5599 95.3215 12.1766C94.8215 11.7932 93.8965 11.3516 92.5465 10.8516C90.8465 10.2349 89.5798 9.5099 88.7465 8.67656C87.9465 7.8599 87.5465 6.71823 87.5465 5.25156C87.5465 3.66823 88.1465 2.40156 89.3465 1.45156C90.5298 0.484895 92.1048 0.00156182 94.0715 0.00156182C95.8548 0.00156182 97.4215 0.301562 98.7715 0.901562V4.45156C97.5382 3.71823 96.0715 3.35156 94.3715 3.35156C93.4382 3.35156 92.6965 3.52656 92.1465 3.87656C91.5965 4.2099 91.3215 4.6599 91.3215 5.22656C91.3215 5.74323 91.5798 6.2099 92.0965 6.62656C92.6298 7.02656 93.5132 7.4599 94.7465 7.92656C96.4965 8.6099 97.7798 9.3599 98.5965 10.1766C99.4298 10.9766 99.8465 12.0849 99.8465 13.5016C99.8465 15.1349 99.2548 16.4099 98.0715 17.3266C96.9048 18.2432 95.2632 18.7016 93.1465 18.7016Z" fill="white"/>
</g>
<defs>
<filter id="filter0_d_4406_1449" x="2.43187e-05" y="0" width="103.246" height="26.1031" filterUnits="userSpaceOnUse" color-interpolation-filters="sRGB">
<feFlood flood-opacity="0" result="BackgroundImageFix"/>
<feColorMatrix in="SourceAlpha" type="matrix" values="0 0 0 0 0 0 0 0 0 0 0 0 0 0 0 0 0 0 127 0" result="hardAlpha"/>
<feOffset dy="4"/>
<feGaussianBlur stdDeviation="1.7"/>
<feComposite in2="hardAlpha" operator="out"/>
<feColorMatrix type="matrix" values="0 0 0 0 0 0 0 0 0 0 0 0 0 0 0 0 0 0 0.25 0"/>
<feBlend mode="normal" in2="BackgroundImageFix" result="effect1_dropShadow_4406_1449"/>
<feBlend mode="normal" in="SourceGraphic" in2="effect1_dropShadow_4406_1449" result="shape"/>
</filter>
</defs>
</svg>
