<svg width="77" height="60" viewBox="0 0 77 60" fill="none" xmlns="http://www.w3.org/2000/svg">
<g filter="url(#filter0_d_4406_1456)">
<path d="M72.565 28.3899C71.553 26.723 69.7662 25.6637 67.7738 25.5235L8.6973 25.5702C6.26213 25.8506 4.33298 27.4396 3.65303 29.7296C2.98889 31.9573 3.70047 34.2474 5.53475 35.7273C5.69287 35.8675 6.29376 36.1947 6.65745 36.3972C7.38484 36.8022 7.51134 36.8801 7.65366 37.0982C7.81178 37.3475 7.8276 37.6123 7.90666 39.5596C7.93829 40.2762 7.9541 40.9928 7.98572 41.2576C8.8238 47.0528 13.789 51.5549 19.8295 51.9756C21.8219 51.9444 23.8143 51.9444 25.8225 51.9444C28.653 51.9444 31.4993 51.96 34.3456 51.9756C42.2362 52.0067 50.3955 52.0535 58.381 51.7886C65.0382 50.776 69.608 44.716 68.9281 37.6746L68.8807 37.1449L69.355 36.8957C70.6991 36.2102 72.1697 35.3067 72.8655 33.7644C73.6719 31.9885 73.5612 30.0256 72.565 28.3899ZM66.1609 40.8059C66.1609 44.2954 61.923 48.7041 58.1912 49.078C53.1311 49.2649 48.0078 49.3117 42.9477 49.3117C40.1805 49.3117 37.4133 49.2961 34.6935 49.2805C29.839 49.2493 24.8421 49.2338 19.9244 49.2805C15.1805 49.1559 10.5632 44.5914 10.5632 40.0737V37.0203H66.1609V40.8059ZM68.1375 34.3097H8.72892C7.17927 33.9825 6.13563 32.7674 6.13563 31.2875C6.15144 30.0568 6.9579 28.6392 8.77636 28.2653L67.6789 28.2185C69.3867 28.3899 70.5726 29.6206 70.6517 31.2096C70.6991 32.5026 69.9559 33.9514 68.1375 34.3097Z" fill="white"/>
<path d="M4.07997 21.4264C4.52273 21.6756 5.06036 21.6756 5.50312 21.4108C5.93007 21.1771 6.29376 20.8344 6.67326 20.4761C7.73272 19.5102 9.02937 18.3107 11.5436 19.6349C12.2077 19.9776 12.6979 20.3515 13.1249 20.663C13.9788 21.3017 14.6113 21.7535 16.1451 21.9093C18.2956 22.0962 19.0863 21.5666 20.3987 20.6786C20.8415 20.367 21.3317 20.0399 21.9326 19.6972C22.6916 19.261 23.3715 19.0896 23.9882 19.0896C25.2374 19.0896 26.2178 19.8062 27.0559 20.4294C27.641 20.85 28.2102 21.255 28.8428 21.4887C31.8472 22.548 33.2387 21.7691 35.8636 20.0243C38.5043 18.264 39.9907 19.37 41.319 20.3359C41.8883 20.7565 42.4733 21.1771 43.1849 21.4419C44.9718 22.0962 46.6795 22.0651 48.3873 21.3173C48.8301 21.1304 49.257 20.8032 49.7156 20.4449C50.3955 19.9308 51.0913 19.3856 51.961 19.2142C53.8269 18.8248 54.8706 19.666 55.8193 20.3982C56.2621 20.7565 56.689 21.0992 57.2108 21.3173C59.0135 22.0962 61.0533 22.0962 62.8244 21.3173C63.3146 21.1148 63.7257 20.7877 64.1684 20.4449C64.9907 19.7906 65.9237 19.0585 67.4259 19.1208C68.8174 19.1831 69.7187 20.0087 70.4461 20.6786C71.1103 21.2862 71.5372 21.6445 72.1065 21.6289C72.5176 21.6133 72.8655 21.4264 73.1027 21.0992C73.3715 20.7409 73.4505 20.2736 73.324 19.8062C73.1185 19.0429 70.5884 17.1579 69.4815 16.8152L68.9755 16.6594L68.9281 16.1297C68.2007 7.04754 61.3538 0.629246 51.8819 0.161895C46.2526 -0.118515 40.3386 0.0216898 34.6302 0.161895C30.7561 0.255365 26.7555 0.348836 22.8813 0.317679C14.8326 1.2368 8.23873 8.16918 7.96991 16.0986L7.93829 16.675L7.38484 16.8308C6.00913 17.2046 3.40002 19.3233 3.40002 20.2736C3.40002 20.7565 3.65303 21.1927 4.07997 21.4264ZM10.7371 15.8805C11.1957 8.77673 17.0464 3.29315 24.6207 2.85695C30.2501 2.52981 36.1799 2.68559 41.9199 2.84137C45.8731 2.966 49.937 3.07505 53.8111 3.02832C60.4841 3.9786 65.6232 9.38429 66.1609 15.8805L66.2241 16.6282L65.4651 16.7217C64.6112 16.8152 63.8838 17.3448 63.109 17.9057C62.2393 18.5288 61.2273 19.261 59.9623 19.261C59.3772 19.261 58.7289 19.1052 58.0331 18.7157C57.4164 18.3574 56.9104 18.0147 56.436 17.6876C55.1236 16.784 54.3329 16.2388 52.1508 16.4569C50.6169 16.5971 49.9528 17.08 49.1305 17.6876C48.6719 18.0303 48.1501 18.4197 47.4386 18.778C45.2406 19.8841 43.8016 18.8404 42.5366 17.9368C41.9515 17.5006 41.3981 17.0956 40.7339 16.8619C39.1052 16.2855 37.524 16.3011 35.8952 16.8931C35.3102 17.1267 34.8042 17.5006 34.2507 17.9057C33.128 18.7625 31.7049 19.8218 29.5385 18.8871C29.0958 18.7002 28.7162 18.373 28.3526 18.0614C28.147 17.8901 27.9414 17.7031 27.7359 17.5785C25.696 16.2855 23.3715 16.0986 21.2052 17.0333C20.7308 17.2358 20.3197 17.5629 19.8769 17.9057C19.0705 18.5288 18.1533 19.2298 16.7934 19.2298C15.4335 19.2298 14.469 18.4821 13.5993 17.8278C12.8877 17.2981 12.2235 16.7996 11.4487 16.7061L10.6897 16.6282L10.7371 15.8805Z" fill="white"/>
</g>
<defs>
<filter id="filter0_d_4406_1456" x="2.43187e-05" y="0" width="76.8" height="59.4" filterUnits="userSpaceOnUse" color-interpolation-filters="sRGB">
<feFlood flood-opacity="0" result="BackgroundImageFix"/>
<feColorMatrix in="SourceAlpha" type="matrix" values="0 0 0 0 0 0 0 0 0 0 0 0 0 0 0 0 0 0 127 0" result="hardAlpha"/>
<feOffset dy="4"/>
<feGaussianBlur stdDeviation="1.7"/>
<feComposite in2="hardAlpha" operator="out"/>
<feColorMatrix type="matrix" values="0 0 0 0 0 0 0 0 0 0 0 0 0 0 0 0 0 0 0.25 0"/>
<feBlend mode="normal" in2="BackgroundImageFix" result="effect1_dropShadow_4406_1456"/>
<feBlend mode="normal" in="SourceGraphic" in2="effect1_dropShadow_4406_1456" result="shape"/>
</filter>
</defs>
</svg>
