<svg width="15" height="15" viewBox="0 0 15 15" fill="none" xmlns="http://www.w3.org/2000/svg">
<path d="M15 7.5C15 11.6458 11.6458 15 7.5 15C3.35417 15 0 11.6458 0 7.5C0 3.35417 3.35417 0 7.5 0C11.6458 0 15 3.35417 15 7.5Z" fill="#DE3926"/>
<path d="M11.1354 5.15625C11.1667 5.29167 11.2083 5.41667 11.2396 5.55208C11.4167 6.28125 11.3854 7 11.1771 7.71875C10.875 8.79167 10.2604 9.64583 9.41667 10.3542C8.8125 10.8646 8.13542 11.25 7.40625 11.5521C6.67708 11.8438 5.92708 12.0313 5.14583 12.0417C4.5625 12.0417 3.97917 11.9688 3.44792 11.7188C3.20833 11.6042 2.98958 11.4583 2.82292 11.2396C2.61458 10.9583 2.63542 10.625 2.89583 10.3854C3 10.2917 3.11458 10.1979 3.25 10.1354C3.72917 9.91667 4.21875 9.71875 4.69792 9.5C5.08333 9.32292 5.44792 9.11458 5.78125 8.83333C6.13542 8.53125 6.36458 8.14583 6.51042 7.71875C6.69792 7.17708 6.77083 6.61458 6.89583 6.0625C6.96875 5.72917 7.0625 5.39583 7.1875 5.07292C7.375 4.57292 7.75 4.22917 8.21875 3.98958C8.54167 3.82292 8.875 3.72917 9.23958 3.71875C9.30208 3.71875 9.33333 3.69792 9.34375 3.63542C9.41667 3.30208 9.36458 2.98958 9.27083 2.66667C9.23958 2.55208 9.19792 2.44792 9.15625 2.33333C9.34375 2.25 9.52083 2.16667 9.69792 2.08333C9.70833 2.11458 9.72917 2.14583 9.73958 2.17708C9.73958 2.21875 9.76042 2.25 9.77083 2.29167C9.94792 2.78125 10.0417 3.29167 9.91667 3.8125C9.9375 3.82292 9.95833 3.83333 9.98958 3.84375C10.2396 3.94792 10.4583 4.10417 10.6354 4.32292C10.7396 4.44792 10.8333 4.57292 10.9271 4.70833C11 4.86458 11.0833 5.03125 11.1563 5.1875M7.61458 5.5C7.54167 5.8125 7.47917 6.10417 7.41667 6.39583C7.30208 6.97917 7.1875 7.5625 6.96875 8.125C6.78125 8.59375 6.48958 9 6.10417 9.3125C5.58333 9.73958 4.96875 10.0104 4.35417 10.2812C4.04167 10.4167 3.71875 10.5625 3.40625 10.7083C3.26042 10.7812 3.25 10.8542 3.38542 10.9583C3.51042 11.0625 3.65625 11.1563 3.80208 11.2188C4.33333 11.4583 4.89583 11.4896 5.45833 11.4271C6.47917 11.3229 7.40625 10.9583 8.27083 10.4271C8.86458 10.0625 9.39583 9.61458 9.83333 9.0625C10.4167 8.33333 10.7813 7.52083 10.7813 6.57292C10.7813 6.32292 10.7396 6.07292 10.7188 5.8125C10.3125 5.98958 10.0313 6.28125 9.72917 6.5625C9.55208 6.20833 9.38542 5.88542 9.125 5.59375C8.77083 5.72917 8.47917 5.95833 8.17708 6.16667C8.03125 5.91667 7.875 5.6875 7.63542 5.48958M8.3125 5.35417C8.3125 5.35417 8.40625 5.30208 8.45833 5.27083C8.69792 5.125 8.94792 5.01042 9.21875 4.95833C9.26042 4.95833 9.32292 4.96875 9.35417 5C9.44792 5.09375 9.54167 5.19792 9.625 5.30208C9.70833 5.40625 9.78125 5.51042 9.86458 5.61458C10.0833 5.48958 10.2813 5.36458 10.5104 5.23958C10.4375 5.10417 10.3646 4.95833 10.2812 4.82292C10.0312 4.45833 9.67708 4.27083 9.22917 4.28125C8.85417 4.29167 8.52083 4.4375 8.21875 4.65625C8.10417 4.73958 8 4.84375 7.89583 4.9375C8.04167 5.08333 8.17708 5.20833 8.3125 5.34375" fill="white"/>
</svg>
