<svg width="10" height="11" viewBox="0 0 10 11" fill="none" xmlns="http://www.w3.org/2000/svg">
<path d="M7.11159 0C7.13711 0.19357 7.14394 0.369386 7.1852 0.562383C7.45709 1.83032 8.65835 2.7641 10 2.74892V4.5529C8.96319 4.5529 7.96377 4.21787 7.13414 3.62943L7.13474 7.76455C7.04599 9.25498 5.93912 10.5415 4.44134 10.8955L3.84531 10.996C3.66365 10.9868 3.46983 11.0086 3.28995 10.996C1.64672 10.8809 0.225221 9.60461 0.0266446 8.01883C-0.246139 5.83945 1.61377 4.03662 3.85629 4.18809C3.90319 4.19124 4.11216 4.21358 4.11216 4.24164V6.0565C2.74112 5.62526 1.45378 6.94503 2.04209 8.24017C2.73548 9.76725 5.12196 9.37296 5.24633 7.70041L5.24544 0.000572691H7.11188L7.11159 0Z" fill="white"/>
</svg>
