<svg width="118" height="96" viewBox="0 0 118 96" fill="none" xmlns="http://www.w3.org/2000/svg">
<path d="M79.2668 4.51897C79.4181 4.77229 79.4918 5.52836 79.4918 6.78328C79.4918 18.8219 77.5601 31.0125 73.7005 43.3513C69.3405 57.1515 63.5996 68.664 56.4779 77.881C47.3041 89.7676 37.0985 95.7149 25.8689 95.7149C16.9938 95.7149 10.3258 93.244 5.86501 88.3101C1.955 84.0309 0 78.2123 0 70.8581C0 62.7518 2.57952 52.8021 7.74631 41.0129C12.4593 30.2331 15.7176 24.8432 17.5213 24.8432C17.9209 24.8432 18.1226 25.1238 18.1226 25.6772C18.1226 26.1799 16.218 30.6774 12.4088 39.1656C8.59968 47.6538 6.69511 54.4156 6.69511 59.4509C6.69511 64.9928 8.67338 69.65 12.6338 73.4264C16.796 77.3549 22.211 79.3191 28.879 79.3191C36.7998 79.3191 44.647 76.2441 52.4166 70.1021C59.6858 64.3575 64.422 57.9894 66.6291 50.986C67.8316 47.3109 68.685 42.5991 69.1854 36.8584C69.484 32.778 69.7905 28.6742 70.0892 24.5392C70.2909 22.8283 71.6795 19.0635 74.2629 13.2449C76.8463 7.42633 78.5143 4.51897 79.2629 4.51897M48.2118 37.6106C48.2622 39.3722 47.1567 41.5118 44.903 44.0333C42.7967 46.3483 41.2917 47.533 40.3917 47.5837C37.9364 45.4675 35.1784 43.3785 32.1218 41.313C31.4197 40.9116 31.3693 40.3582 31.9705 39.6489C36.2839 34.8124 38.9139 31.488 39.8681 29.6758C40.6672 29.6758 42.1722 30.4825 44.3793 32.096C46.8851 34.0095 48.1652 35.849 48.2156 37.6106" fill="#A03E95"/>
<path d="M113.181 40.3932C113.08 40.3932 112.215 41.6287 110.586 44.0956C108.953 46.5665 106.462 47.798 103.103 47.798C95.6322 47.798 91.7455 43.4682 91.4468 34.8046C91.3964 32.7897 93.363 12.3875 95.093 -2.11806C96.8231 -16.6276 97.6376 -25.3652 97.5368 -28.3388C97.4359 -30.303 97.2381 -31.2852 96.9355 -31.2852C96.4352 -31.2852 95.5081 -29.1962 94.1504 -25.0145C92.8471 -21.086 92.1217 -18.4905 91.9705 -17.2316C90.768 -7.10656 88.1109 15.9652 86.2567 27.6999C85.2521 33.8497 84.7517 39.2591 84.7517 43.9475C84.7517 57.5996 88.8634 64.4238 97.0868 64.4238C100.345 64.4238 103.026 63.2429 105.132 60.8733C106.036 59.9185 107.463 57.623 109.418 53.9986C112.576 48.2579 114.158 44.2515 114.158 41.9833C114.158 40.9233 113.828 40.3971 113.181 40.3971" fill="#A03E95"/>
<path d="M114.158 -7.81196C111.951 -9.42543 110.45 -10.2283 109.647 -10.2283C108.697 -8.41604 106.063 -5.09167 101.753 -0.255173C101.148 0.450232 101.202 1.00364 101.905 1.40506C104.961 3.47061 107.719 5.56343 110.178 7.67575C111.078 7.62509 112.583 6.44032 114.69 4.12535C116.943 1.60772 118.049 -0.531879 117.998 -2.29734C117.948 -4.0589 116.668 -5.89841 114.162 -7.81196" fill="#A03E95"/>
</svg>
