<svg width="20" height="20" viewBox="0 0 20 20" fill="none" xmlns="http://www.w3.org/2000/svg">
<path d="M10 20C15.5228 20 20 15.5228 20 10C20 4.47715 15.5228 0 10 0C4.47715 0 0 4.47715 0 10C0 15.5228 4.47715 20 10 20Z" fill="#75A98B"/>
<path d="M8.48864 7.37135H10.0371L6.75475 14.1493H6.69912L3.40751 7.37135H4.96523L5.83681 9.29995C6.3236 10.408 6.62031 11.0987 6.71766 11.3769C7.01901 10.6491 7.32035 9.95364 7.61706 9.29995L8.48864 7.37135Z" fill="white"/>
<path d="M16.166 10.9689V13.6671C15.5123 14.0056 14.752 14.1771 13.8943 14.1771C12.8558 14.1771 11.9981 13.8479 11.3166 13.185C10.6444 12.5313 10.306 11.7061 10.306 10.7093C10.306 9.71256 10.6444 8.89662 11.3166 8.24293C11.9981 7.57534 12.8465 7.24154 13.8665 7.24154C14.6129 7.24154 15.3129 7.39453 15.962 7.69587V9.01252C15.2944 8.7019 14.6268 8.54891 13.9592 8.54891C13.2916 8.54891 12.7399 8.75753 12.3458 9.17014C11.9425 9.59203 11.7432 10.102 11.7432 10.7093C11.7432 11.3166 11.9425 11.8452 12.3366 12.2578C12.7306 12.6704 13.2499 12.879 13.8943 12.879C14.2235 12.879 14.5248 12.8373 14.803 12.7492V10.9689H16.166Z" fill="white"/>
</svg>
