<svg width="93" height="688" viewBox="0 0 93 688" fill="none" xmlns="http://www.w3.org/2000/svg">
<path d="M-78.4251 611.555L-88.0014 611.555L-88.0014 602L-78.4251 602L-78.4251 611.555Z" fill="#00A7A2" fill-opacity="0.5"/>
<path d="M-107.154 611.555L-116.731 611.555L-116.731 602L-107.154 602L-107.154 611.555Z" fill="#00A7A2" fill-opacity="0.5"/>
<path d="M-78.4251 592.445L-88.0014 592.445L-88.0014 573.335L-78.4251 573.335L-78.4251 592.445Z" fill="#00A7A2" fill-opacity="0.5"/>
<path d="M-78.4251 640.219L-88.0014 640.219L-88.0014 621.11L-78.4251 621.11L-78.4251 640.219Z" fill="#00A7A2" fill-opacity="0.5"/>
<path d="M-68.8487 630.665L-78.4251 630.665L-78.4251 611.555L-68.8487 611.555L-68.8487 630.665Z" fill="#00A7A2" fill-opacity="0.5"/>
<path d="M-68.8487 602L-78.4251 602L-78.4251 582.89L-68.8487 582.89L-68.8487 602Z" fill="#00A7A2" fill-opacity="0.5"/>
<path d="M-88.0014 630.665L-97.5778 630.665L-97.5778 611.555L-88.0014 611.555L-88.0014 630.665Z" fill="#00A7A2" fill-opacity="0.5"/>
<path d="M-88.0014 602L-97.5778 602L-97.5778 582.89L-88.0014 582.89L-88.0014 602Z" fill="#00A7A2" fill-opacity="0.5"/>
<path d="M-97.5778 621.11L-107.154 621.11L-107.154 592.445L-97.5778 592.445L-97.5778 621.11Z" fill="#00A7A2" fill-opacity="0.5"/>
<path d="M-49.6897 611.555L-59.266 611.555L-59.266 602L-49.6897 602L-49.6897 611.555Z" fill="#00A7A2" fill-opacity="0.5"/>
<path d="M-59.2723 621.11L-68.8487 621.11L-68.8487 592.445L-59.2723 592.445L-59.2723 621.11Z" fill="#00A7A2" fill-opacity="0.5"/>
<path d="M17.2128 611.555L7.63647 611.555L7.63647 602L17.2128 602L17.2128 611.555Z" fill="#00A7A2" fill-opacity="0.5"/>
<path d="M-11.5163 611.555L-21.0926 611.555L-21.0926 602L-11.5163 602L-11.5163 611.555Z" fill="#00A7A2" fill-opacity="0.5"/>
<path d="M17.2128 592.445L7.63647 592.445L7.63646 573.335L17.2128 573.335L17.2128 592.445Z" fill="#00A7A2" fill-opacity="0.5"/>
<path d="M17.2128 640.219L7.63647 640.219L7.63647 621.11L17.2128 621.11L17.2128 640.219Z" fill="#00A7A2" fill-opacity="0.5"/>
<path d="M26.7892 630.665L17.2128 630.665L17.2128 611.555L26.7892 611.555L26.7892 630.665Z" fill="#00A7A2" fill-opacity="0.5"/>
<path d="M26.7892 602L17.2128 602L17.2128 582.89L26.7892 582.89L26.7892 602Z" fill="#00A7A2" fill-opacity="0.5"/>
<path d="M7.63645 630.665L-1.9399 630.665L-1.9399 611.555L7.63647 611.555L7.63645 630.665Z" fill="#00A7A2" fill-opacity="0.5"/>
<path d="M7.63647 602L-1.9399 602L-1.9399 582.89L7.63645 582.89L7.63647 602Z" fill="#00A7A2" fill-opacity="0.5"/>
<path d="M-1.94622 621.11L-11.5226 621.11L-11.5226 592.445L-1.94622 592.445L-1.94622 621.11Z" fill="#00A7A2" fill-opacity="0.5"/>
<path d="M45.9419 611.555L36.3655 611.555L36.3655 602L45.9419 602L45.9419 611.555Z" fill="#00A7A2" fill-opacity="0.5"/>
<path d="M36.3655 621.11L26.7892 621.11L26.7892 592.445L36.3655 592.445L36.3655 621.11Z" fill="#00A7A2" fill-opacity="0.5"/>
<path d="M-174.057 611.555L-183.633 611.555L-183.633 602L-174.057 602L-174.057 611.555Z" fill="#00A7A2" fill-opacity="0.5"/>
<path d="M-202.786 611.555L-212.362 611.555L-212.362 602L-202.786 602L-202.786 611.555Z" fill="#00A7A2" fill-opacity="0.5"/>
<path d="M-174.057 592.445L-183.633 592.445L-183.633 573.335L-174.057 573.335L-174.057 592.445Z" fill="#00A7A2" fill-opacity="0.5"/>
<path d="M-174.057 640.219L-183.633 640.219L-183.633 621.11L-174.057 621.11L-174.057 640.219Z" fill="#00A7A2" fill-opacity="0.5"/>
<path d="M-164.48 630.665L-174.057 630.665L-174.057 611.555L-164.48 611.555L-164.48 630.665Z" fill="#00A7A2" fill-opacity="0.5"/>
<path d="M-164.48 602L-174.057 602L-174.057 582.89L-164.48 582.89L-164.48 602Z" fill="#00A7A2" fill-opacity="0.5"/>
<path d="M-183.633 630.665L-193.209 630.665L-193.209 611.555L-183.633 611.555L-183.633 630.665Z" fill="#00A7A2" fill-opacity="0.5"/>
<path d="M-183.633 602L-193.209 602L-193.209 582.89L-183.633 582.89L-183.633 602Z" fill="#00A7A2" fill-opacity="0.5"/>
<path d="M-193.209 621.11L-202.786 621.11L-202.786 592.445L-193.209 592.445L-193.209 621.11Z" fill="#00A7A2" fill-opacity="0.5"/>
<path d="M-145.328 611.555L-154.904 611.555L-154.904 602L-145.328 602L-145.328 611.555Z" fill="#00A7A2" fill-opacity="0.5"/>
<path d="M-154.904 621.11L-164.48 621.11L-164.48 592.445L-154.904 592.445L-154.904 621.11Z" fill="#00A7A2" fill-opacity="0.5"/>
<path d="M-269.695 611.555L-279.271 611.555L-279.271 602L-269.695 602L-269.695 611.555Z" fill="#00A7A2" fill-opacity="0.5"/>
<path d="M-298.424 611.555L-308 611.555L-308 602L-298.424 602L-298.424 611.555Z" fill="#00A7A2" fill-opacity="0.5"/>
<path d="M-269.695 592.445L-279.271 592.445L-279.271 573.335L-269.695 573.335L-269.695 592.445Z" fill="#00A7A2" fill-opacity="0.5"/>
<path d="M-269.695 640.219L-279.271 640.219L-279.271 621.11L-269.695 621.11L-269.695 640.219Z" fill="#00A7A2" fill-opacity="0.5"/>
<path d="M-260.112 630.665L-269.688 630.665L-269.688 611.555L-260.112 611.555L-260.112 630.665Z" fill="#00A7A2" fill-opacity="0.5"/>
<path d="M-260.112 602L-269.688 602L-269.688 582.89L-260.112 582.89L-260.112 602Z" fill="#00A7A2" fill-opacity="0.5"/>
<path d="M-279.271 630.665L-288.847 630.665L-288.847 611.555L-279.271 611.555L-279.271 630.665Z" fill="#00A7A2" fill-opacity="0.5"/>
<path d="M-279.271 602L-288.847 602L-288.847 582.89L-279.271 582.89L-279.271 602Z" fill="#00A7A2" fill-opacity="0.5"/>
<path d="M-288.847 621.11L-298.424 621.11L-298.424 592.445L-288.847 592.445L-288.847 621.11Z" fill="#00A7A2" fill-opacity="0.5"/>
<path d="M-240.965 611.555L-250.542 611.555L-250.542 602L-240.965 602L-240.965 611.555Z" fill="#00A7A2" fill-opacity="0.5"/>
<path d="M-250.535 621.11L-260.112 621.11L-260.112 592.445L-250.536 592.445L-250.535 621.11Z" fill="#00A7A2" fill-opacity="0.5"/>
<path d="M-126.244 563.774L-135.82 563.774L-135.82 554.219L-126.244 554.219L-126.244 563.774Z" fill="#00A7A2" fill-opacity="0.5"/>
<path d="M-154.973 563.774L-164.549 563.774L-164.549 554.219L-154.973 554.219L-154.973 563.774Z" fill="#00A7A2" fill-opacity="0.5"/>
<path d="M-126.244 544.665L-135.82 544.665L-135.82 525.555L-126.244 525.555L-126.244 544.665Z" fill="#00A7A2" fill-opacity="0.5"/>
<path d="M-126.244 592.445L-135.82 592.445L-135.82 573.335L-126.244 573.335L-126.244 592.445Z" fill="#00A7A2" fill-opacity="0.5"/>
<path d="M-116.661 582.89L-126.238 582.89L-126.238 563.781L-116.661 563.781L-116.661 582.89Z" fill="#00A7A2" fill-opacity="0.5"/>
<path d="M-116.661 554.219L-126.238 554.219L-126.238 535.11L-116.661 535.11L-116.661 554.219Z" fill="#00A7A2" fill-opacity="0.5"/>
<path d="M-135.82 582.89L-145.397 582.89L-145.397 563.781L-135.82 563.781L-135.82 582.89Z" fill="#00A7A2" fill-opacity="0.5"/>
<path d="M-135.82 554.219L-145.397 554.219L-145.397 535.11L-135.82 535.11L-135.82 554.219Z" fill="#00A7A2" fill-opacity="0.5"/>
<path d="M-145.397 573.329L-154.973 573.329L-154.973 544.665L-145.397 544.665L-145.397 573.329Z" fill="#00A7A2" fill-opacity="0.5"/>
<path d="M-97.5086 563.774L-107.085 563.774L-107.085 554.219L-97.5086 554.219L-97.5086 563.774Z" fill="#00A7A2" fill-opacity="0.5"/>
<path d="M-107.085 573.329L-116.661 573.329L-116.661 544.665L-107.085 544.665L-107.085 573.329Z" fill="#00A7A2" fill-opacity="0.5"/>
<path d="M-30.6061 563.774L-40.1825 563.774L-40.1825 554.219L-30.6061 554.219L-30.6061 563.774Z" fill="#00A7A2" fill-opacity="0.5"/>
<path d="M-59.3352 563.774L-68.9116 563.774L-68.9116 554.219L-59.3352 554.219L-59.3352 563.774Z" fill="#00A7A2" fill-opacity="0.5"/>
<path d="M-30.6061 544.665L-40.1825 544.665L-40.1825 525.555L-30.6061 525.555L-30.6061 544.665Z" fill="#00A7A2" fill-opacity="0.5"/>
<path d="M-30.6061 592.445L-40.1825 592.445L-40.1825 573.335L-30.6061 573.335L-30.6061 592.445Z" fill="#00A7A2" fill-opacity="0.5"/>
<path d="M-21.0297 582.89L-30.6061 582.89L-30.6061 563.781L-21.0298 563.781L-21.0297 582.89Z" fill="#00A7A2" fill-opacity="0.5"/>
<path d="M-21.0298 554.219L-30.6061 554.219L-30.6061 535.11L-21.0298 535.11L-21.0298 554.219Z" fill="#00A7A2" fill-opacity="0.5"/>
<path d="M-40.1825 582.89L-49.7589 582.89L-49.7589 563.781L-40.1825 563.781L-40.1825 582.89Z" fill="#00A7A2" fill-opacity="0.5"/>
<path d="M-40.1825 554.219L-49.7589 554.219L-49.7589 535.11L-40.1825 535.11L-40.1825 554.219Z" fill="#00A7A2" fill-opacity="0.5"/>
<path d="M-49.7589 573.329L-59.3352 573.329L-59.3352 544.665L-49.7589 544.665L-49.7589 573.329Z" fill="#00A7A2" fill-opacity="0.5"/>
<path d="M-1.87703 563.774L-11.4534 563.774L-11.4534 554.219L-1.87703 554.219L-1.87703 563.774Z" fill="#00A7A2" fill-opacity="0.5"/>
<path d="M-11.4534 573.329L-21.0298 573.329L-21.0298 544.665L-11.4534 544.665L-11.4534 573.329Z" fill="#00A7A2" fill-opacity="0.5"/>
<path d="M-221.876 563.774L-231.452 563.774L-231.452 554.219L-221.876 554.219L-221.876 563.774Z" fill="#00A7A2" fill-opacity="0.5"/>
<path d="M-250.605 563.774L-260.181 563.774L-260.181 554.219L-250.605 554.219L-250.605 563.774Z" fill="#00A7A2" fill-opacity="0.5"/>
<path d="M-221.876 544.665L-231.452 544.665L-231.452 525.555L-221.876 525.555L-221.876 544.665Z" fill="#00A7A2" fill-opacity="0.5"/>
<path d="M-221.876 592.445L-231.452 592.445L-231.452 573.335L-221.876 573.335L-221.876 592.445Z" fill="#00A7A2" fill-opacity="0.5"/>
<path d="M-212.299 582.89L-221.876 582.89L-221.876 563.781L-212.299 563.781L-212.299 582.89Z" fill="#00A7A2" fill-opacity="0.5"/>
<path d="M-212.299 554.219L-221.876 554.219L-221.876 535.11L-212.299 535.11L-212.299 554.219Z" fill="#00A7A2" fill-opacity="0.5"/>
<path d="M-231.452 582.89L-241.028 582.89L-241.028 563.781L-231.452 563.781L-231.452 582.89Z" fill="#00A7A2" fill-opacity="0.5"/>
<path d="M-231.452 554.219L-241.028 554.219L-241.028 535.11L-231.452 535.11L-231.452 554.219Z" fill="#00A7A2" fill-opacity="0.5"/>
<path d="M-241.028 573.329L-250.605 573.329L-250.605 544.665L-241.028 544.665L-241.028 573.329Z" fill="#00A7A2" fill-opacity="0.5"/>
<path d="M-193.146 563.774L-202.723 563.774L-202.723 554.219L-193.146 554.219L-193.146 563.774Z" fill="#00A7A2" fill-opacity="0.5"/>
<path d="M-202.723 573.329L-212.299 573.329L-212.299 544.665L-202.723 544.665L-202.723 573.329Z" fill="#00A7A2" fill-opacity="0.5"/>
<path d="M-78.4251 516L-88.0014 516L-88.0014 506.445L-78.4251 506.445L-78.4251 516Z" fill="#00A7A2" fill-opacity="0.5"/>
<path d="M-107.154 516L-116.731 516L-116.731 506.445L-107.154 506.445L-107.154 516Z" fill="#00A7A2" fill-opacity="0.5"/>
<path d="M-78.4251 496.89L-88.0014 496.89L-88.0014 477.781L-78.4251 477.781L-78.4251 496.89Z" fill="#00A7A2" fill-opacity="0.5"/>
<path d="M-78.4251 544.665L-88.0014 544.665L-88.0014 525.555L-78.4251 525.555L-78.4251 544.665Z" fill="#00A7A2" fill-opacity="0.5"/>
<path d="M-68.8487 535.11L-78.4251 535.11L-78.4251 516L-68.8487 516L-68.8487 535.11Z" fill="#00A7A2" fill-opacity="0.5"/>
<path d="M-68.8487 506.445L-78.4251 506.445L-78.4251 487.335L-68.8487 487.335L-68.8487 506.445Z" fill="#00A7A2" fill-opacity="0.5"/>
<path d="M-88.0014 535.11L-97.5778 535.11L-97.5778 516L-88.0014 516L-88.0014 535.11Z" fill="#00A7A2" fill-opacity="0.5"/>
<path d="M-88.0014 506.445L-97.5778 506.445L-97.5778 487.335L-88.0014 487.335L-88.0014 506.445Z" fill="#00A7A2" fill-opacity="0.5"/>
<path d="M-97.5778 525.555L-107.154 525.555L-107.154 496.89L-97.5778 496.89L-97.5778 525.555Z" fill="#00A7A2" fill-opacity="0.5"/>
<path d="M-49.6897 516L-59.2661 516L-59.2661 506.445L-49.6897 506.445L-49.6897 516Z" fill="#00A7A2" fill-opacity="0.5"/>
<path d="M-59.2724 525.555L-68.8487 525.555L-68.8487 496.89L-59.2724 496.89L-59.2724 525.555Z" fill="#00A7A2" fill-opacity="0.5"/>
<path d="M17.2128 516L7.63646 516L7.63646 506.445L17.2128 506.445L17.2128 516Z" fill="#00A7A2" fill-opacity="0.5"/>
<path d="M-11.5163 516L-21.0927 516L-21.0927 506.445L-11.5163 506.445L-11.5163 516Z" fill="#00A7A2" fill-opacity="0.5"/>
<path d="M17.2128 496.89L7.63646 496.89L7.63646 477.781L17.2128 477.781L17.2128 496.89Z" fill="#00A7A2" fill-opacity="0.5"/>
<path d="M17.2128 544.665L7.63646 544.665L7.63646 525.555L17.2128 525.555L17.2128 544.665Z" fill="#00A7A2" fill-opacity="0.5"/>
<path d="M26.7892 535.11L17.2128 535.11L17.2128 516L26.7892 516L26.7892 535.11Z" fill="#00A7A2" fill-opacity="0.5"/>
<path d="M26.7892 506.445L17.2128 506.445L17.2128 487.335L26.7892 487.335L26.7892 506.445Z" fill="#00A7A2" fill-opacity="0.5"/>
<path d="M7.63645 535.11L-1.93991 535.11L-1.93991 516L7.63646 516L7.63645 535.11Z" fill="#00A7A2" fill-opacity="0.5"/>
<path d="M7.63646 506.445L-1.93991 506.445L-1.93991 487.335L7.63644 487.335L7.63646 506.445Z" fill="#00A7A2" fill-opacity="0.5"/>
<path d="M-1.94623 525.555L-11.5226 525.555L-11.5226 496.89L-1.94623 496.89L-1.94623 525.555Z" fill="#00A7A2" fill-opacity="0.5"/>
<path d="M45.9419 516L36.3655 516L36.3655 506.445L45.9419 506.445L45.9419 516Z" fill="#00A7A2" fill-opacity="0.5"/>
<path d="M36.3655 525.555L26.7892 525.555L26.7892 496.89L36.3655 496.89L36.3655 525.555Z" fill="#00A7A2" fill-opacity="0.5"/>
<path d="M-174.057 516L-183.633 516L-183.633 506.445L-174.057 506.445L-174.057 516Z" fill="#00A7A2" fill-opacity="0.5"/>
<path d="M-202.786 516L-212.362 516L-212.362 506.445L-202.786 506.445L-202.786 516Z" fill="#00A7A2" fill-opacity="0.5"/>
<path d="M-174.057 496.89L-183.633 496.89L-183.633 477.781L-174.057 477.781L-174.057 496.89Z" fill="#00A7A2" fill-opacity="0.5"/>
<path d="M-174.057 544.665L-183.633 544.665L-183.633 525.555L-174.057 525.555L-174.057 544.665Z" fill="#00A7A2" fill-opacity="0.5"/>
<path d="M-164.48 535.11L-174.057 535.11L-174.057 516L-164.48 516L-164.48 535.11Z" fill="#00A7A2" fill-opacity="0.5"/>
<path d="M-164.48 506.445L-174.057 506.445L-174.057 487.335L-164.48 487.335L-164.48 506.445Z" fill="#00A7A2" fill-opacity="0.5"/>
<path d="M-183.633 535.11L-193.209 535.11L-193.209 516L-183.633 516L-183.633 535.11Z" fill="#00A7A2" fill-opacity="0.5"/>
<path d="M-183.633 506.445L-193.209 506.445L-193.209 487.335L-183.633 487.335L-183.633 506.445Z" fill="#00A7A2" fill-opacity="0.5"/>
<path d="M-193.209 525.555L-202.786 525.555L-202.786 496.89L-193.209 496.89L-193.209 525.555Z" fill="#00A7A2" fill-opacity="0.5"/>
<path d="M-145.328 516L-154.904 516L-154.904 506.445L-145.328 506.445L-145.328 516Z" fill="#00A7A2" fill-opacity="0.5"/>
<path d="M-154.904 525.555L-164.48 525.555L-164.48 496.89L-154.904 496.89L-154.904 525.555Z" fill="#00A7A2" fill-opacity="0.5"/>
<path d="M-269.695 516L-279.271 516L-279.271 506.445L-269.695 506.445L-269.695 516Z" fill="#00A7A2" fill-opacity="0.5"/>
<path d="M-298.424 516L-308 516L-308 506.445L-298.424 506.445L-298.424 516Z" fill="#00A7A2" fill-opacity="0.5"/>
<path d="M-269.695 496.89L-279.271 496.89L-279.271 477.781L-269.695 477.781L-269.695 496.89Z" fill="#00A7A2" fill-opacity="0.5"/>
<path d="M-269.695 544.665L-279.271 544.665L-279.271 525.555L-269.695 525.555L-269.695 544.665Z" fill="#00A7A2" fill-opacity="0.5"/>
<path d="M-260.112 535.11L-269.688 535.11L-269.688 516L-260.112 516L-260.112 535.11Z" fill="#00A7A2" fill-opacity="0.5"/>
<path d="M-260.112 506.445L-269.688 506.445L-269.688 487.335L-260.112 487.335L-260.112 506.445Z" fill="#00A7A2" fill-opacity="0.5"/>
<path d="M-279.271 535.11L-288.847 535.11L-288.847 516L-279.271 516L-279.271 535.11Z" fill="#00A7A2" fill-opacity="0.5"/>
<path d="M-279.271 506.445L-288.847 506.445L-288.847 487.335L-279.271 487.335L-279.271 506.445Z" fill="#00A7A2" fill-opacity="0.5"/>
<path d="M-288.847 525.555L-298.424 525.555L-298.424 496.89L-288.847 496.89L-288.847 525.555Z" fill="#00A7A2" fill-opacity="0.5"/>
<path d="M-240.965 516L-250.542 516L-250.542 506.445L-240.965 506.445L-240.965 516Z" fill="#00A7A2" fill-opacity="0.5"/>
<path d="M-250.536 525.555L-260.112 525.555L-260.112 496.89L-250.536 496.89L-250.536 525.555Z" fill="#00A7A2" fill-opacity="0.5"/>
<path d="M-221.876 468.219L-231.452 468.219L-231.452 458.665L-221.876 458.665L-221.876 468.219Z" fill="#00A7A2" fill-opacity="0.5"/>
<path d="M-250.605 468.219L-260.181 468.219L-260.181 458.665L-250.605 458.665L-250.605 468.219Z" fill="#00A7A2" fill-opacity="0.5"/>
<path d="M-221.876 449.11L-231.452 449.11L-231.452 430L-221.876 430L-221.876 449.11Z" fill="#00A7A2" fill-opacity="0.5"/>
<path d="M-221.876 496.89L-231.452 496.89L-231.452 477.781L-221.876 477.781L-221.876 496.89Z" fill="#00A7A2" fill-opacity="0.5"/>
<path d="M-212.299 487.335L-221.876 487.335L-221.876 468.226L-212.299 468.226L-212.299 487.335Z" fill="#00A7A2" fill-opacity="0.5"/>
<path d="M-212.299 458.665L-221.876 458.665L-221.876 439.555L-212.299 439.555L-212.299 458.665Z" fill="#00A7A2" fill-opacity="0.5"/>
<path d="M-231.452 487.335L-241.028 487.335L-241.028 468.226L-231.452 468.226L-231.452 487.335Z" fill="#00A7A2" fill-opacity="0.5"/>
<path d="M-231.452 458.665L-241.028 458.665L-241.028 439.555L-231.452 439.555L-231.452 458.665Z" fill="#00A7A2" fill-opacity="0.5"/>
<path d="M-241.028 477.774L-250.605 477.774L-250.605 449.11L-241.028 449.11L-241.028 477.774Z" fill="#00A7A2" fill-opacity="0.5"/>
<path d="M-193.147 468.219L-202.723 468.219L-202.723 458.665L-193.147 458.665L-193.147 468.219Z" fill="#00A7A2" fill-opacity="0.5"/>
<path d="M-202.723 477.774L-212.299 477.774L-212.299 449.11L-202.723 449.11L-202.723 477.774Z" fill="#00A7A2" fill-opacity="0.5"/>
<path d="M-78.4251 420.445L-88.0014 420.445L-88.0014 410.89L-78.4251 410.89L-78.4251 420.445Z" fill="#00A7A2" fill-opacity="0.5"/>
<path d="M-107.154 420.445L-116.731 420.445L-116.731 410.89L-107.154 410.89L-107.154 420.445Z" fill="#00A7A2" fill-opacity="0.5"/>
<path d="M-78.4251 401.329L-88.0014 401.329L-88.0014 382.219L-78.4251 382.219L-78.4251 401.329Z" fill="#00A7A2" fill-opacity="0.5"/>
<path d="M-78.4251 449.11L-88.0014 449.11L-88.0014 430L-78.4251 430L-78.4251 449.11Z" fill="#00A7A2" fill-opacity="0.5"/>
<path d="M-68.8487 439.555L-78.4251 439.555L-78.4251 420.445L-68.8487 420.445L-68.8487 439.555Z" fill="#00A7A2" fill-opacity="0.5"/>
<path d="M-68.8487 410.89L-78.4251 410.89L-78.4251 391.781L-68.8487 391.781L-68.8487 410.89Z" fill="#00A7A2" fill-opacity="0.5"/>
<path d="M-88.0014 439.555L-97.5778 439.555L-97.5778 420.445L-88.0014 420.445L-88.0014 439.555Z" fill="#00A7A2" fill-opacity="0.5"/>
<path d="M-88.0014 410.89L-97.5778 410.89L-97.5778 391.781L-88.0014 391.781L-88.0014 410.89Z" fill="#00A7A2" fill-opacity="0.5"/>
<path d="M-97.5778 430L-107.154 430L-107.154 401.335L-97.5778 401.335L-97.5778 430Z" fill="#00A7A2" fill-opacity="0.5"/>
<path d="M-49.6897 420.445L-59.2661 420.445L-59.2661 410.89L-49.6897 410.89L-49.6897 420.445Z" fill="#00A7A2" fill-opacity="0.5"/>
<path d="M-59.2724 430L-68.8487 430L-68.8487 401.335L-59.2724 401.335L-59.2724 430Z" fill="#00A7A2" fill-opacity="0.5"/>
<path d="M17.2128 420.445L7.63645 420.445L7.63645 410.89L17.2128 410.89L17.2128 420.445Z" fill="#00A7A2" fill-opacity="0.5"/>
<path d="M-11.5163 420.445L-21.0927 420.445L-21.0927 410.89L-11.5163 410.89L-11.5163 420.445Z" fill="#00A7A2" fill-opacity="0.5"/>
<path d="M17.2128 401.329L7.63645 401.329L7.63645 382.219L17.2128 382.219L17.2128 401.329Z" fill="#00A7A2" fill-opacity="0.5"/>
<path d="M17.2128 449.11L7.63645 449.11L7.63645 430L17.2128 430L17.2128 449.11Z" fill="#00A7A2" fill-opacity="0.5"/>
<path d="M26.7891 439.555L17.2128 439.555L17.2128 420.445L26.7891 420.445L26.7891 439.555Z" fill="#00A7A2" fill-opacity="0.5"/>
<path d="M26.7891 410.89L17.2128 410.89L17.2128 391.781L26.7891 391.781L26.7891 410.89Z" fill="#00A7A2" fill-opacity="0.5"/>
<path d="M7.63644 439.555L-1.93992 439.555L-1.93992 420.445L7.63645 420.445L7.63644 439.555Z" fill="#00A7A2" fill-opacity="0.5"/>
<path d="M7.63645 410.89L-1.93992 410.89L-1.93992 391.781L7.63643 391.781L7.63645 410.89Z" fill="#00A7A2" fill-opacity="0.5"/>
<path d="M-1.94624 430L-11.5226 430L-11.5226 401.335L-1.94624 401.335L-1.94624 430Z" fill="#00A7A2" fill-opacity="0.5"/>
<path d="M45.9419 420.445L36.3655 420.445L36.3655 410.89L45.9419 410.89L45.9419 420.445Z" fill="#00A7A2" fill-opacity="0.5"/>
<path d="M36.3655 430L26.7891 430L26.7891 401.335L36.3655 401.335L36.3655 430Z" fill="#00A7A2" fill-opacity="0.5"/>
<path d="M-174.057 420.445L-183.633 420.445L-183.633 410.89L-174.057 410.89L-174.057 420.445Z" fill="#00A7A2" fill-opacity="0.5"/>
<path d="M-202.786 420.445L-212.362 420.445L-212.362 410.89L-202.786 410.89L-202.786 420.445Z" fill="#00A7A2" fill-opacity="0.5"/>
<path d="M-174.057 401.329L-183.633 401.329L-183.633 382.219L-174.057 382.219L-174.057 401.329Z" fill="#00A7A2" fill-opacity="0.5"/>
<path d="M-174.057 449.11L-183.633 449.11L-183.633 430L-174.057 430L-174.057 449.11Z" fill="#00A7A2" fill-opacity="0.5"/>
<path d="M-164.48 439.555L-174.057 439.555L-174.057 420.445L-164.48 420.445L-164.48 439.555Z" fill="#00A7A2" fill-opacity="0.5"/>
<path d="M-164.48 410.89L-174.057 410.89L-174.057 391.781L-164.48 391.781L-164.48 410.89Z" fill="#00A7A2" fill-opacity="0.5"/>
<path d="M-183.633 439.555L-193.209 439.555L-193.209 420.445L-183.633 420.445L-183.633 439.555Z" fill="#00A7A2" fill-opacity="0.5"/>
<path d="M-183.633 410.89L-193.209 410.89L-193.209 391.781L-183.633 391.781L-183.633 410.89Z" fill="#00A7A2" fill-opacity="0.5"/>
<path d="M-193.209 430L-202.786 430L-202.786 401.335L-193.209 401.335L-193.209 430Z" fill="#00A7A2" fill-opacity="0.5"/>
<path d="M-145.328 420.445L-154.904 420.445L-154.904 410.89L-145.328 410.89L-145.328 420.445Z" fill="#00A7A2" fill-opacity="0.5"/>
<path d="M-154.904 430L-164.48 430L-164.48 401.335L-154.904 401.335L-154.904 430Z" fill="#00A7A2" fill-opacity="0.5"/>
<path d="M-269.695 420.445L-279.271 420.445L-279.271 410.89L-269.695 410.89L-269.695 420.445Z" fill="#00A7A2" fill-opacity="0.5"/>
<path d="M-298.424 420.445L-308 420.445L-308 410.89L-298.424 410.89L-298.424 420.445Z" fill="#00A7A2" fill-opacity="0.5"/>
<path d="M-269.695 401.329L-279.271 401.329L-279.271 382.219L-269.695 382.219L-269.695 401.329Z" fill="#00A7A2" fill-opacity="0.5"/>
<path d="M-269.695 449.11L-279.271 449.11L-279.271 430L-269.695 430L-269.695 449.11Z" fill="#00A7A2" fill-opacity="0.5"/>
<path d="M-260.112 439.555L-269.688 439.555L-269.688 420.445L-260.112 420.445L-260.112 439.555Z" fill="#00A7A2" fill-opacity="0.5"/>
<path d="M-260.112 410.89L-269.688 410.89L-269.688 391.781L-260.112 391.781L-260.112 410.89Z" fill="#00A7A2" fill-opacity="0.5"/>
<path d="M-279.271 439.555L-288.847 439.555L-288.847 420.445L-279.271 420.445L-279.271 439.555Z" fill="#00A7A2" fill-opacity="0.5"/>
<path d="M-279.271 410.89L-288.847 410.89L-288.847 391.781L-279.271 391.781L-279.271 410.89Z" fill="#00A7A2" fill-opacity="0.5"/>
<path d="M-288.847 430L-298.424 430L-298.424 401.335L-288.847 401.335L-288.847 430Z" fill="#00A7A2" fill-opacity="0.5"/>
<path d="M-240.965 420.445L-250.542 420.445L-250.542 410.89L-240.965 410.89L-240.965 420.445Z" fill="#00A7A2" fill-opacity="0.5"/>
<path d="M-250.536 430L-260.112 430L-260.112 401.335L-250.536 401.335L-250.536 430Z" fill="#00A7A2" fill-opacity="0.5"/>
<path d="M-126.244 372.665L-135.82 372.665L-135.82 363.11L-126.244 363.11L-126.244 372.665Z" fill="#00A7A2" fill-opacity="0.5"/>
<path d="M-154.973 372.665L-164.549 372.665L-164.549 363.11L-154.973 363.11L-154.973 372.665Z" fill="#00A7A2" fill-opacity="0.5"/>
<path d="M-126.244 353.555L-135.82 353.555L-135.82 334.445L-126.244 334.445L-126.244 353.555Z" fill="#00A7A2" fill-opacity="0.5"/>
<path d="M-126.244 401.329L-135.82 401.329L-135.82 382.219L-126.244 382.219L-126.244 401.329Z" fill="#00A7A2" fill-opacity="0.5"/>
<path d="M-116.661 391.774L-126.238 391.774L-126.238 372.665L-116.661 372.665L-116.661 391.774Z" fill="#00A7A2" fill-opacity="0.5"/>
<path d="M-116.661 363.11L-126.238 363.11L-126.238 344L-116.661 344L-116.661 363.11Z" fill="#00A7A2" fill-opacity="0.5"/>
<path d="M-135.82 391.774L-145.397 391.774L-145.397 372.665L-135.82 372.665L-135.82 391.774Z" fill="#00A7A2" fill-opacity="0.5"/>
<path d="M-135.82 363.11L-145.397 363.11L-145.397 344L-135.82 344L-135.82 363.11Z" fill="#00A7A2" fill-opacity="0.5"/>
<path d="M-145.397 382.219L-154.973 382.219L-154.973 353.555L-145.397 353.555L-145.397 382.219Z" fill="#00A7A2" fill-opacity="0.5"/>
<path d="M-97.5086 372.665L-107.085 372.665L-107.085 363.11L-97.5086 363.11L-97.5086 372.665Z" fill="#00A7A2" fill-opacity="0.5"/>
<path d="M-107.085 382.219L-116.661 382.219L-116.661 353.555L-107.085 353.555L-107.085 382.219Z" fill="#00A7A2" fill-opacity="0.5"/>
<path d="M-78.4251 324.89L-88.0015 324.89L-88.0015 315.335L-78.4251 315.335L-78.4251 324.89Z" fill="#00A7A2" fill-opacity="0.5"/>
<path d="M-107.154 324.89L-116.731 324.89L-116.731 315.335L-107.154 315.335L-107.154 324.89Z" fill="#00A7A2" fill-opacity="0.5"/>
<path d="M-78.4251 305.774L-88.0015 305.774L-88.0015 286.665L-78.4251 286.665L-78.4251 305.774Z" fill="#00A7A2" fill-opacity="0.5"/>
<path d="M-78.4251 353.555L-88.0014 353.555L-88.0014 334.445L-78.4251 334.445L-78.4251 353.555Z" fill="#00A7A2" fill-opacity="0.5"/>
<path d="M-68.8487 344L-78.4251 344L-78.4251 324.89L-68.8487 324.89L-68.8487 344Z" fill="#00A7A2" fill-opacity="0.5"/>
<path d="M-68.8487 315.335L-78.4251 315.335L-78.4251 296.226L-68.8487 296.226L-68.8487 315.335Z" fill="#00A7A2" fill-opacity="0.5"/>
<path d="M-88.0014 344L-97.5778 344L-97.5778 324.89L-88.0015 324.89L-88.0014 344Z" fill="#00A7A2" fill-opacity="0.5"/>
<path d="M-88.0015 315.335L-97.5778 315.335L-97.5778 296.226L-88.0015 296.226L-88.0015 315.335Z" fill="#00A7A2" fill-opacity="0.5"/>
<path d="M-97.5778 334.445L-107.154 334.445L-107.154 305.781L-97.5778 305.781L-97.5778 334.445Z" fill="#00A7A2" fill-opacity="0.5"/>
<path d="M-49.6897 324.89L-59.2661 324.89L-59.2661 315.335L-49.6897 315.335L-49.6897 324.89Z" fill="#00A7A2" fill-opacity="0.5"/>
<path d="M-59.2724 334.445L-68.8487 334.445L-68.8487 305.781L-59.2724 305.781L-59.2724 334.445Z" fill="#00A7A2" fill-opacity="0.5"/>
<path d="M-174.057 324.89L-183.633 324.89L-183.633 315.335L-174.057 315.335L-174.057 324.89Z" fill="#00A7A2" fill-opacity="0.5"/>
<path d="M-202.786 324.89L-212.362 324.89L-212.362 315.335L-202.786 315.335L-202.786 324.89Z" fill="#00A7A2" fill-opacity="0.5"/>
<path d="M-174.057 305.774L-183.633 305.774L-183.633 286.665L-174.057 286.665L-174.057 305.774Z" fill="#00A7A2" fill-opacity="0.5"/>
<path d="M-174.057 353.555L-183.633 353.555L-183.633 334.445L-174.057 334.445L-174.057 353.555Z" fill="#00A7A2" fill-opacity="0.5"/>
<path d="M-164.48 344L-174.057 344L-174.057 324.89L-164.48 324.89L-164.48 344Z" fill="#00A7A2" fill-opacity="0.5"/>
<path d="M-164.48 315.335L-174.057 315.335L-174.057 296.226L-164.48 296.226L-164.48 315.335Z" fill="#00A7A2" fill-opacity="0.5"/>
<path d="M-183.633 344L-193.209 344L-193.209 324.89L-183.633 324.89L-183.633 344Z" fill="#00A7A2" fill-opacity="0.5"/>
<path d="M-183.633 315.335L-193.209 315.335L-193.209 296.226L-183.633 296.226L-183.633 315.335Z" fill="#00A7A2" fill-opacity="0.5"/>
<path d="M-193.209 334.445L-202.786 334.445L-202.786 305.781L-193.209 305.781L-193.209 334.445Z" fill="#00A7A2" fill-opacity="0.5"/>
<path d="M-145.328 324.89L-154.904 324.89L-154.904 315.335L-145.328 315.335L-145.328 324.89Z" fill="#00A7A2" fill-opacity="0.5"/>
<path d="M-154.904 334.445L-164.48 334.445L-164.48 305.781L-154.904 305.781L-154.904 334.445Z" fill="#00A7A2" fill-opacity="0.5"/>
<path d="M-269.695 324.89L-279.271 324.89L-279.271 315.335L-269.695 315.335L-269.695 324.89Z" fill="#00A7A2" fill-opacity="0.5"/>
<path d="M-298.424 324.89L-308 324.89L-308 315.335L-298.424 315.335L-298.424 324.89Z" fill="#00A7A2" fill-opacity="0.5"/>
<path d="M-269.695 305.774L-279.271 305.774L-279.271 286.665L-269.695 286.665L-269.695 305.774Z" fill="#00A7A2" fill-opacity="0.5"/>
<path d="M-269.695 353.555L-279.271 353.555L-279.271 334.445L-269.695 334.445L-269.695 353.555Z" fill="#00A7A2" fill-opacity="0.5"/>
<path d="M-260.112 344L-269.688 344L-269.688 324.89L-260.112 324.89L-260.112 344Z" fill="#00A7A2" fill-opacity="0.5"/>
<path d="M-260.112 315.335L-269.688 315.335L-269.688 296.226L-260.112 296.226L-260.112 315.335Z" fill="#00A7A2" fill-opacity="0.5"/>
<path d="M-279.271 344L-288.847 344L-288.847 324.89L-279.271 324.89L-279.271 344Z" fill="#00A7A2" fill-opacity="0.5"/>
<path d="M-279.271 315.335L-288.847 315.335L-288.847 296.226L-279.271 296.226L-279.271 315.335Z" fill="#00A7A2" fill-opacity="0.5"/>
<path d="M-288.847 334.445L-298.424 334.445L-298.424 305.781L-288.847 305.781L-288.847 334.445Z" fill="#00A7A2" fill-opacity="0.5"/>
<path d="M-240.965 324.89L-250.542 324.89L-250.542 315.335L-240.965 315.335L-240.965 324.89Z" fill="#00A7A2" fill-opacity="0.5"/>
<path d="M-250.536 334.445L-260.112 334.445L-260.112 305.781L-250.536 305.781L-250.536 334.445Z" fill="#00A7A2" fill-opacity="0.5"/>
<path d="M-174.057 229.329L-183.633 229.329L-183.633 219.774L-174.057 219.774L-174.057 229.329Z" fill="#00A7A2" fill-opacity="0.5"/>
<path d="M-202.786 229.329L-212.362 229.329L-212.362 219.774L-202.786 219.774L-202.786 229.329Z" fill="#00A7A2" fill-opacity="0.5"/>
<path d="M-174.057 210.219L-183.633 210.219L-183.633 191.11L-174.057 191.11L-174.057 210.219Z" fill="#00A7A2" fill-opacity="0.5"/>
<path d="M-174.057 258L-183.633 258L-183.633 238.89L-174.057 238.89L-174.057 258Z" fill="#00A7A2" fill-opacity="0.5"/>
<path d="M-164.48 248.445L-174.057 248.445L-174.057 229.335L-164.48 229.335L-164.48 248.445Z" fill="#00A7A2" fill-opacity="0.5"/>
<path d="M-164.48 219.774L-174.057 219.774L-174.057 200.665L-164.48 200.665L-164.48 219.774Z" fill="#00A7A2" fill-opacity="0.5"/>
<path d="M-183.633 248.445L-193.209 248.445L-193.209 229.335L-183.633 229.335L-183.633 248.445Z" fill="#00A7A2" fill-opacity="0.5"/>
<path d="M-183.633 219.774L-193.209 219.774L-193.209 200.665L-183.633 200.665L-183.633 219.774Z" fill="#00A7A2" fill-opacity="0.5"/>
<path d="M-193.209 238.884L-202.786 238.884L-202.786 210.219L-193.209 210.219L-193.209 238.884Z" fill="#00A7A2" fill-opacity="0.5"/>
<path d="M-145.328 229.329L-154.904 229.329L-154.904 219.774L-145.328 219.774L-145.328 229.329Z" fill="#00A7A2" fill-opacity="0.5"/>
<path d="M-154.904 238.884L-164.48 238.884L-164.48 210.219L-154.904 210.219L-154.904 238.884Z" fill="#00A7A2" fill-opacity="0.5"/>
<path d="M-269.695 229.329L-279.271 229.329L-279.271 219.774L-269.695 219.774L-269.695 229.329Z" fill="#00A7A2" fill-opacity="0.5"/>
<path d="M-298.424 229.329L-308 229.329L-308 219.774L-298.424 219.774L-298.424 229.329Z" fill="#00A7A2" fill-opacity="0.5"/>
<path d="M-269.695 210.219L-279.271 210.219L-279.271 191.11L-269.695 191.11L-269.695 210.219Z" fill="#00A7A2" fill-opacity="0.5"/>
<path d="M-269.695 258L-279.271 258L-279.271 238.89L-269.695 238.89L-269.695 258Z" fill="#00A7A2" fill-opacity="0.5"/>
<path d="M-260.112 248.445L-269.688 248.445L-269.688 229.335L-260.112 229.335L-260.112 248.445Z" fill="#00A7A2" fill-opacity="0.5"/>
<path d="M-260.112 219.774L-269.688 219.774L-269.688 200.665L-260.112 200.665L-260.112 219.774Z" fill="#00A7A2" fill-opacity="0.5"/>
<path d="M-279.271 248.445L-288.847 248.445L-288.847 229.335L-279.271 229.335L-279.271 248.445Z" fill="#00A7A2" fill-opacity="0.5"/>
<path d="M-279.271 219.774L-288.847 219.774L-288.847 200.665L-279.271 200.665L-279.271 219.774Z" fill="#00A7A2" fill-opacity="0.5"/>
<path d="M-288.847 238.884L-298.424 238.884L-298.424 210.219L-288.847 210.219L-288.847 238.884Z" fill="#00A7A2" fill-opacity="0.5"/>
<path d="M-240.965 229.329L-250.542 229.329L-250.542 219.774L-240.965 219.774L-240.965 229.329Z" fill="#00A7A2" fill-opacity="0.5"/>
<path d="M-250.536 238.884L-260.112 238.884L-260.112 210.219L-250.536 210.219L-250.536 238.884Z" fill="#00A7A2" fill-opacity="0.5"/>
<path d="M-174.057 133.774L-183.633 133.774L-183.633 124.219L-174.057 124.219L-174.057 133.774Z" fill="#00A7A2" fill-opacity="0.5"/>
<path d="M-202.786 133.774L-212.362 133.774L-212.362 124.219L-202.786 124.219L-202.786 133.774Z" fill="#00A7A2" fill-opacity="0.5"/>
<path d="M-174.057 114.665L-183.633 114.665L-183.633 95.5548L-174.057 95.5548L-174.057 114.665Z" fill="#00A7A2" fill-opacity="0.5"/>
<path d="M-174.057 162.445L-183.633 162.445L-183.633 143.335L-174.057 143.335L-174.057 162.445Z" fill="#00A7A2" fill-opacity="0.5"/>
<path d="M-164.48 152.89L-174.057 152.89L-174.057 133.78L-164.48 133.78L-164.48 152.89Z" fill="#00A7A2" fill-opacity="0.5"/>
<path d="M-164.48 124.219L-174.057 124.219L-174.057 105.11L-164.48 105.11L-164.48 124.219Z" fill="#00A7A2" fill-opacity="0.5"/>
<path d="M-183.633 152.89L-193.209 152.89L-193.209 133.78L-183.633 133.78L-183.633 152.89Z" fill="#00A7A2" fill-opacity="0.5"/>
<path d="M-183.633 124.219L-193.209 124.219L-193.209 105.11L-183.633 105.11L-183.633 124.219Z" fill="#00A7A2" fill-opacity="0.5"/>
<path d="M-193.209 143.329L-202.786 143.329L-202.786 114.665L-193.209 114.665L-193.209 143.329Z" fill="#00A7A2" fill-opacity="0.5"/>
<path d="M-145.328 133.774L-154.904 133.774L-154.904 124.219L-145.328 124.219L-145.328 133.774Z" fill="#00A7A2" fill-opacity="0.5"/>
<path d="M-154.904 143.329L-164.48 143.329L-164.48 114.665L-154.904 114.665L-154.904 143.329Z" fill="#00A7A2" fill-opacity="0.5"/>
<path d="M-269.695 38.2194L-279.271 38.2194L-279.271 28.6645L-269.695 28.6645L-269.695 38.2194Z" fill="#00A7A2" fill-opacity="0.5"/>
<path d="M-298.424 38.2194L-308 38.2194L-308 28.6645L-298.424 28.6645L-298.424 38.2194Z" fill="#00A7A2" fill-opacity="0.5"/>
<path d="M-269.695 19.1097L-279.271 19.1097L-279.271 -2.84902e-05L-269.695 -2.93274e-05L-269.695 19.1097Z" fill="#00A7A2" fill-opacity="0.5"/>
<path d="M-269.695 66.8839L-279.271 66.8839L-279.271 47.7743L-269.695 47.7743L-269.695 66.8839Z" fill="#00A7A2" fill-opacity="0.5"/>
<path d="M-260.112 57.3291L-269.688 57.3291L-269.688 38.2194L-260.112 38.2194L-260.112 57.3291Z" fill="#00A7A2" fill-opacity="0.5"/>
<path d="M-260.112 28.6645L-269.688 28.6645L-269.688 9.55484L-260.112 9.55484L-260.112 28.6645Z" fill="#00A7A2" fill-opacity="0.5"/>
<path d="M-279.271 57.3291L-288.847 57.3291L-288.847 38.2194L-279.271 38.2194L-279.271 57.3291Z" fill="#00A7A2" fill-opacity="0.5"/>
<path d="M-279.271 28.6645L-288.847 28.6645L-288.847 9.55484L-279.271 9.55484L-279.271 28.6645Z" fill="#00A7A2" fill-opacity="0.5"/>
<path d="M-288.847 47.7743L-298.424 47.7743L-298.424 19.1097L-288.847 19.1097L-288.847 47.7743Z" fill="#00A7A2" fill-opacity="0.5"/>
<path d="M-240.965 38.2194L-250.542 38.2194L-250.542 28.6645L-240.965 28.6645L-240.965 38.2194Z" fill="#00A7A2" fill-opacity="0.5"/>
<path d="M-250.536 47.7743L-260.112 47.7743L-260.112 19.1097L-250.536 19.1096L-250.536 47.7743Z" fill="#00A7A2" fill-opacity="0.5"/>
<path d="M-126.244 659.335L-135.82 659.335L-135.82 649.781L-126.244 649.781L-126.244 659.335Z" fill="#00A7A2" fill-opacity="0.5"/>
<path d="M-154.973 659.335L-164.549 659.335L-164.549 649.781L-154.973 649.781L-154.973 659.335Z" fill="#00A7A2" fill-opacity="0.5"/>
<path d="M-126.244 640.219L-135.82 640.219L-135.82 621.11L-126.244 621.11L-126.244 640.219Z" fill="#00A7A2" fill-opacity="0.5"/>
<path d="M-126.244 688L-135.82 688L-135.82 668.89L-126.244 668.89L-126.244 688Z" fill="#00A7A2" fill-opacity="0.5"/>
<path d="M-116.661 678.445L-126.238 678.445L-126.238 659.335L-116.661 659.335L-116.661 678.445Z" fill="#00A7A2" fill-opacity="0.5"/>
<path d="M-116.661 649.774L-126.238 649.774L-126.238 630.665L-116.661 630.665L-116.661 649.774Z" fill="#00A7A2" fill-opacity="0.5"/>
<path d="M-135.82 678.445L-145.397 678.445L-145.397 659.335L-135.82 659.335L-135.82 678.445Z" fill="#00A7A2" fill-opacity="0.5"/>
<path d="M-135.82 649.774L-145.397 649.774L-145.397 630.665L-135.82 630.665L-135.82 649.774Z" fill="#00A7A2" fill-opacity="0.5"/>
<path d="M-145.397 668.89L-154.973 668.89L-154.973 640.226L-145.397 640.226L-145.397 668.89Z" fill="#00A7A2" fill-opacity="0.5"/>
<path d="M-97.5086 659.335L-107.085 659.335L-107.085 649.781L-97.5086 649.781L-97.5086 659.335Z" fill="#00A7A2" fill-opacity="0.5"/>
<path d="M-107.085 668.89L-116.661 668.89L-116.661 640.226L-107.085 640.226L-107.085 668.89Z" fill="#00A7A2" fill-opacity="0.5"/>
<path d="M-30.6061 659.335L-40.1825 659.335L-40.1825 649.781L-30.6061 649.781L-30.6061 659.335Z" fill="#00A7A2" fill-opacity="0.5"/>
<path d="M-59.3352 659.335L-68.9116 659.335L-68.9116 649.781L-59.3352 649.781L-59.3352 659.335Z" fill="#00A7A2" fill-opacity="0.5"/>
<path d="M-30.6061 640.219L-40.1825 640.219L-40.1825 621.11L-30.6061 621.11L-30.6061 640.219Z" fill="#00A7A2" fill-opacity="0.5"/>
<path d="M-30.6061 688L-40.1825 688L-40.1825 668.89L-30.6061 668.89L-30.6061 688Z" fill="#00A7A2" fill-opacity="0.5"/>
<path d="M-21.0297 678.445L-30.6061 678.445L-30.6061 659.335L-21.0297 659.335L-21.0297 678.445Z" fill="#00A7A2" fill-opacity="0.5"/>
<path d="M-21.0297 649.774L-30.6061 649.774L-30.6061 630.665L-21.0297 630.665L-21.0297 649.774Z" fill="#00A7A2" fill-opacity="0.5"/>
<path d="M-40.1825 678.445L-49.7589 678.445L-49.7589 659.335L-40.1825 659.335L-40.1825 678.445Z" fill="#00A7A2" fill-opacity="0.5"/>
<path d="M-40.1825 649.774L-49.7589 649.774L-49.7589 630.665L-40.1825 630.665L-40.1825 649.774Z" fill="#00A7A2" fill-opacity="0.5"/>
<path d="M-49.7589 668.89L-59.3352 668.89L-59.3352 640.226L-49.7589 640.226L-49.7589 668.89Z" fill="#00A7A2" fill-opacity="0.5"/>
<path d="M-1.87702 659.335L-11.4534 659.335L-11.4534 649.781L-1.87703 649.781L-1.87702 659.335Z" fill="#00A7A2" fill-opacity="0.5"/>
<path d="M-11.4534 668.89L-21.0298 668.89L-21.0298 640.226L-11.4534 640.226L-11.4534 668.89Z" fill="#00A7A2" fill-opacity="0.5"/>
<path d="M-221.876 659.335L-231.452 659.335L-231.452 649.781L-221.876 649.781L-221.876 659.335Z" fill="#00A7A2" fill-opacity="0.5"/>
<path d="M-250.605 659.335L-260.181 659.335L-260.181 649.781L-250.605 649.781L-250.605 659.335Z" fill="#00A7A2" fill-opacity="0.5"/>
<path d="M-221.876 640.219L-231.452 640.219L-231.452 621.11L-221.876 621.11L-221.876 640.219Z" fill="#00A7A2" fill-opacity="0.5"/>
<path d="M-221.876 688L-231.452 688L-231.452 668.89L-221.876 668.89L-221.876 688Z" fill="#00A7A2" fill-opacity="0.5"/>
<path d="M-212.299 678.445L-221.876 678.445L-221.876 659.335L-212.299 659.335L-212.299 678.445Z" fill="#00A7A2" fill-opacity="0.5"/>
<path d="M-212.299 649.774L-221.876 649.774L-221.876 630.665L-212.299 630.665L-212.299 649.774Z" fill="#00A7A2" fill-opacity="0.5"/>
<path d="M-231.452 678.445L-241.028 678.445L-241.028 659.335L-231.452 659.335L-231.452 678.445Z" fill="#00A7A2" fill-opacity="0.5"/>
<path d="M-231.452 649.774L-241.028 649.774L-241.028 630.665L-231.452 630.665L-231.452 649.774Z" fill="#00A7A2" fill-opacity="0.5"/>
<path d="M-241.028 668.89L-250.605 668.89L-250.605 640.226L-241.028 640.226L-241.028 668.89Z" fill="#00A7A2" fill-opacity="0.5"/>
<path d="M-193.146 659.335L-202.723 659.335L-202.723 649.781L-193.146 649.781L-193.146 659.335Z" fill="#00A7A2" fill-opacity="0.5"/>
<path d="M-202.723 668.89L-212.299 668.89L-212.299 640.226L-202.723 640.226L-202.723 668.89Z" fill="#00A7A2" fill-opacity="0.5"/>
<path d="M64.2709 468.219L54.6945 468.219L54.6945 458.665L64.2709 458.665L64.2709 468.219Z" fill="#00A7A2" fill-opacity="0.5"/>
<path d="M35.5418 468.219L25.9655 468.219L25.9654 458.665L35.5418 458.665L35.5418 468.219Z" fill="#00A7A2" fill-opacity="0.5"/>
<path d="M64.2709 496.884L54.6946 496.884L54.6946 477.774L64.2709 477.774L64.2709 496.884Z" fill="#00A7A2" fill-opacity="0.5"/>
<path d="M64.2709 449.11L54.6945 449.11L54.6945 430L64.2709 430L64.2709 449.11Z" fill="#00A7A2" fill-opacity="0.5"/>
<path d="M73.8473 458.665L64.2709 458.665L64.2709 439.555L73.8473 439.555L73.8473 458.665Z" fill="#00A7A2" fill-opacity="0.5"/>
<path d="M73.8473 487.329L64.2709 487.329L64.2709 468.219L73.8473 468.219L73.8473 487.329Z" fill="#00A7A2" fill-opacity="0.5"/>
<path d="M54.6945 458.665L45.1182 458.665L45.1182 439.555L54.6945 439.555L54.6945 458.665Z" fill="#00A7A2" fill-opacity="0.5"/>
<path d="M54.6945 487.329L45.1182 487.329L45.1182 468.219L54.6945 468.219L54.6945 487.329Z" fill="#00A7A2" fill-opacity="0.5"/>
<path d="M45.1182 477.774L35.5418 477.774L35.5418 449.11L45.1182 449.11L45.1182 477.774Z" fill="#00A7A2" fill-opacity="0.5"/>
<path d="M93 468.219L83.4236 468.219L83.4236 458.665L93 458.665L93 468.219Z" fill="#00A7A2" fill-opacity="0.5"/>
<path d="M83.4236 477.774L73.8473 477.774L73.8473 449.11L83.4236 449.11L83.4236 477.774Z" fill="#00A7A2" fill-opacity="0.5"/>
<path d="M-31.3607 468.219L-40.937 468.219L-40.937 458.665L-31.3607 458.665L-31.3607 468.219Z" fill="#00A7A2" fill-opacity="0.5"/>
<path d="M-60.0961 468.219L-69.6724 468.219L-69.6724 458.665L-60.0961 458.665L-60.0961 468.219Z" fill="#00A7A2" fill-opacity="0.5"/>
<path d="M-31.3607 496.884L-40.937 496.884L-40.937 477.774L-31.3607 477.774L-31.3607 496.884Z" fill="#00A7A2" fill-opacity="0.5"/>
<path d="M-31.3607 449.11L-40.937 449.11L-40.937 430L-31.3607 430L-31.3607 449.11Z" fill="#00A7A2" fill-opacity="0.5"/>
<path d="M-21.7843 458.665L-31.3607 458.665L-31.3607 439.555L-21.7843 439.555L-21.7843 458.665Z" fill="#00A7A2" fill-opacity="0.5"/>
<path d="M-21.7843 487.329L-31.3607 487.329L-31.3607 468.219L-21.7843 468.219L-21.7843 487.329Z" fill="#00A7A2" fill-opacity="0.5"/>
<path d="M-40.937 458.665L-50.5134 458.665L-50.5134 439.555L-40.937 439.555L-40.937 458.665Z" fill="#00A7A2" fill-opacity="0.5"/>
<path d="M-40.937 487.329L-50.5134 487.329L-50.5134 468.219L-40.937 468.219L-40.937 487.329Z" fill="#00A7A2" fill-opacity="0.5"/>
<path d="M-50.5134 477.774L-60.0898 477.774L-60.0898 449.11L-50.5134 449.11L-50.5134 477.774Z" fill="#00A7A2" fill-opacity="0.5"/>
<path d="M-2.6316 468.219L-12.208 468.219L-12.208 458.665L-2.6316 458.665L-2.6316 468.219Z" fill="#00A7A2" fill-opacity="0.5"/>
<path d="M-12.2079 477.774L-21.7843 477.774L-21.7843 449.11L-12.208 449.11L-12.2079 477.774Z" fill="#00A7A2" fill-opacity="0.5"/>
</svg>
