<svg width="21" height="21" viewBox="0 0 21 21" fill="none" xmlns="http://www.w3.org/2000/svg">
<path d="M16.5192 12.2002L13.2881 10.5848C13.1609 10.5214 13.0192 10.4927 12.8774 10.5016C12.7356 10.5105 12.5986 10.5566 12.4803 10.6353L10.997 11.6247C10.3162 11.2504 9.75582 10.6902 9.38151 10.0093L10.371 8.5262C10.4497 8.40791 10.4959 8.27095 10.5047 8.12913C10.5136 7.98732 10.4849 7.84568 10.4215 7.71851L8.80597 4.48774C8.73901 4.35252 8.63551 4.23877 8.5072 4.15936C8.37888 4.07995 8.23089 4.03807 8.07999 4.03846C7.00882 4.03846 5.98152 4.46394 5.22409 5.2213C4.46666 5.97866 4.04114 7.00586 4.04114 8.07692C4.04381 10.4324 4.98082 12.6907 6.64659 14.3563C8.31236 16.022 10.5709 16.9589 12.9266 16.9615C13.457 16.9615 13.9822 16.8571 14.4722 16.6541C14.9622 16.4512 15.4075 16.1537 15.7825 15.7787C16.1575 15.4037 16.455 14.9585 16.658 14.4685C16.861 13.9786 16.9655 13.4534 16.9655 12.9231C16.9656 12.773 16.9239 12.6259 16.845 12.4982C16.7662 12.3705 16.6534 12.2673 16.5192 12.2002ZM12.9266 15.3462C10.9992 15.344 9.15127 14.5775 7.78836 13.2147C6.42544 11.8519 5.65882 10.0042 5.65668 8.07692C5.65652 7.51671 5.85051 6.97374 6.20562 6.54043C6.56074 6.10712 7.05504 5.81023 7.60442 5.70029L8.76357 8.0224L7.77708 9.49038C7.70336 9.60095 7.65806 9.728 7.64521 9.86026C7.63235 9.99252 7.65233 10.1259 7.70337 10.2486C8.28131 11.6221 9.37405 12.7147 10.7477 13.2926C10.8707 13.3459 11.0051 13.3677 11.1388 13.3561C11.2724 13.3445 11.401 13.2997 11.513 13.226L12.9882 12.2426L15.3105 13.4016C15.1997 13.9516 14.9015 14.4461 14.4668 14.8007C14.032 15.1553 13.4877 15.3481 12.9266 15.3462ZM10.5033 2.50057e-07C8.69033 -0.000395326 6.90814 0.468551 5.33019 1.36119C3.75225 2.25384 2.43231 3.53976 1.49886 5.09381C0.565405 6.64786 0.0502348 8.41709 0.00349153 10.2293C-0.0432517 12.0415 0.380025 13.8349 1.23212 15.435L0.0860982 18.8727C-0.00883027 19.1574 -0.0226066 19.4628 0.0463133 19.7548C0.115233 20.0468 0.264126 20.3139 0.476303 20.526C0.68848 20.7382 0.955556 20.8871 1.2476 20.956C1.53964 21.0249 1.8451 21.0111 2.12976 20.9162L5.56783 19.7703C6.97614 20.5193 8.5366 20.9376 10.1307 20.9935C11.7249 21.0495 13.3108 20.7415 14.7682 20.0931C16.2255 19.4447 17.516 18.4728 18.5416 17.2512C19.5672 16.0296 20.3011 14.5904 20.6874 13.0429C21.0737 11.4955 21.1024 9.8803 20.7712 8.32008C20.44 6.75985 19.7577 5.29557 18.7761 4.03838C17.7945 2.78118 16.5393 1.76412 15.1059 1.06439C13.6724 0.364662 12.0984 0.000654463 10.5033 2.50057e-07ZM10.5033 19.3846C8.94125 19.3857 7.40661 18.9744 6.05451 18.1923C5.95551 18.1349 5.84545 18.0991 5.7316 18.0875C5.61776 18.0758 5.50274 18.0885 5.39416 18.1246L1.61783 19.3846L2.87694 15.6087C2.91324 15.5002 2.92607 15.3852 2.91458 15.2713C2.90309 15.1575 2.86755 15.0474 2.8103 14.9484C1.83085 13.2552 1.43761 11.2861 1.69157 9.34658C1.94553 7.40708 2.83251 5.6056 4.2149 4.2216C5.59729 2.83759 7.39782 1.94843 9.33718 1.69204C11.2765 1.43565 13.2463 1.82637 14.9409 2.80359C16.6355 3.7808 17.9603 5.28989 18.7096 7.09674C19.4589 8.90359 19.591 10.9072 19.0853 12.7968C18.5796 14.6863 17.4644 16.3562 15.9127 17.5473C14.361 18.7385 12.4595 19.3843 10.5033 19.3846Z" fill="white"/>
</svg>
