<svg width="12" height="9" viewBox="0 0 12 9" fill="none" xmlns="http://www.w3.org/2000/svg">
<path d="M4.8776 0.0144891C6.28419 -0.0131945 7.75462 -0.00737692 9.15521 0.0869077C10.6595 0.188213 11.5975 0.191022 11.8551 2.02576C12.0457 3.38246 12.0319 5.11308 11.9085 6.48001C11.7581 8.14343 11.467 8.70412 9.85298 8.86922C8.23989 9.03432 6.51653 9.00884 4.89632 8.97514C3.86118 8.95347 2.75939 8.97032 1.73474 8.81225C0.333766 8.59619 0.186424 7.67882 0.0746532 6.3466C-0.0313135 5.0854 -0.0256969 3.65628 0.0993663 2.39608C0.236224 1.01872 0.508817 0.346291 1.88095 0.16715C2.83765 0.0421726 3.90874 0.0335466 4.8776 0.0144891ZM4.80796 6.4134L7.89747 4.50464L4.80796 2.59588V6.4134Z" fill="white"/>
</svg>
